<svg width="85" height="16" viewBox="0 0 85 16" fill="none" xmlns="http://www.w3.org/2000/svg">
<path fill-rule="evenodd" clip-rule="evenodd" d="M72.1932 10.7809L71.0345 9.73088C70.9104 9.61199 70.7764 9.53341 70.6209 9.40146C70.5061 9.57504 69.2445 10.6153 69.0292 10.8222L67.4602 12.1882C66.0798 13.4254 66.3674 12.7511 66.3674 14.4053L66.382 15.5392C66.4258 15.7161 66.3788 15.5732 66.4304 15.6632L68.5133 15.651C68.5571 15.3522 68.5302 14.9132 68.5296 14.5804C68.5287 14.0077 68.4484 14.0822 68.7802 13.7694C69.1465 13.424 69.5625 13.1335 69.9349 12.7762L71.9201 11.0345C72.0228 10.9355 72.1315 10.8881 72.1932 10.7809V10.7809Z" fill="#65C75F"/>
<path fill-rule="evenodd" clip-rule="evenodd" d="M72.2124 8.05897C72.3626 8.19556 72.4424 8.23542 72.5993 8.38835L73.8092 9.41534C73.9505 9.25324 73.992 9.22286 74.149 9.09636C75.2443 8.21397 76.5582 6.93641 77.6402 6.05485C78.2109 5.58977 78.0577 5.57845 78.0577 4.5559C78.0577 4.19887 78.0879 3.62263 78.0413 3.29898L75.9543 3.31263C75.947 3.32352 75.9404 3.33836 75.9368 3.34788L75.8953 3.85545C75.901 5.00367 75.9714 4.75455 75.5778 5.09479C75.3924 5.25512 75.2144 5.44955 75.0241 5.59205C74.8229 5.74265 74.6722 5.91051 74.4714 6.09018L73.0647 7.3142C72.9368 7.42536 72.9203 7.40829 72.7785 7.55456C72.6713 7.66503 72.6092 7.68395 72.4949 7.79821L72.2124 8.05897H72.2124Z" fill="#65C75F"/>
<path fill-rule="evenodd" clip-rule="evenodd" d="M84.3036 15.6583V13.8309L84.0841 13.8254C83.9403 13.9125 83.4028 14.6305 83.2937 14.7884C83.164 14.7058 82.9386 14.3867 82.8401 14.2446C82.5637 13.8455 82.5305 13.7903 82.2561 13.8472L82.2617 15.658L82.5548 15.664L82.5638 14.3672C82.7988 14.5551 83.0272 15.072 83.2937 15.1905C83.541 14.9826 83.7474 14.5902 84.0008 14.3507L84.0128 15.6619L84.3036 15.6583ZM70.6209 9.40144C70.7764 9.5334 70.9104 9.61197 71.0345 9.73086L72.1932 10.7809L73.6817 12.039C73.7823 12.1176 73.846 12.2063 73.9449 12.3016L75.6645 13.7816C75.9946 14.0133 75.9064 14.11 75.9061 14.6242C75.906 14.9172 75.8304 15.4239 75.9566 15.663L78.0413 15.651C78.0834 15.3657 78.1176 13.2725 78.0072 13.11L75.9082 11.2619C75.7571 11.1274 75.7095 11.075 75.5545 10.9582L73.8093 9.41532L72.5994 8.38833C72.4424 8.2354 72.3627 8.19552 72.2125 8.05896L69.1216 5.33578C68.5327 4.82732 68.5262 4.99862 68.5295 4.33709C68.5311 4.0164 68.5567 3.60047 68.5132 3.29866L66.433 3.31506C66.4252 3.32567 66.4178 3.34023 66.4139 3.34965L66.3725 3.46187C66.3671 3.48768 66.3639 3.56173 66.3631 3.59043L66.3673 4.51209C66.3673 5.69791 66.1541 5.59149 66.9353 6.19705C67.1415 6.35687 67.2626 6.4535 67.4626 6.63931C67.672 6.83391 67.8127 6.91584 68.0014 7.10577C68.1943 7.3 68.3379 7.39091 68.5205 7.55455L70.1092 8.94478C70.2545 9.07867 70.5401 9.28726 70.6209 9.40144ZM64.8725 15.4149C64.8761 15.3647 64.8703 15.2505 64.8696 15.1935C64.8267 11.7601 64.8688 8.09526 64.8688 4.64345C64.8688 3.05575 64.9906 3.29233 64.3696 3.29702C64.1245 3.29889 62.666 3.25245 62.5767 3.33896C62.4627 3.44943 62.5307 12.8789 62.5307 14.3178C62.5307 15.8539 62.4164 15.6699 63.0076 15.6644C63.3489 15.6612 64.5859 15.7096 64.8027 15.6419L64.8725 15.4149ZM60.5711 5.9294C60.7452 5.48024 61.4517 4.36239 61.551 4.03058C61.4332 3.87264 61.0278 3.63692 60.7875 3.52861C59.7827 3.07574 58.6177 2.92119 57.5186 3.15596C56.4316 3.38815 55.8407 3.89779 55.1754 4.62602L54.6456 5.31682L54.5998 3.30826C54.3829 3.23132 52.8419 3.24952 52.5361 3.2864L52.558 15.6255C52.774 15.6819 54.5751 15.6762 54.8521 15.6365C54.9151 15.2973 54.8743 12.1433 54.8743 11.5161C54.8743 9.41552 54.6106 6.5189 57.1867 5.53601C58.9461 4.86468 60.2386 5.9021 60.5711 5.9294ZM42.4592 5.16874C42.4592 5.35339 42.4989 5.32175 42.6787 5.32175H44.8962V11.4724C44.8962 12.2724 45.0184 13.2108 45.321 13.8729C45.669 14.6347 45.9452 14.8797 46.6207 15.3338C47.1589 15.6956 48.1426 15.853 48.9138 15.8353C49.5247 15.8213 50.7775 15.6459 51.1851 15.3547L51.186 13.278C50.9039 13.2636 49.5171 13.9735 48.4011 13.6451C47.4824 13.3748 47.2123 12.6017 47.2123 11.4723C47.2121 10.4581 47.1692 5.96258 47.223 5.32174C47.8098 5.32174 50.6626 5.40494 50.9688 5.28321C50.9999 4.86573 51.0281 3.67743 50.9334 3.29901L47.2123 3.28625L47.2123 0.6599C47.213 0.0609372 47.2844 0.00327041 46.9817 0.00327041H45.0498C44.8465 0.00327041 44.8905 0.0815557 44.8921 0.305854L44.8963 3.27556C44.6765 3.32349 43.2948 3.30101 42.8971 3.29635C42.3225 3.2896 42.4592 3.11911 42.4592 5.16874ZM26.7292 10.4109C26.7957 8.45556 26.6361 6.99363 25.7005 5.54837L25.0318 4.7263C24.3314 3.99521 23.2165 3.47011 22.1414 3.22667C19.0129 2.51829 15.4822 3.83218 14.4733 6.98993C13.9432 8.649 13.8863 10.3792 14.4737 12.0127C15.6156 15.1883 18.9084 16.4654 22.1312 15.8499C23.2383 15.6384 23.9103 15.334 24.7874 14.8229C25.1017 14.6398 25.835 14.0718 25.9324 13.7924C25.648 13.4924 24.7264 12.5764 24.5007 12.4368C24.2447 12.509 24.0637 12.8389 23.5562 13.1136C23.163 13.3264 22.8625 13.453 22.4104 13.59C21.0665 13.9974 18.907 13.9127 17.8811 12.9946C17.7141 12.845 17.5944 12.8106 17.4513 12.6359C17.2111 12.3429 16.9874 12.092 16.7974 11.6679C16.6357 11.3071 16.4996 10.8365 16.4875 10.4109L26.7292 10.4109ZM16.4873 8.43019H24.5227C24.388 7.81013 24.4071 7.61625 24.1104 7.04576C22.7856 4.49765 18.2773 4.41715 16.9397 7.08722C16.6617 7.64226 16.6598 7.85441 16.4873 8.43019ZM38.7999 5.11011C38.122 4.19003 36.8982 3.52147 35.7924 3.23257C34.4822 2.89028 32.801 2.98518 31.5962 3.48735C29.1739 4.49707 27.8573 6.82198 27.8739 9.50249C27.8843 11.188 28.3797 12.7683 29.487 13.9849C30.0551 14.609 30.7508 15.1394 31.6274 15.4863C32.8821 15.9827 34.4557 16.0824 35.827 15.7195C36.8789 15.4411 38.1681 14.7468 38.7999 13.8511L38.8809 15.2234C38.8902 15.4325 38.8702 15.5475 38.9585 15.624C39.1049 15.7167 40.6328 15.7102 40.8305 15.638C40.8674 15.5864 40.8448 15.653 40.8756 15.5367L40.8846 3.46285C40.8821 3.449 40.8785 3.43659 40.8756 3.42459L40.8476 3.35559C40.8299 3.20223 39.0201 3.28481 38.9588 3.33894C38.839 3.44453 38.8221 4.84852 38.7999 5.11011ZM38.524 9.984C38.7136 8.24265 38.0169 6.5933 36.4928 5.68968C35.2176 4.93372 33.2029 5.01306 31.9177 5.91072C31.8253 5.97526 31.7174 6.0893 31.6396 6.1555C30.8023 6.86831 30.3687 7.79498 30.2389 8.95926C30.0942 10.2581 30.4972 11.4743 31.1107 12.2804C32.5171 14.1284 35.5998 14.2351 37.1358 12.82C37.8335 12.1773 38.3726 11.374 38.524 9.984ZM0 0.0427854V15.6305C0.166457 15.6846 1.8918 15.7028 2.05939 15.631C2.13101 15.3964 2.10347 14.2038 2.10623 13.8616L2.40844 14.1912C3.03763 14.9354 4.11649 15.4648 5.0896 15.7203C6.48937 16.0877 7.93552 15.9816 9.231 15.5104C10.9316 14.8918 12.1393 13.4663 12.6709 11.7603C12.8724 11.1136 12.9655 10.437 12.9974 9.72146C13.1929 5.32561 9.74564 2.30123 5.44106 3.15573C3.21818 3.59701 2.59961 4.69385 2.33815 4.82901C2.33815 4.02299 2.33815 3.21695 2.33815 2.41093C2.33815 2.27468 2.39491 0.128136 2.27917 0.0400881C2.12088 -0.0176951 0.207353 -0.00966949 0 0.0427854ZM6.0616 5.19417C4.97853 5.31679 3.93773 5.80366 3.26542 6.62841C2.63675 7.39963 2.2478 8.68668 2.36653 9.98526C2.422 10.5921 2.57788 11.13 2.82749 11.6292C3.27191 12.5179 4.13129 13.2573 5.09777 13.5708C6.17312 13.9195 7.67208 13.8526 8.61133 13.2719C9.33753 12.823 9.26372 12.839 9.74211 12.2974C10.4078 11.5436 10.7558 10.2467 10.6443 8.99686C10.4215 6.49807 8.39469 4.93003 6.0616 5.19417ZM81.8228 14.077L81.824 13.8453C81.4823 13.8015 80.4788 13.8254 80.0719 13.8254L80.0723 14.0989H80.7965L80.8074 15.6608L81.09 15.6641L81.0983 14.0989C81.3707 14.101 81.5694 14.1204 81.8228 14.077Z" fill="#7346F8"/>
</svg>
