<svg width="9" height="10" viewBox="0 0 9 10" fill="none" xmlns="http://www.w3.org/2000/svg">
<path fill-rule="evenodd" clip-rule="evenodd" d="M1.99014e-05 7.30562C0.230583 7.51524 0.352937 7.57642 0.593868 7.81114L2.45078 9.38736C2.66764 9.13857 2.73129 9.09195 2.97228 8.89779C4.65327 7.54351 6.66995 5.58271 8.33051 4.2297C9.20653 3.5159 8.97129 3.49852 8.97129 1.92911C8.97129 1.38115 9.01762 0.496734 8.94609 0L5.74307 0.0209523C5.73184 0.0376633 5.72165 0.0604437 5.71619 0.0750468L5.65248 0.854066C5.66122 2.61634 5.76933 2.234 5.16527 2.7562C4.88065 3.00227 4.60747 3.30068 4.31531 3.5194C4.00652 3.75054 3.77524 4.00816 3.46706 4.28392L1.30815 6.16254C1.11182 6.33315 1.0865 6.30694 0.868776 6.53145C0.704317 6.701 0.609045 6.73003 0.433632 6.90539L0 7.30562H1.99014e-05Z" fill="#65C75F"/>
</svg>
