<svg width="9" height="10" viewBox="0 0 9 10" fill="none" xmlns="http://www.w3.org/2000/svg">
<path fill-rule="evenodd" clip-rule="evenodd" d="M9.00001 2.12197L7.21772 0.506751C7.02674 0.32386 6.8206 0.202975 6.58144 0C6.40474 0.267019 4.46407 1.8672 4.13295 2.18553L1.71929 4.28687C-0.404203 6.18998 0.03829 5.15278 0.03829 7.69743L0.0607601 9.44171C0.128139 9.71375 0.0557231 9.49394 0.135102 9.63247L3.33921 9.61371C3.40672 9.15397 3.36523 8.47871 3.36442 7.96677C3.36299 7.08571 3.23943 7.20033 3.74984 6.71916C4.31333 6.18792 4.9533 5.74099 5.52606 5.19137L8.58001 2.51212C8.73792 2.35975 8.90516 2.28692 9.00001 2.122V2.12197Z" fill="#65C75F"/>
</svg>
