<svg width="127" height="24" viewBox="0 0 127 24" fill="none" xmlns="http://www.w3.org/2000/svg">
<path fill-rule="evenodd" clip-rule="evenodd" d="M108.29 16.1713L106.552 14.5963C106.366 14.418 106.165 14.3001 105.931 14.1022C105.759 14.3625 103.867 15.9229 103.544 16.2333L101.19 18.2823C99.1197 20.1381 99.5511 19.1267 99.5511 21.608L99.573 23.3088C99.6387 23.5741 99.5681 23.3598 99.6455 23.4948L102.77 23.4765C102.836 23.0283 102.795 22.3698 102.794 21.8706C102.793 21.0115 102.673 21.1232 103.17 20.6541C103.72 20.136 104.344 19.7002 104.902 19.1643L107.88 16.5518C108.034 16.4032 108.197 16.3322 108.29 16.1713V16.1713Z" fill="#65C75F"/>
<path fill-rule="evenodd" clip-rule="evenodd" d="M108.319 12.0885C108.544 12.2933 108.664 12.3531 108.899 12.5825L110.714 14.123C110.926 13.8799 110.988 13.8343 111.224 13.6446C112.866 12.321 114.837 10.4046 116.46 9.08229C117.317 8.38467 117.087 8.36769 117.087 6.83386C117.087 6.29832 117.132 5.43396 117.062 4.94849L113.932 4.96896C113.921 4.9853 113.911 5.00756 113.905 5.02183L113.843 5.78319C113.852 7.50551 113.957 7.13183 113.367 7.6422C113.089 7.88269 112.822 8.17434 112.536 8.3881C112.234 8.61399 112.008 8.86578 111.707 9.13528L109.597 10.9713C109.405 11.1381 109.381 11.1124 109.168 11.3319C109.007 11.4976 108.914 11.5259 108.743 11.6973L108.319 12.0885H108.319Z" fill="#65C75F"/>
<path fill-rule="evenodd" clip-rule="evenodd" d="M126.455 23.4875V20.7463L126.126 20.7381C125.91 20.8687 125.104 21.9457 124.941 22.1827C124.746 22.0586 124.408 21.5801 124.26 21.3669C123.846 20.7683 123.796 20.6855 123.384 20.7708L123.393 23.4871L123.832 23.496L123.846 21.5507C124.198 21.8326 124.541 22.6079 124.941 22.7858C125.312 22.4739 125.621 21.8853 126.001 21.526L126.019 23.4929L126.455 23.4875ZM105.931 14.1022C106.165 14.3001 106.366 14.418 106.552 14.5963L108.29 16.1713L110.523 18.0585C110.673 18.1765 110.769 18.3094 110.917 18.4525L113.497 20.6724C113.992 21.0199 113.86 21.165 113.859 21.9363C113.859 22.3758 113.746 23.1359 113.935 23.4945L117.062 23.4765C117.125 23.0485 117.176 19.9088 117.011 19.6651L113.862 16.8929C113.636 16.6911 113.564 16.6125 113.332 16.4373L110.714 14.123L108.899 12.5825C108.664 12.3531 108.544 12.2933 108.319 12.0884L103.682 8.00368C102.799 7.24098 102.789 7.49792 102.794 6.50563C102.797 6.0246 102.835 5.4007 102.77 4.948L99.6495 4.97259C99.6378 4.9885 99.6267 5.01035 99.6208 5.02447L99.5587 5.1928C99.5507 5.23152 99.5458 5.3426 99.5446 5.38564L99.551 6.76814C99.551 8.54686 99.2311 8.38723 100.403 9.29558C100.712 9.5353 100.894 9.68026 101.194 9.95897C101.508 10.2509 101.719 10.3738 102.002 10.6586C102.291 10.95 102.507 11.0864 102.781 11.3318L105.164 13.4172C105.382 13.618 105.81 13.9309 105.931 14.1022ZM97.3087 23.1223C97.3142 23.047 97.3055 22.8758 97.3044 22.7903C97.24 17.6401 97.3032 12.1429 97.3032 6.96517C97.3032 4.58362 97.486 4.93849 96.5545 4.94554C96.1868 4.94834 93.999 4.87867 93.8651 5.00843C93.694 5.17414 93.796 19.3183 93.796 21.4766C93.796 23.7809 93.6246 23.5048 94.5114 23.4966C95.0234 23.4918 96.8789 23.5645 97.2041 23.4628L97.3087 23.1223ZM90.8566 8.8941C91.1177 8.22036 92.1775 6.54358 92.3265 6.04587C92.1499 5.80896 91.5417 5.45539 91.1812 5.29291C89.6741 4.61361 87.9266 4.38178 86.2779 4.73394C84.6474 5.08223 83.7611 5.84669 82.763 6.93903L81.9684 7.97523L81.8997 4.96239C81.5743 4.84697 79.2628 4.87428 78.8042 4.9296L78.837 23.4383C79.161 23.5228 81.8627 23.5143 82.2782 23.4547C82.3727 22.946 82.3114 18.215 82.3114 17.2742C82.3114 14.1233 81.9159 9.77835 85.78 8.30401C88.4192 7.29702 90.3579 8.85315 90.8566 8.8941ZM63.6887 7.75311C63.6887 8.03009 63.7484 7.98263 64.018 7.98263H67.3444V17.2085C67.3444 18.4085 67.5276 19.8161 67.9814 20.8094C68.5035 21.952 68.9179 22.3196 69.931 23.0007C70.7383 23.5434 72.2139 23.7795 73.3707 23.7529C74.287 23.7319 76.1662 23.4688 76.7777 23.032L76.779 19.917C76.3558 19.8954 74.2757 20.9603 72.6016 20.4676C71.2236 20.0621 70.8184 18.9025 70.8184 17.2085C70.8181 15.6872 70.7539 8.94387 70.8345 7.9826C71.7147 7.9826 75.9939 8.1074 76.4532 7.92482C76.4999 7.29859 76.5422 5.51615 76.4002 4.94852L70.8184 4.92938L70.8184 0.989849C70.8195 0.0914059 70.9266 0.00490561 70.4726 0.00490561H67.5746C67.2697 0.00490561 67.3358 0.122334 67.3381 0.458781L67.3444 4.91335C67.0147 4.98523 64.9422 4.95152 64.3457 4.94452C63.4837 4.93439 63.6887 4.67866 63.6887 7.75311ZM40.0937 15.6164C40.1935 12.6833 39.9541 10.4904 38.5507 8.32255L37.5476 7.08945C36.4971 5.99281 34.8247 5.20516 33.2121 4.84C28.5193 3.77744 23.2232 5.74827 21.7099 10.4849C20.9148 12.9735 20.8295 15.5688 21.7106 18.0191C23.4234 22.7825 28.3625 24.6982 33.1968 23.7748C34.8575 23.4576 35.8655 23.001 37.1812 22.2344C37.6525 21.9598 38.7525 21.1078 38.8986 20.6886C38.472 20.2386 37.0896 18.8646 36.7511 18.6552C36.3671 18.7635 36.0956 19.2583 35.3343 19.6704C34.7445 19.9897 34.2937 20.1795 33.6155 20.385C31.5998 20.996 28.3604 20.8691 26.8217 19.4918C26.5711 19.2675 26.3917 19.2159 26.1769 18.9539C25.8166 18.5144 25.4811 18.138 25.1961 17.5018C24.9536 16.9606 24.7494 16.2548 24.7312 15.6163L40.0937 15.6164ZM24.7309 12.6453H36.784C36.582 11.7152 36.6106 11.4244 36.1657 10.5686C34.1784 6.74647 27.4159 6.62572 25.4096 10.6308C24.9925 11.4634 24.9897 11.7816 24.7309 12.6453ZM58.1998 7.66517C57.183 6.28505 55.3473 5.28221 53.6886 4.84886C51.7232 4.33541 49.2015 4.47776 47.3943 5.23103C43.7608 6.7456 41.7859 10.233 41.8108 14.2537C41.8264 16.7819 42.5696 19.1524 44.2306 20.9773C45.0826 21.9135 46.1262 22.7091 47.4411 23.2294C49.3231 23.9741 51.6836 24.1236 53.7404 23.5792C55.3183 23.1617 57.2521 22.1202 58.1998 20.7767L58.3214 22.8351C58.3354 23.1488 58.3052 23.3212 58.4378 23.436C58.6573 23.575 60.9492 23.5653 61.2458 23.457C61.3011 23.3796 61.2672 23.4795 61.3135 23.305L61.3269 5.19427C61.3232 5.17349 61.3178 5.15488 61.3135 5.13688L61.2714 5.03338C61.2449 4.80334 58.5302 4.92722 58.4381 5.00841C58.2585 5.16679 58.2332 7.27277 58.1998 7.66517ZM57.7859 14.976C58.0704 12.364 57.0254 9.88994 54.7391 8.53452C52.8264 7.40058 49.8043 7.51959 47.8765 8.86608C47.7379 8.96288 47.5761 9.13395 47.4595 9.23326C46.2035 10.3025 45.553 11.6925 45.3584 13.4389C45.1413 15.3872 45.7458 17.2114 46.666 18.4206C48.7756 21.1925 53.3997 21.3526 55.7038 19.2301C56.7503 18.266 57.5589 17.061 57.7859 14.976ZM0 0.0641781V23.4457C0.249685 23.5269 2.83771 23.5542 3.08908 23.4465C3.19651 23.0947 3.15521 21.3057 3.15934 20.7925L3.61265 21.2868C4.55645 22.4031 6.17473 23.1972 7.6344 23.5804C9.73406 24.1315 11.9033 23.9723 13.8465 23.2656C16.3974 22.3378 18.209 20.1994 19.0063 17.6405C19.3086 16.6705 19.4483 15.6555 19.496 14.5822C19.7894 7.98841 14.6185 3.45184 8.16158 4.73359C4.82727 5.39552 3.89941 7.04077 3.50722 7.24351C3.50722 6.03448 3.50722 4.82543 3.50722 3.6164C3.50722 3.41203 3.59236 0.192204 3.41876 0.0601321C3.18132 -0.0265426 0.31103 -0.0145042 0 0.0641781ZM9.09241 7.79126C7.4678 7.97518 5.9066 8.70549 4.89812 9.94261C3.95513 11.0994 3.37171 13.03 3.54979 14.9779C3.63299 15.8881 3.86682 16.695 4.24124 17.4437C4.90786 18.7769 6.19694 19.886 7.64665 20.3562C9.25968 20.8793 11.5081 20.7788 12.917 19.9079C14.0063 19.2345 13.8956 19.2585 14.6132 18.446C15.6118 17.3154 16.1337 15.37 15.9665 13.4953C15.6322 9.7471 12.592 7.39504 9.09241 7.79126ZM122.734 21.1155L122.736 20.7679C122.224 20.7022 120.718 20.7381 120.108 20.7381L120.108 21.1483H121.195L121.211 23.4912L121.635 23.4961L121.647 21.1483C122.056 21.1514 122.354 21.1805 122.734 21.1155Z" fill="#7346F8"/>
</svg>
