<svg width="6" height="7" viewBox="0 0 6 7" fill="none" xmlns="http://www.w3.org/2000/svg">
<path fill-rule="evenodd" clip-rule="evenodd" d="M6.00005 1.41466L4.81185 0.337836C4.68453 0.215908 4.5471 0.135318 4.38766 0C4.26986 0.178014 2.97607 1.24481 2.75532 1.45703L1.1462 2.85793C-0.269471 4.12668 0.0255268 3.43521 0.0255268 5.13166L0.040507 6.29452C0.0854266 6.47588 0.037149 6.32934 0.0900686 6.42169L2.22616 6.40918C2.27116 6.10269 2.2435 5.65251 2.24296 5.31121C2.24201 4.72384 2.15964 4.80025 2.49991 4.47947C2.87557 4.12531 3.30222 3.82735 3.68406 3.46094L5.72005 1.67476C5.82532 1.57318 5.93681 1.52462 6.00005 1.41468V1.41466Z" fill="#65C75F"/>
</svg>
