<svg width="6" height="7" viewBox="0 0 6 7" fill="none" xmlns="http://www.w3.org/2000/svg">
<path fill-rule="evenodd" clip-rule="evenodd" d="M1.32675e-05 4.87038C0.153721 5.01013 0.23529 5.05091 0.395909 5.20739L1.63384 6.2582C1.77841 6.09234 1.82085 6.06126 1.9815 5.93182C3.10216 5.02897 4.4466 3.72178 5.55364 2.81978C6.13765 2.34391 5.98082 2.33233 5.98082 1.28606C5.98082 0.92076 6.01171 0.331154 5.96402 0L3.82869 0.0139681C3.8212 0.0251087 3.8144 0.0402955 3.81077 0.0500308L3.76829 0.569373C3.77412 1.74422 3.8462 1.48932 3.44349 1.83746C3.25375 2.0015 3.07163 2.20044 2.87686 2.34625C2.67099 2.50034 2.51681 2.67209 2.31135 2.85592L0.872094 4.10833C0.74121 4.22207 0.724329 4.2046 0.57918 4.35427C0.469542 4.4673 0.406027 4.48665 0.289086 4.60356L0 4.87038H1.32675e-05Z" fill="#65C75F"/>
</svg>
