<svg width="11" height="11" viewBox="0 0 11 11" fill="none" xmlns="http://www.w3.org/2000/svg">
<path d="M5.50005 10.9913C4.41224 10.9913 3.34887 10.669 2.44439 10.0651C1.53991 9.46126 0.83496 8.60296 0.418674 7.59876C0.00238854 6.59456 -0.106538 5.48958 0.105682 4.42352C0.317903 3.35747 0.841736 2.37823 1.61093 1.60964C2.38013 0.841063 3.36013 0.317649 4.42704 0.105598C5.49394 -0.106453 6.59983 0.00238663 7.60483 0.41834C8.60983 0.834293 9.46882 1.53868 10.0732 2.44244C10.6775 3.34619 11.0001 4.40872 11.0001 5.49565C10.9984 6.95269 10.4185 8.34958 9.38735 9.37986C8.35625 10.4101 6.95824 10.9897 5.50005 10.9913V10.9913ZM5.50005 0.422755C4.49592 0.422755 3.51434 0.720272 2.67944 1.27769C1.84453 1.83511 1.19381 2.6274 0.809547 3.55435C0.425283 4.48131 0.324738 5.50129 0.520634 6.48534C0.716529 7.46939 1.20006 8.37329 1.91008 9.08275C2.62011 9.79221 3.52474 10.2754 4.50957 10.4711C5.49441 10.6669 6.51523 10.5664 7.44292 10.1824C8.37062 9.79847 9.16354 9.14827 9.7214 8.31403C10.2793 7.4798 10.577 6.49898 10.577 5.49565C10.5755 4.15071 10.0401 2.8613 9.08831 1.91028C8.13652 0.959262 6.84607 0.424308 5.50005 0.422777V0.422755Z" fill="#88ED7E"/>
</svg>
