<svg width="93" height="93" viewBox="0 0 93 93" fill="none" xmlns="http://www.w3.org/2000/svg">
<path d="M46.4903 93C37.2954 93 28.3069 90.2728 20.6617 85.1633C13.0164 80.0539 7.05761 72.7916 3.53887 64.2948C0.0201318 55.798 -0.900515 46.4484 0.893322 37.4283C2.68716 28.4082 7.11491 20.1227 13.6167 13.6196C20.1185 7.11642 28.4023 2.68772 37.4205 0.893505C46.4387 -0.900708 55.7863 0.0201488 64.2813 3.53962C72.7763 7.0591 80.0371 13.0191 85.1455 20.666C90.2539 28.3129 92.9805 37.3032 92.9805 46.5C92.9666 58.8283 88.0641 70.6477 79.3485 79.3651C70.6329 88.0825 58.816 92.9861 46.4903 93V93ZM46.4903 3.20692C37.9295 3.20692 29.561 5.74601 22.443 10.5031C15.3249 15.2602 9.77711 22.0217 6.50104 29.9325C3.22498 37.8432 2.36781 46.548 4.03794 54.9461C5.70806 63.3441 9.83045 71.0582 15.8838 77.1129C21.9372 83.1675 29.6497 87.2908 38.046 88.9612C46.4423 90.6317 55.1452 89.7744 63.0544 86.4976C70.9635 83.2209 77.7235 77.6719 82.4796 70.5524C87.2357 63.4329 89.7743 55.0626 89.7743 46.5C89.7613 35.022 85.1968 24.0178 77.0823 15.9016C68.9678 7.78535 57.9659 3.21995 46.4903 3.20692V3.20692Z" fill="#3F3D56"/>
</svg>
