<svg width="11" height="11" viewBox="0 0 11 11" fill="none" xmlns="http://www.w3.org/2000/svg">
<path d="M0 5.49565C0 4.40872 0.322571 3.34619 0.926923 2.44244C1.53127 1.53868 2.39026 0.834293 3.39526 0.41834C4.40026 0.0023868 5.50613 -0.106453 6.57304 0.105598C7.63994 0.31765 8.61995 0.841063 9.38915 1.60964C10.1583 2.37823 10.6822 3.35747 10.8944 4.42352C11.1066 5.48958 10.9977 6.59456 10.5814 7.59876C10.1651 8.60296 9.46016 9.46126 8.55569 10.0651C7.65121 10.669 6.58783 10.9913 5.50003 10.9913C4.04184 10.9897 2.64384 10.4101 1.61274 9.37986C0.581645 8.34958 0.00164984 6.95269 0 5.49565V5.49565ZM0.423098 5.49565C0.423094 6.49898 0.720853 7.47979 1.27871 8.31403C1.83658 9.14827 2.62948 9.79849 3.55718 10.1825C4.48487 10.5664 5.50568 10.6669 6.49052 10.4711C7.47535 10.2754 8.37998 9.79223 9.09 9.08277C9.80003 8.37331 10.2836 7.46941 10.4795 6.48536C10.6754 5.50131 10.5748 4.48131 10.1905 3.55435C9.80628 2.6274 9.15555 1.83511 8.32064 1.27769C7.48574 0.720273 6.50416 0.422772 5.50003 0.422777C4.15401 0.424308 2.86356 0.959262 1.91178 1.91028C0.959997 2.8613 0.424612 4.15071 0.423077 5.49565H0.423098Z" fill="#3F3D56"/>
</svg>
