<svg width="57" height="37" viewBox="0 0 57 37" fill="none" xmlns="http://www.w3.org/2000/svg">
<path d="M48.3734 37C46.6838 37.0011 45.0318 36.5011 43.6264 35.5631C42.2209 34.6251 41.1251 33.2914 40.4774 31.7305C39.8298 30.1696 39.6595 28.4517 39.988 26.794C40.3165 25.1363 41.1291 23.6133 42.3231 22.4175C43.517 21.2217 45.0386 20.4069 46.6955 20.0761C48.3525 19.7453 50.0702 19.9133 51.6317 20.559C53.1931 21.2046 54.528 22.2989 55.4677 23.7034C56.4073 25.1079 56.9095 26.7596 56.9106 28.4495C56.9111 30.7154 56.0122 32.8888 54.4114 34.4921C52.8106 36.0954 50.6388 36.9974 48.3734 37V37ZM28.4552 37C26.1918 36.9974 24.022 36.097 22.4215 34.4962C20.8211 32.8954 19.9208 30.7251 19.9182 28.4613V8.53887C19.9182 6.27422 20.8177 4.10232 22.4187 2.50098C24.0197 0.899626 26.1911 0 28.4553 0C30.7195 0 32.8909 0.899626 34.492 2.50098C36.093 4.10232 36.9924 6.27422 36.9924 8.53887V28.4613C36.9898 30.7251 36.0895 32.8955 34.489 34.4963C32.8885 36.097 30.7186 36.9975 28.4552 37V37ZM8.54283 37C6.27789 36.9974 4.10649 36.0963 2.50496 34.4943C0.90343 32.8924 0.00255339 30.7205 0 28.4551V20.4954C0 18.2292 0.900073 16.0559 2.50219 14.4534C4.10431 12.851 6.27723 11.9507 8.54297 11.9507C10.8087 11.9507 12.9816 12.851 14.5837 14.4534C16.1859 16.0559 17.0859 18.2292 17.0859 20.4954V28.4551C17.0834 30.7206 16.1825 32.8925 14.5809 34.4944C12.9793 36.0963 10.8078 36.9974 8.54283 37Z" fill="#88ED7E"/>
</svg>
