<svg width="28" height="45" viewBox="0 0 28 45" fill="none" xmlns="http://www.w3.org/2000/svg">
<path d="M0.225612 6.66879C0.256682 6.73951 0.291709 6.80842 0.330544 6.87518C0.369691 6.94496 0.412594 7.01255 0.45906 7.07768L8.99347 19.3641L9.65543 20.3182L16.6169 30.3342L23.3331 40.0037L26.0507 43.9213C26.1238 44.0281 26.2059 44.1284 26.2961 44.2212C26.7163 44.6634 27.2815 44.9398 27.8885 45H27.9584V28.2897L27.1797 27.1682L18.4468 14.5975L9.06761 1.09612C8.68126 0.540778 8.09055 0.161291 7.42494 0.0408428C6.75934 -0.0796051 6.07313 0.0688106 5.51674 0.453554L2.63943 2.4513L1.09365 3.52612C0.604955 3.86623 0.250624 4.36666 0.0920825 4.94064C-0.0664586 5.51462 -0.0192169 6.12599 0.225612 6.66879V6.66879Z" fill="#88ED7E"/>
</svg>
