<svg width="65" height="32" viewBox="0 0 65 32" fill="none" xmlns="http://www.w3.org/2000/svg">
<path d="M0 29.02V29.7823C0.000560758 30.1852 0.140276 30.5756 0.395512 30.8873C0.650747 31.199 1.00582 31.4129 1.40063 31.4928C1.45466 31.5005 1.50888 31.5122 1.56309 31.516C1.62111 31.5199 1.67909 31.5238 1.74106 31.5238H61.3862C62.3439 31.5235 63.2623 31.1432 63.9398 30.4662C64.6173 29.7893 64.9986 28.8711 64.9998 27.9132V3.61059C64.9986 2.65273 64.6173 1.73449 63.9398 1.05754C63.2623 0.380581 62.3439 0.000228827 61.3862 0H17.252C16.2949 0.00104952 15.3773 0.381786 14.7006 1.05867C14.0238 1.73556 13.6432 2.65333 13.6421 3.61059V27.2786H1.74106C1.27931 27.2786 0.836484 27.4621 0.509977 27.7886C0.18347 28.1152 2.66274e-05 28.5581 0 29.02Z" fill="white"/>
</svg>
