<svg width="218" height="200" viewBox="0 0 218 200" fill="none" xmlns="http://www.w3.org/2000/svg">
<g clip-path="url(#clip0_855_109447)">
<path d="M15.2245 178.037C11.6505 180.496 7.99573 183.034 5.52089 186.596C3.04623 190.158 1.96594 195.02 3.95442 198.874L3.90313 199.115C5.41023 199.644 7.02836 199.777 8.60163 199.5C10.1749 199.223 11.6503 198.546 12.8857 197.534C16.0317 194.895 17.0182 190.548 17.8207 186.523L20.1947 174.618L15.2245 178.037Z" fill="#F0F0F0"/>
<path d="M18.6672 190.043C16.2831 190.57 13.8402 191.121 11.7958 192.456C9.75156 193.79 8.15916 196.097 8.38032 198.527L8.30273 198.641C8.97657 199.236 9.79228 199.647 10.6713 199.835C11.5502 200.023 12.4629 199.982 13.3213 199.715C15.5202 199.004 16.9546 196.946 18.225 195.017L21.9826 189.31L18.6672 190.043Z" fill="#F0F0F0"/>
<path d="M217.704 10.628H14.1357C14.0576 10.6277 13.9827 10.5965 13.9275 10.5411C13.8723 10.4858 13.8413 10.4108 13.8413 10.3327C13.8413 10.2546 13.8723 10.1797 13.9275 10.1243C13.9827 10.069 14.0576 10.0378 14.1357 10.0375H217.704C217.782 10.0378 217.857 10.069 217.913 10.1243C217.968 10.1797 217.999 10.2546 217.999 10.3327C217.999 10.4108 217.968 10.4858 217.913 10.5411C217.857 10.5965 217.782 10.6277 217.704 10.628Z" fill="#CACACA"/>
<path d="M20.7861 6.49485C22.5811 6.49485 24.0361 5.04093 24.0361 3.24743C24.0361 1.45392 22.5811 0 20.7861 0C18.9912 0 17.5361 1.45392 17.5361 3.24743C17.5361 5.04093 18.9912 6.49485 20.7861 6.49485Z" fill="#3F3D56"/>
<path d="M32.0132 6.49485C33.8081 6.49485 35.2632 5.04093 35.2632 3.24743C35.2632 1.45392 33.8081 0 32.0132 0C30.2183 0 28.7632 1.45392 28.7632 3.24743C28.7632 5.04093 30.2183 6.49485 32.0132 6.49485Z" fill="#3F3D56"/>
<path d="M43.2407 6.49485C45.0357 6.49485 46.4907 5.04093 46.4907 3.24743C46.4907 1.45392 45.0357 0 43.2407 0C41.4458 0 39.9907 1.45392 39.9907 3.24743C39.9907 5.04093 41.4458 6.49485 43.2407 6.49485Z" fill="#3F3D56"/>
<path d="M210.978 1.98634H203.001C202.844 1.98634 202.694 1.92413 202.583 1.81341C202.472 1.70268 202.41 1.5525 202.41 1.3959C202.41 1.23931 202.472 1.08913 202.583 0.978399C202.694 0.86767 202.844 0.805466 203.001 0.805466H210.978C211.135 0.805466 211.285 0.86767 211.396 0.978399C211.507 1.08913 211.569 1.23931 211.569 1.3959C211.569 1.5525 211.507 1.70268 211.396 1.81341C211.285 1.92413 211.135 1.98634 210.978 1.98634Z" fill="#3F3D56"/>
<path d="M210.978 4.2005H203.001C202.844 4.2005 202.694 4.1383 202.583 4.02757C202.472 3.91684 202.41 3.76666 202.41 3.61006C202.41 3.45347 202.472 3.30329 202.583 3.19256C202.694 3.08183 202.844 3.01962 203.001 3.01962H210.978C211.135 3.01962 211.285 3.08183 211.396 3.19256C211.507 3.30329 211.569 3.45347 211.569 3.61006C211.569 3.76666 211.507 3.91684 211.396 4.02757C211.285 4.1383 211.135 4.2005 210.978 4.2005Z" fill="#3F3D56"/>
<path d="M210.978 6.41466H203.001C202.844 6.41466 202.694 6.35245 202.583 6.24173C202.472 6.131 202.41 5.98081 202.41 5.82422C202.41 5.66762 202.472 5.51744 202.583 5.40671C202.694 5.29598 202.844 5.23378 203.001 5.23378H210.978C211.134 5.23432 211.284 5.29676 211.394 5.40743C211.505 5.5181 211.567 5.66798 211.567 5.82422C211.567 5.98046 211.505 6.13033 211.394 6.24101C211.284 6.35168 211.134 6.41412 210.978 6.41466Z" fill="#3F3D56"/>
<path d="M152.478 23.2876H17.4546V104.178H152.478V23.2876Z" fill="#F0F0F0"/>
<path d="M211.568 23.2876H169.023V48.776H211.568V23.2876Z" fill="#F0F0F0"/>
<path d="M203.081 60.4854H177.766C177.45 60.4854 177.147 60.3598 176.923 60.1364C176.699 59.913 176.574 59.6099 176.574 59.294C176.574 58.978 176.699 58.6749 176.923 58.4515C177.147 58.2281 177.45 58.1025 177.766 58.1025H203.081C203.397 58.1025 203.7 58.2281 203.924 58.4515C204.147 58.6749 204.273 58.978 204.273 59.294C204.273 59.6099 204.147 59.913 203.924 60.1364C203.7 60.3598 203.397 60.4854 203.081 60.4854H203.081Z" fill="#E4E4E4"/>
<path d="M198.999 56.4071H181.848C181.531 56.4071 181.228 56.2816 181.005 56.0581C180.781 55.8347 180.655 55.5317 180.655 55.2157C180.655 54.8997 180.781 54.5967 181.005 54.3732C181.228 54.1498 181.531 54.0243 181.848 54.0243H198.999C199.315 54.0243 199.619 54.1498 199.842 54.3732C200.066 54.5967 200.191 54.8997 200.191 55.2157C200.191 55.5317 200.066 55.8347 199.842 56.0581C199.619 56.2816 199.315 56.4071 198.999 56.4071Z" fill="#E4E4E4"/>
<path d="M211.568 69.6372H169.023V95.1257H211.568V69.6372Z" fill="#F0F0F0"/>
<path d="M203.081 106.835H177.766C177.45 106.835 177.147 106.709 176.923 106.486C176.699 106.263 176.574 105.96 176.574 105.644C176.574 105.328 176.699 105.025 176.923 104.801C177.147 104.578 177.45 104.452 177.766 104.452H203.081C203.397 104.452 203.7 104.578 203.924 104.801C204.147 105.025 204.273 105.328 204.273 105.644C204.273 105.96 204.147 106.263 203.924 106.486C203.7 106.709 203.397 106.835 203.081 106.835H203.081Z" fill="#E4E4E4"/>
<path d="M198.999 102.757H181.848C181.531 102.757 181.228 102.631 181.005 102.408C180.781 102.184 180.655 101.881 180.655 101.565C180.655 101.249 180.781 100.946 181.005 100.723C181.228 100.499 181.531 100.374 181.848 100.374H198.999C199.315 100.374 199.618 100.5 199.841 100.724C200.064 100.947 200.189 101.25 200.189 101.565C200.189 101.881 200.064 102.184 199.841 102.407C199.618 102.63 199.315 102.756 198.999 102.757Z" fill="#E4E4E4"/>
<path d="M87.3126 66.8034C92.8773 66.8034 97.3884 62.2959 97.3884 56.7356C97.3884 51.1753 92.8773 46.6678 87.3126 46.6678C81.7479 46.6678 77.2368 51.1753 77.2368 56.7356C77.2368 62.2959 81.7479 66.8034 87.3126 66.8034Z" fill="#9E616A"/>
<path d="M104.289 104.178H79.0244L80.4424 72.2559L80.6169 72.0727L83.1253 69.4275H91.1027L94.0631 72.2911L94.2964 72.5186L100.596 78.5498L104.289 104.178Z" fill="#88ED7E"/>
<path d="M86.0181 104.178H66.8164C66.6894 91.9618 66.5889 82.745 66.5889 82.745L67.5699 82.1487L67.5758 82.1457L78.345 75.6125L80.6054 71.9429L80.6172 72.0728L81.282 79.8076C81.282 79.8076 84.8953 91.4717 86.0181 104.178Z" fill="#2F2E41"/>
<path d="M112.145 104.178H95.0587C94.1456 100.039 93.67 96.0978 93.8769 92.812C94.7159 79.3883 92.7807 71.9429 93.6198 71.9429L94.063 72.2912L99.3338 76.4509L106.274 78.9927L111.09 80.7582L111.929 81.0652V81.4697C111.932 83.5008 111.953 92.9331 112.145 104.178Z" fill="#2F2E41"/>
<path d="M77.78 59.8855C77.78 59.8855 78.6361 58.3833 78.4371 53.3649C78.2381 48.3466 85.8859 51.1849 92.2764 50.7062C98.667 50.2274 97.3142 59.0845 97.3142 59.0845C97.3142 59.0845 97.7753 58.5579 98.7624 54.2833C99.7495 50.0087 97.5082 45.7488 97.5082 45.7488C96.8482 41.2569 93.2909 42.6966 93.2909 42.6966C95.004 43.3629 94.675 44.7878 94.675 44.7878C93.2249 42.2474 89.6675 43.687 89.6675 43.687C84.9231 40.7121 80.1147 44.6297 80.1147 44.6297C74.3832 45.9295 77.7445 50.4839 77.7445 50.4839C71.9805 53.3944 77.78 59.8855 77.78 59.8855Z" fill="#2F2E41"/>
<path d="M61.2529 104.178C61.7433 94.3796 62.1185 86.6921 61.9708 86.0987C61.5572 84.4484 67.3924 82.2136 67.5697 82.1486L67.5726 82.1457H67.5756L68.6895 82.745L69.5049 104.178H61.2529Z" fill="#2F2E41"/>
<path d="M116.163 104.178H107.492L105.01 79.6836L106.032 78.9366C106.032 78.9366 106.121 78.9573 106.274 78.9927C107.069 79.1905 109.634 79.8607 111.09 80.7582C111.413 80.94 111.697 81.1815 111.929 81.4697C112.071 81.6393 112.142 81.8572 112.127 82.0778C112.053 82.7716 113.944 92.5788 116.163 104.178Z" fill="#2F2E41"/>
<path d="M130.762 114.068H39.1706C38.8184 114.068 38.4808 114.209 38.2319 114.458C37.983 114.707 37.8433 115.044 37.8433 115.396C37.8433 115.748 37.983 116.086 38.2319 116.335C38.4808 116.584 38.8184 116.724 39.1706 116.725H130.762C130.936 116.725 131.11 116.691 131.271 116.624C131.433 116.558 131.58 116.46 131.703 116.337C131.827 116.213 131.925 116.067 131.992 115.905C132.059 115.744 132.093 115.571 132.093 115.396C132.093 115.222 132.059 115.049 131.992 114.888C131.925 114.726 131.827 114.58 131.703 114.456C131.58 114.333 131.433 114.235 131.271 114.168C131.11 114.102 130.936 114.068 130.762 114.068Z" fill="#CACACA"/>
<path d="M105.944 114.068V116.725H39.1706C38.8184 116.724 38.4808 116.584 38.2319 116.335C37.983 116.086 37.8433 115.748 37.8433 115.396C37.8433 115.044 37.983 114.707 38.2319 114.458C38.4808 114.209 38.8184 114.068 39.1706 114.068H105.944Z" fill="#3F3D56"/>
<path d="M105.943 118.053C107.412 118.053 108.602 116.864 108.602 115.396C108.602 113.929 107.412 112.739 105.943 112.739C104.475 112.739 103.284 113.929 103.284 115.396C103.284 116.864 104.475 118.053 105.943 118.053Z" fill="#3F3D56"/>
<path d="M84.9661 137.538C83.8805 137.538 82.8192 137.216 81.9166 136.614C81.0139 136.011 80.3103 135.154 79.8949 134.152C79.4794 133.15 79.3707 132.047 79.5825 130.983C79.7943 129.919 80.3171 128.942 81.0848 128.175C81.8524 127.408 82.8305 126.886 83.8952 126.674C84.96 126.462 86.0637 126.571 87.0667 126.986C88.0697 127.401 88.927 128.104 89.5301 129.006C90.1332 129.908 90.4552 130.968 90.4552 132.053C90.4535 133.507 89.8747 134.901 88.8457 135.93C87.8166 136.958 86.4214 137.536 84.9661 137.538ZM84.9661 126.99C83.964 126.99 82.9844 127.287 82.1511 127.844C81.3179 128.4 80.6685 129.191 80.285 130.116C79.9015 131.041 79.8011 132.059 79.9966 133.041C80.1921 134.023 80.6747 134.925 81.3833 135.633C82.0919 136.341 82.9947 136.823 83.9776 137.019C84.9605 137.214 85.9793 137.114 86.9051 136.731C87.8309 136.347 88.6223 135.699 89.179 134.866C89.7358 134.033 90.0329 133.055 90.0329 132.053C90.0314 130.711 89.4971 129.424 88.5472 128.475C87.5973 127.526 86.3094 126.992 84.9661 126.99V126.99Z" fill="#88ED7E"/>
<path d="M84.2414 135.007C84.1854 135.007 84.1317 134.984 84.0921 134.945C84.0525 134.905 84.0303 134.852 84.0303 134.796V129.311C84.03 129.283 84.0352 129.255 84.0457 129.23C84.0562 129.204 84.0717 129.18 84.0914 129.16C84.111 129.141 84.1344 129.125 84.1601 129.114C84.1859 129.103 84.2135 129.098 84.2414 129.098C84.2693 129.098 84.2969 129.103 84.3227 129.114C84.3484 129.125 84.3718 129.141 84.3914 129.16C84.4111 129.18 84.4266 129.204 84.437 129.23C84.4475 129.255 84.4528 129.283 84.4525 129.311V134.796C84.4525 134.852 84.4303 134.905 84.3907 134.945C84.3511 134.984 84.2974 135.007 84.2414 135.007Z" fill="#88ED7E"/>
<path d="M85.6911 135.007C85.6351 135.007 85.5814 134.984 85.5418 134.945C85.5022 134.905 85.48 134.852 85.48 134.796V129.311C85.4797 129.283 85.485 129.255 85.4955 129.23C85.506 129.204 85.5215 129.18 85.5411 129.161C85.5608 129.141 85.5841 129.125 85.6099 129.114C85.6356 129.104 85.6632 129.098 85.6911 129.098C85.719 129.098 85.7466 129.104 85.7724 129.114C85.7981 129.125 85.8215 129.141 85.8411 129.161C85.8607 129.18 85.8762 129.204 85.8867 129.23C85.8972 129.255 85.9025 129.283 85.9022 129.311V134.796C85.9022 134.852 85.88 134.905 85.8404 134.945C85.8008 134.984 85.7471 135.007 85.6911 135.007Z" fill="#88ED7E"/>
<path d="M59.8252 132.053C59.8252 130.968 60.1471 129.908 60.7503 129.006C61.3534 128.104 62.2107 127.401 63.2137 126.986C64.2167 126.571 65.3203 126.462 66.3851 126.674C67.4499 126.886 68.4279 127.408 69.1956 128.175C69.9632 128.942 70.486 129.919 70.6978 130.983C70.9096 132.047 70.8009 133.15 70.3855 134.152C69.97 135.154 69.2665 136.011 68.3638 136.614C67.4611 137.216 66.3999 137.538 65.3142 137.538C63.859 137.536 62.4638 136.958 61.4347 135.93C60.4057 134.901 59.8268 133.507 59.8252 132.053ZM60.2474 132.053C60.2474 133.055 60.5446 134.033 61.1014 134.866C61.6581 135.699 62.4494 136.347 63.3753 136.731C64.3011 137.114 65.3199 137.214 66.3028 137.019C67.2856 136.823 68.1884 136.341 68.897 135.633C69.6056 134.925 70.0882 134.023 70.2837 133.041C70.4792 132.059 70.3789 131.041 69.9954 130.116C69.6119 129.191 68.9625 128.4 68.1292 127.844C67.296 127.287 66.3164 126.99 65.3142 126.99C63.9709 126.992 62.683 127.526 61.7332 128.475C60.7833 129.424 60.249 130.711 60.2474 132.053H60.2474Z" fill="#3F3D56"/>
<path d="M67.685 133.9C67.7237 133.9 67.7613 133.887 67.792 133.864C67.8227 133.84 67.8447 133.807 67.8547 133.77C67.8648 133.733 67.8622 133.693 67.8474 133.657C67.8326 133.622 67.8065 133.592 67.773 133.572L65.1395 132.053L67.773 130.534C67.8133 130.511 67.8427 130.472 67.8548 130.427C67.8668 130.383 67.8605 130.335 67.8373 130.294C67.814 130.254 67.7756 130.225 67.7307 130.213C67.6857 130.201 67.6377 130.207 67.5974 130.23L64.7006 131.901C64.6739 131.917 64.6517 131.939 64.6363 131.966C64.6209 131.992 64.6128 132.022 64.6128 132.053C64.6128 132.084 64.6209 132.114 64.6363 132.141C64.6517 132.168 64.6739 132.19 64.7006 132.205L67.5974 133.876C67.624 133.892 67.6543 133.9 67.685 133.9Z" fill="#3F3D56"/>
<path d="M63.8006 134.509C63.8471 134.509 63.8918 134.491 63.9247 134.458C63.9576 134.425 63.9761 134.38 63.9761 134.334V129.773C63.9761 129.726 63.9576 129.682 63.9247 129.649C63.8918 129.616 63.8471 129.597 63.8006 129.597C63.754 129.597 63.7094 129.616 63.6764 129.649C63.6435 129.682 63.625 129.726 63.625 129.773V134.334C63.625 134.38 63.6435 134.425 63.6764 134.458C63.7094 134.491 63.754 134.509 63.8006 134.509Z" fill="#3F3D56"/>
<path d="M104.618 137.538C103.532 137.538 102.471 137.216 101.568 136.614C100.666 136.011 99.9622 135.154 99.5467 134.152C99.1313 133.15 99.0226 132.047 99.2344 130.983C99.4462 129.919 99.9689 128.942 100.737 128.175C101.504 127.408 102.482 126.886 103.547 126.674C104.612 126.462 105.716 126.571 106.719 126.986C107.722 127.401 108.579 128.104 109.182 129.006C109.785 129.908 110.107 130.968 110.107 132.053C110.105 133.507 109.527 134.901 108.497 135.93C107.468 136.958 106.073 137.536 104.618 137.538ZM104.618 126.99C103.616 126.99 102.636 127.287 101.803 127.844C100.97 128.4 100.32 129.191 99.9368 130.116C99.5533 131.041 99.453 132.059 99.6485 133.041C99.844 134.023 100.327 134.925 101.035 135.633C101.744 136.341 102.647 136.823 103.629 137.019C104.612 137.214 105.631 137.114 106.557 136.731C107.483 136.347 108.274 135.699 108.831 134.866C109.388 134.033 109.685 133.055 109.685 132.053C109.683 130.711 109.149 129.424 108.199 128.475C107.249 127.526 105.961 126.992 104.618 126.99V126.99Z" fill="#3F3D56"/>
<path d="M102.248 133.9C102.209 133.9 102.171 133.887 102.141 133.864C102.11 133.84 102.088 133.807 102.078 133.77C102.068 133.733 102.07 133.693 102.085 133.657C102.1 133.622 102.126 133.592 102.16 133.572L104.793 132.053L102.16 130.534C102.119 130.511 102.09 130.472 102.078 130.427C102.066 130.383 102.073 130.335 102.096 130.295C102.119 130.254 102.157 130.225 102.202 130.213C102.247 130.201 102.295 130.207 102.335 130.23L105.232 131.901C105.259 131.917 105.281 131.939 105.296 131.966C105.312 131.992 105.32 132.022 105.32 132.053C105.32 132.084 105.312 132.114 105.296 132.141C105.281 132.168 105.259 132.19 105.232 132.205L102.335 133.876C102.308 133.892 102.278 133.9 102.248 133.9Z" fill="#3F3D56"/>
<path d="M106.132 134.509C106.085 134.509 106.04 134.491 106.007 134.458C105.975 134.425 105.956 134.38 105.956 134.334V129.773C105.956 129.726 105.975 129.682 106.007 129.649C106.04 129.616 106.085 129.597 106.132 129.597C106.178 129.597 106.223 129.616 106.256 129.649C106.289 129.682 106.307 129.726 106.307 129.773V134.334C106.307 134.38 106.289 134.425 106.256 134.458C106.223 134.491 106.178 134.509 106.132 134.509Z" fill="#3F3D56"/>
<path d="M32.1603 136.187C31.8701 135.897 31.6473 135.546 31.5074 135.16C31.3674 134.774 31.3139 134.363 31.3505 133.954C31.387 133.545 31.5129 133.15 31.7191 132.795C31.9253 132.44 32.2068 132.134 32.5439 131.9L29.8433 122.297L34.7851 123.874L36.5921 132.751C36.9486 133.343 37.0754 134.045 36.9485 134.724C36.8216 135.403 36.4498 136.012 35.9035 136.436C35.3573 136.859 34.6745 137.068 33.9846 137.022C33.2947 136.976 32.6456 136.679 32.1603 136.187Z" fill="#FFB6B6"/>
<path d="M30.8395 88.3431L29.8158 87.2787C29.8158 87.2787 26.6509 89.4508 27.3205 96.1843C27.8151 101.158 26.2521 103.267 26.4268 117.723L30.8395 130.962L35.9433 128.289L32.2507 111.954L30.8395 88.3431Z" fill="#88ED7E"/>
<path d="M34.6682 195.791H38.3278L40.069 181.686L34.6675 181.687L34.6682 195.791Z" fill="#FFB6B6"/>
<path d="M33.7349 194.597L40.942 194.597H40.9423C42.1604 194.597 43.3286 195.08 44.1899 195.941C45.0513 196.802 45.5352 197.969 45.5353 199.186V199.335L33.7351 199.336L33.7349 194.597Z" fill="#2F2E41"/>
<path d="M45.3408 194.496L48.9733 194.941L52.4197 181.153L47.0587 180.496L45.3408 194.496Z" fill="#FFB6B6"/>
<path d="M44.5595 193.197L51.7131 194.074L51.7134 194.074C52.9225 194.222 54.023 194.844 54.7731 195.803C55.5232 196.762 55.8613 197.98 55.7131 199.188L55.6949 199.336L43.9824 197.901L44.5595 193.197Z" fill="#2F2E41"/>
<path d="M32.7712 123.475C32.7712 123.475 25.7215 128.289 29.2461 141.32L34.0128 191.9L39.6758 191.86L42.0745 166.902L43.7046 149.331L49.1515 167.501L44.6714 189.795L51.2836 190.491L59.2057 164.564L55.3853 127.65L32.7712 123.475Z" fill="#2F2E41"/>
<path d="M49.7813 85.9122L46.1967 83.0313L36.6907 82.6404L29.8156 87.2787C29.8156 87.2787 29.106 103.795 33.7582 118.507L31.3191 124.653L55.7062 127.71L49.7813 85.9122Z" fill="#88ED7E"/>
<path d="M42.0954 79.1056C46.5987 79.1056 50.2493 75.4578 50.2493 70.9581C50.2493 66.4584 46.5987 62.8106 42.0954 62.8106C37.5921 62.8106 33.9414 66.4584 33.9414 70.9581C33.9414 75.4578 37.5921 79.1056 42.0954 79.1056Z" fill="#FFB6B6"/>
<path d="M44.2346 60.8866H42.4225C41.1599 60.5105 39.8268 60.4344 38.5295 60.6641C37.2323 60.8939 36.0066 61.4232 34.9502 62.2099C33.8938 62.9966 33.0359 64.019 32.4449 65.1956C31.8539 66.3721 31.546 67.6704 31.5458 68.9868L28.7237 78.2923C28.6423 78.5606 28.625 78.8443 28.673 79.1205C28.7211 79.3968 28.8332 79.658 29.0004 79.8831C29.1676 80.1083 29.3852 80.2912 29.6359 80.4173C29.8866 80.5433 30.1633 80.609 30.4439 80.609H31.8214C32.3982 79.788 32.6498 78.7825 32.5275 77.787C32.7837 78.4102 32.9632 79.0623 33.0621 79.7288C33.094 80.0217 33.0879 80.3176 33.044 80.609H45.028C45.1055 79.4345 44.7161 78.2769 43.9444 77.3876C44.91 78.3514 45.7492 79.4339 46.4418 80.609H46.6669C47.1436 80.6089 47.6007 80.4197 47.9378 80.0829C48.2748 79.7462 48.4642 79.2894 48.4642 78.8131V69.6912H53.0462C53.0462 68.535 52.8183 67.39 52.3755 66.3218C51.9327 65.2536 51.2836 64.283 50.4654 63.4654C49.6471 62.6478 48.6757 61.9992 47.6067 61.5568C46.5376 61.1143 45.3918 60.8866 44.2346 60.8866Z" fill="#2F2E41"/>
<path d="M53.3082 135.483C53.0181 135.192 52.7952 134.842 52.6553 134.456C52.5154 134.07 52.4618 133.658 52.4984 133.25C52.535 132.841 52.6608 132.445 52.867 132.09C53.0732 131.735 53.3548 131.43 53.6919 131.196L50.9912 121.593L55.933 123.169L57.74 132.047C58.0966 132.639 58.2234 133.341 58.0965 134.02C57.9696 134.699 57.5978 135.308 57.0515 135.732C56.5052 136.155 55.8224 136.364 55.1325 136.318C54.4426 136.272 53.7935 135.975 53.3082 135.483Z" fill="#FFB6B6"/>
<path d="M46.6901 87.7346L49.7812 85.9122C49.7812 85.9122 54.6432 85.0558 55.1622 91.5282C55.6812 98.0007 56.4287 114.802 56.4287 114.802L57.9451 128.965L52.3176 130.164L45.8496 110.796L46.6901 87.7346Z" fill="#88ED7E"/>
<path d="M75.0752 200H0.352466C0.258986 200 0.16934 199.963 0.10324 199.897C0.0371398 199.831 0 199.741 0 199.648C0 199.554 0.0371398 199.465 0.10324 199.399C0.16934 199.333 0.258986 199.296 0.352466 199.296H75.0752C75.1687 199.296 75.2583 199.333 75.3244 199.399C75.3905 199.465 75.4276 199.554 75.4276 199.648C75.4276 199.741 75.3905 199.831 75.3244 199.897C75.2583 199.963 75.1687 200 75.0752 200Z" fill="#CACACA"/>
</g>
<defs>
<clipPath id="clip0_855_109447">
<rect width="218" height="200" fill="white"/>
</clipPath>
</defs>
</svg>
