<svg width="6" height="13" viewBox="0 0 6 13" fill="none" xmlns="http://www.w3.org/2000/svg">
<path d="M0.021247 13L0 12.2363C1.42037 12.1968 2.67259 12.1077 3.61354 11.4201C3.8803 11.2141 4.09958 10.953 4.25645 10.6547C4.41331 10.3563 4.50409 10.0277 4.52261 9.69109C4.53914 9.48543 4.50805 9.27872 4.43172 9.08704C4.35539 8.89535 4.23589 8.72386 4.08252 8.58588C3.4579 8.05825 2.45284 8.22903 1.72029 8.565L1.08857 8.85472L2.29998 0L3.05639 0.103662L2.02597 7.63578C3.02135 7.34307 3.94366 7.46911 4.57537 8.0027C4.81792 8.2145 5.00824 8.47953 5.13143 8.77708C5.25463 9.07463 5.30737 9.39663 5.28554 9.71794C5.26325 10.1702 5.14236 10.6121 4.93133 11.0127C4.72029 11.4132 4.42423 11.7628 4.06388 12.0369C2.8549 12.9206 1.28373 12.9646 0.021247 13Z" fill="#2F2E41"/>
</svg>
