<svg width="50" height="18" viewBox="0 0 50 18" fill="none" xmlns="http://www.w3.org/2000/svg">
<path d="M2.1432 10.3408L9.34918 11.4884L9.51214 11.5156L20.4665 13.2642L27.3702 14.3692L37.5184 15.9898L37.8091 16.0363L39.3169 16.2767L46.2439 17.3816C46.9089 17.4866 47.5884 17.3235 48.1334 16.9281C48.6783 16.5327 49.0443 15.9374 49.1511 15.2725L49.7558 11.4884L49.9962 9.9841C49.9962 9.97636 50 9.9686 50 9.96083H9.81441C9.55742 9.96074 9.31099 9.85859 9.12927 9.67684C8.94755 9.49508 8.84543 9.2486 8.84533 8.99156V8.22777C8.84543 7.97073 8.94755 7.72426 9.12927 7.5425C9.31099 7.36075 9.55742 7.2586 9.81441 7.2585H22.5131V3.02082L21.7378 2.89676L17.9081 2.28416L3.78686 0.0315545C3.12126 -0.0742556 2.44089 0.0884119 1.89508 0.483846C1.34928 0.87928 0.982644 1.47517 0.875657 2.14071L0.561655 4.09867L0.0305613 7.43301C-0.0734704 8.09863 0.0904415 8.77837 0.486407 9.32337C0.882372 9.86838 1.47812 10.2342 2.1432 10.3408V10.3408Z" fill="#88ED7E"/>
</svg>
