<svg width="55" height="66" viewBox="0 0 55 66" fill="none" xmlns="http://www.w3.org/2000/svg">
<path d="M0 42.9038C0 58.767 1.61097 68.2555 26.4527 65.5378C26.4876 65.534 26.5187 65.5301 26.5536 65.5262C30.9843 65.0884 35.3663 64.2503 39.646 63.0221C41.87 62.3725 44.0316 61.5253 46.1049 60.4908C46.5939 60.2423 47.0635 59.9822 47.5256 59.7143H28.9795C28.7222 59.7142 28.4754 59.6119 28.2935 59.4299C28.1115 59.2479 28.0093 59.0011 28.0092 58.7437V57.9789C28.0093 57.7215 28.1115 57.4747 28.2935 57.2927C28.4754 57.1107 28.7222 57.0084 28.9795 57.0083H41.6953V32.4875C41.6964 31.7331 41.9965 31.0099 42.5299 30.4764C43.0632 29.943 43.7863 29.6428 44.5405 29.6417H54.8849C54.7955 29.3855 54.7064 29.1253 54.6094 28.8652C53.6389 26.1794 52.4886 23.5619 51.1664 21.0307C49.355 17.5155 47.1992 14.1888 44.7308 11.0996C43.0119 8.94689 41.0823 6.97132 38.9707 5.20236C35.0774 1.98776 30.8388 0 26.5381 0C10.6782 -1.49265e-05 0 27.0405 0 42.9038Z" fill="#2F2E41"/>
</svg>
