<svg width="4" height="4" viewBox="0 0 4 4" fill="none" xmlns="http://www.w3.org/2000/svg">
<path d="M3.3274 4C3.36928 4.00004 3.41 3.98627 3.44324 3.96082C3.47648 3.93537 3.50038 3.89965 3.51123 3.85924C3.52209 3.81883 3.51929 3.77596 3.50328 3.7373C3.48726 3.69863 3.45893 3.66635 3.42266 3.64543L0.570444 2.00002L3.42266 0.354601C3.46634 0.329406 3.49822 0.287923 3.51128 0.239243C3.52434 0.190564 3.51751 0.138689 3.49229 0.0950404C3.46708 0.0513919 3.42555 0.0195279 3.37683 0.00647912C3.32811 -0.00656964 3.2762 0.000258468 3.23251 0.0254532L0.0950739 1.83544C0.0661673 1.85213 0.0421546 1.87612 0.0254664 1.90501C0.00877823 1.93389 0 1.96666 0 2.00002C0 2.03337 0.00877823 2.06614 0.0254664 2.09503C0.0421546 2.12391 0.0661673 2.1479 0.0950739 2.16459L3.23251 3.97458C3.26135 3.99124 3.29409 4.00002 3.3274 4V4Z" fill="#3F3D56"/>
</svg>
