<svg width="25" height="21" viewBox="0 0 25 21" fill="none" xmlns="http://www.w3.org/2000/svg">
<path d="M15.9715 0.360849H14.1149C12.8212 -0.0244297 11.4553 -0.10248 10.1261 0.132919C8.79693 0.368318 7.54111 0.910655 6.45876 1.71672C5.3764 2.52279 4.49742 3.57032 3.89184 4.77582C3.28626 5.98133 2.97082 7.31149 2.97066 8.66034L0.0791218 18.1947C-0.00424607 18.4696 -0.0220354 18.7602 0.0271912 19.0433C0.0764177 19.3263 0.19129 19.5939 0.362602 19.8246C0.533914 20.0553 0.756916 20.2428 1.01374 20.3719C1.27057 20.501 1.55408 20.5683 1.84159 20.5683H3.25298C3.84398 19.7272 4.10177 18.697 3.97648 17.6769C4.23893 18.3155 4.42284 18.9836 4.52417 19.6664C4.5569 19.9666 4.55068 20.2697 4.50566 20.5683H16.7844C16.8638 19.3649 16.4649 18.1789 15.6742 17.2677C16.6635 18.2553 17.5233 19.3643 18.233 20.5683H18.4636C18.952 20.5683 19.4204 20.3744 19.7657 20.0293C20.1111 19.6843 20.3051 19.2163 20.3051 18.7283V9.38203H24.9999C24.9999 8.19735 24.7663 7.02427 24.3126 5.92977C23.8589 4.83527 23.1939 3.84079 22.3555 3.00309C21.5171 2.1654 20.5219 1.50089 19.4265 1.04754C18.3311 0.59418 17.1571 0.360848 15.9715 0.360849V0.360849Z" fill="#2F2E41"/>
</svg>
