<svg width="198" height="200" viewBox="0 0 198 200" fill="none" xmlns="http://www.w3.org/2000/svg">
<g clip-path="url(#clip0_855_109546)">
<path d="M83.1587 92.1788L154.378 92.0517C154.505 92.0517 154.627 92.0011 154.717 91.9111C154.807 91.821 154.858 91.6989 154.858 91.5716C154.858 91.4443 154.807 91.3221 154.717 91.2321C154.627 91.1421 154.505 91.0915 154.378 91.0915L83.1587 91.2186C83.0314 91.2186 82.9093 91.2692 82.8193 91.3592C82.7293 91.4493 82.6787 91.5714 82.6787 91.6987C82.6787 91.8261 82.7293 91.9482 82.8193 92.0382C82.9093 92.1282 83.0314 92.1788 83.1587 92.1788Z" fill="#3F3D56"/>
<path d="M82.0945 98.9002C85.8058 98.9002 88.8144 95.8909 88.8144 92.1788C88.8144 88.4667 85.8058 85.4575 82.0945 85.4575C78.3831 85.4575 75.3745 88.4667 75.3745 92.1788C75.3745 95.8909 78.3831 98.9002 82.0945 98.9002Z" fill="#3F3D56"/>
<path d="M151.185 92.1448C142.074 92.1448 133.169 89.4427 125.594 84.3802C118.019 79.3177 112.115 72.1222 108.628 63.7035C105.142 55.2849 104.23 46.0213 106.007 37.0841C107.785 28.1469 112.172 19.9376 118.614 13.4943C125.056 7.05096 133.263 2.66299 142.198 0.885273C151.134 -0.89244 160.395 0.0199483 168.812 3.50706C177.229 6.99417 184.423 12.8994 189.485 20.476C194.546 28.0525 197.248 36.9601 197.248 46.0724C197.234 58.2873 192.376 69.998 183.741 78.6352C175.105 87.2725 163.397 92.131 151.185 92.1448ZM151.185 3.17741C142.703 3.17741 134.411 5.69316 127.359 10.4065C120.306 15.1199 114.809 21.8192 111.563 29.6572C108.317 37.4952 107.468 46.12 109.123 54.4408C110.778 62.7616 114.862 70.4048 120.86 76.4037C126.858 82.4027 134.499 86.4881 142.818 88.1432C151.137 89.7983 159.76 88.9488 167.597 85.7022C175.433 82.4556 182.131 76.9576 186.843 69.9036C191.556 62.8495 194.071 54.5562 194.071 46.0724C194.058 34.6999 189.535 23.7969 181.496 15.7553C173.456 7.71375 162.555 3.19032 151.185 3.17741Z" fill="#3F3D56"/>
<path d="M171.06 64.5327C169.374 64.5338 167.726 64.0349 166.324 63.0989C164.921 62.163 163.828 60.8321 163.181 59.2745C162.535 57.717 162.365 56.0027 162.693 54.3486C163.021 52.6944 163.832 51.1747 165.023 49.9814C166.214 48.7882 167.733 47.9752 169.386 47.645C171.04 47.3149 172.754 47.4826 174.312 48.1269C175.87 48.7712 177.202 49.8631 178.14 51.2646C179.077 52.6661 179.578 54.3142 179.579 56.0005C179.58 58.2616 178.683 60.4303 177.086 62.0302C175.488 63.6301 173.321 64.5302 171.06 64.5327ZM151.185 64.5327C148.926 64.5302 146.761 63.6316 145.164 62.0343C143.567 60.437 142.669 58.2713 142.666 56.0123V36.1325C142.666 33.8727 143.564 31.7055 145.161 30.1075C146.759 28.5096 148.926 27.6119 151.185 27.6119C153.444 27.6119 155.611 28.5096 157.209 30.1075C158.806 31.7055 159.704 33.8727 159.704 36.1325V56.0123C159.701 58.2713 158.803 60.437 157.206 62.0344C155.609 63.6317 153.443 64.5302 151.185 64.5327ZM131.315 64.5327C129.055 64.5301 126.888 63.6309 125.29 62.0324C123.692 60.434 122.793 58.2667 122.791 56.0061V48.0635C122.791 45.8021 123.689 43.6334 125.287 42.0344C126.886 40.4354 129.054 39.537 131.315 39.537C133.576 39.537 135.744 40.4354 137.343 42.0344C138.942 43.6334 139.84 45.8021 139.84 48.0635V56.0061C139.837 58.2668 138.938 60.434 137.34 62.0325C135.742 63.631 133.575 64.5302 131.315 64.5327Z" fill="#88ED7E"/>
<path d="M12.4121 158.911V159.684C12.4132 160.965 12.9223 162.192 13.8275 163.098C14.7328 164.003 15.9602 164.512 17.2404 164.513H58.1848C59.4652 164.513 60.693 164.004 61.5984 163.098C62.5038 162.193 63.0126 160.965 63.0131 159.684V158.911C63.0155 157.781 62.6187 156.687 61.8928 155.821C61.6512 155.533 61.3778 155.274 61.0778 155.048H39.8408C39.5848 155.048 39.3392 154.946 39.1581 154.765C38.977 154.584 38.8753 154.338 38.8752 154.082H17.2405C15.9604 154.084 14.7334 154.593 13.8282 155.498C12.9231 156.404 12.4139 157.631 12.4121 158.911Z" fill="#3F3D56"/>
<path d="M35.0108 199.866H40.0322L40.0322 164.322H35.0108L35.0108 199.866Z" fill="#3F3D56"/>
<path d="M20.7188 199.689C20.7188 200.232 28.328 199.899 37.7145 199.899C47.101 199.899 54.7103 200.232 54.7103 199.689C54.7103 199.146 47.101 194.843 37.7145 194.843C28.328 194.843 20.7188 199.146 20.7188 199.689Z" fill="#3F3D56"/>
<path d="M20.292 158.096L37.4267 160.832L57.335 164.011L64.2376 165.112C64.9003 165.217 65.5774 165.054 66.1204 164.66C66.6635 164.266 67.0282 163.673 67.1346 163.011L67.4475 161.056L67.7372 159.236L67.9765 157.737C68.0307 157.402 68.0161 157.059 67.9338 156.73C67.8515 156.4 67.7031 156.091 67.4977 155.821C67.2548 155.488 66.9319 155.222 66.559 155.048H39.8409C39.5848 155.048 39.3392 154.946 39.1582 154.765C38.9771 154.584 38.8753 154.338 38.8752 154.082V153.321C38.8753 153.065 38.9771 152.819 39.1582 152.638C39.3392 152.457 39.5848 152.355 39.8409 152.355H50.3397L45.4997 151.582L30.6206 149.206L21.9336 147.819C21.2694 147.714 20.5905 147.877 20.0459 148.271C19.5014 148.666 19.1356 149.261 19.0289 149.925L18.1868 155.195C18.084 155.858 18.2475 156.536 18.6419 157.079C19.0362 157.623 19.6293 157.988 20.292 158.096Z" fill="#88ED7E"/>
<path d="M57.335 157.362V186.806C57.3359 187.477 57.6028 188.12 58.077 188.594C58.5513 189.068 59.1942 189.335 59.8649 189.336H65.207C65.8778 189.335 66.5208 189.068 66.995 188.594C67.4693 188.12 67.7362 187.477 67.7372 186.806V157.362C67.7381 156.804 67.5517 156.261 67.208 155.821C66.9534 155.482 66.6153 155.216 66.2268 155.048H58.8414C58.4546 155.217 58.1181 155.483 57.8642 155.821C57.5209 156.261 57.3346 156.804 57.335 157.362Z" fill="#88ED7E"/>
<path d="M41.2352 107.527C41.2624 107.79 41.3302 108.046 41.4361 108.288C41.597 108.657 41.8448 108.982 42.1585 109.235L42.1702 109.242L57.4123 121.609L57.6361 121.787L60.7921 124.349L61.7461 125.121H78.2513L77.3011 124.349L64.2568 113.763L55.5156 106.669L48.7135 101.152C48.3154 100.828 47.8273 100.634 47.3152 100.596C47.3132 100.594 47.3104 100.592 47.3075 100.592C47.1556 100.581 47.003 100.584 46.8516 100.6C46.6249 100.623 46.4026 100.677 46.1911 100.762C46.0465 100.814 45.909 100.885 45.7816 100.971C45.5415 101.117 45.3285 101.304 45.1521 101.523L41.8379 105.607L41.7877 105.673C41.5776 105.93 41.4206 106.226 41.3257 106.544C41.2309 106.863 41.2002 107.197 41.2352 107.527Z" fill="#88ED7E"/>
<path d="M42.17 109.242C42.4573 109.961 42.875 110.62 43.4022 111.186L53.5495 122.088C53.7947 122.314 54.082 122.488 54.3948 122.602C54.7077 122.716 55.0399 122.768 55.3726 122.753C55.7052 122.738 56.0317 122.658 56.3333 122.517C56.6348 122.376 56.9056 122.176 57.13 121.93L57.4121 121.609L57.5357 121.47L61.9198 116.552L63.8048 114.435C63.9301 114.304 64.039 114.159 64.1292 114.002C64.1756 113.925 64.218 113.844 64.2567 113.763C64.4147 113.402 64.4874 113.009 64.4691 112.615C64.4563 112.28 64.3761 111.951 64.2334 111.648C64.0908 111.345 63.8885 111.073 63.6386 110.85L51.8729 101.855C50.5747 100.86 48.9402 100.408 47.315 100.596C47.313 100.594 47.3103 100.592 47.3073 100.592C46.9464 100.637 46.5898 100.712 46.2411 100.816C46.0866 100.859 45.9361 100.913 45.7815 100.971C44.784 101.346 43.8996 101.971 43.2129 102.787C42.4658 103.665 41.9736 104.731 41.7897 105.869C41.6059 107.007 41.7374 108.174 42.17 109.242V109.242Z" fill="#2F2E41"/>
<path d="M37.3517 91.6169C48.0442 91.6169 56.7122 82.9471 56.7122 72.2524C56.7122 61.5576 48.0442 52.8878 37.3517 52.8878C26.6592 52.8878 17.9912 61.5576 17.9912 72.2524C17.9912 82.9471 26.6592 91.6169 37.3517 91.6169Z" fill="#88ED7E"/>
<path d="M32.1967 155.427L39.3773 156.57L39.5397 156.597L50.4556 158.34L57.335 159.441L67.4476 161.056L67.7372 161.102L69.2397 161.342L76.1423 162.443C76.805 162.547 77.4821 162.385 78.0252 161.991C78.5682 161.597 78.9329 161.003 79.0393 160.341L79.6419 156.57L79.8815 155.071C79.8815 155.063 79.8852 155.056 79.8852 155.048H39.8409C39.5849 155.048 39.3393 154.946 39.1582 154.765C38.9771 154.584 38.8754 154.338 38.8753 154.082V153.321C38.8754 153.065 38.9771 152.819 39.1582 152.638C39.3393 152.457 39.5849 152.355 39.8409 152.355H52.495V148.132L51.7224 148.009L47.9062 147.398L33.8346 145.153C33.1713 145.048 32.4933 145.21 31.9495 145.604C31.4056 145.998 31.0402 146.592 30.9336 147.255L30.6207 149.206L30.0915 152.529C29.9878 153.192 30.1512 153.87 30.5457 154.413C30.9403 154.956 31.534 155.32 32.1967 155.427Z" fill="#88ED7E"/>
<path d="M11.002 138.319C11.002 154.105 12.6051 163.548 37.3262 160.843C37.3609 160.839 37.3918 160.835 37.4265 160.832C41.8358 160.396 46.1965 159.562 50.4553 158.34C52.6686 157.693 54.8197 156.85 56.8829 155.821C57.3695 155.573 57.8368 155.314 58.2967 155.048H39.8407C39.5846 155.048 39.3391 154.946 39.158 154.765C38.9769 154.584 38.8751 154.338 38.875 154.082V153.321C38.8751 153.065 38.9769 152.819 39.158 152.638C39.3391 152.457 39.5846 152.355 39.8407 152.355H52.4948V127.953C52.4958 127.203 52.7945 126.483 53.3252 125.952C53.856 125.421 54.5755 125.122 55.3261 125.121H65.6203C65.5312 124.866 65.4426 124.608 65.346 124.349C64.3803 121.676 63.2356 119.071 61.9198 116.552C60.1172 113.054 57.9719 109.744 55.5155 106.669C53.8049 104.527 51.8847 102.561 49.7833 100.801C45.909 97.6018 41.691 95.6237 37.4111 95.6237C21.6283 95.6236 11.002 122.533 11.002 138.319Z" fill="#2F2E41"/>
<path d="M36.9454 79.4295L36.9253 78.7059C38.2713 78.6684 39.4579 78.584 40.3495 77.9324C40.6023 77.7372 40.8101 77.4898 40.9588 77.2071C41.1074 76.9243 41.1934 76.6129 41.211 76.294C41.2267 76.0991 41.1972 75.9032 41.1249 75.7215C41.0525 75.5399 40.9393 75.3774 40.794 75.2466C40.202 74.7467 39.2496 74.9085 38.5555 75.2269L37.9568 75.5014L39.1048 67.1105L39.8216 67.2088L38.8451 74.3463C39.7884 74.0689 40.6624 74.1884 41.261 74.694C41.4908 74.8947 41.6712 75.1459 41.7879 75.4278C41.9047 75.7098 41.9546 76.0149 41.934 76.3194C41.9128 76.748 41.7983 77.1667 41.5983 77.5463C41.3983 77.9259 41.1178 78.2571 40.7763 78.5169C39.6306 79.3543 38.1418 79.396 36.9454 79.4295Z" fill="#2F2E41"/>
<path d="M47.2628 67.8243H43.3662V68.5479H47.2628V67.8243Z" fill="#2F2E41"/>
<path d="M34.9635 67.8243H31.0669V68.5479H34.9635V67.8243Z" fill="#2F2E41"/>
<path d="M21.9007 66.9318C23.4064 64.6648 26.0558 63.7038 28.6684 63.47C31.6091 63.2069 34.4506 63.7741 37.3218 64.3251C40.4816 64.9316 43.8258 65.499 47.0097 64.7323C48.4182 64.4064 49.7344 63.7649 50.859 62.8562C51.9835 61.9476 52.8872 60.7954 53.5018 59.4866C54.6675 56.9331 54.9187 54.0559 54.2131 51.339C53.467 48.4493 51.615 45.9067 49.37 43.9863C44.7878 40.0667 38.5869 38.3051 32.6228 38.4711C26.6812 38.6244 20.9386 40.6441 16.2086 44.2438C11.4706 47.9735 8.13662 53.1993 6.75066 59.0684C5.3014 64.8892 5.77351 71.0228 8.0965 76.5532C9.40162 79.5814 11.2892 82.3115 12.7457 85.2635C14.1018 88.012 15.1462 91.2075 14.3024 94.2732C13.562 96.9633 11.3882 99.3532 8.65929 100.084C7.41769 100.409 6.10388 100.323 4.91547 99.8379C3.72706 99.3527 2.72831 98.4946 2.06945 97.3927C0.705249 95.2411 0.67261 92.423 2.72087 90.6858C3.2373 90.2405 3.83888 89.905 4.48902 89.6996C5.13916 89.4941 5.82428 89.4231 6.50272 89.4908C7.18116 89.5586 7.83875 89.7636 8.43549 90.0934C9.03223 90.4233 9.55566 90.8711 9.97394 91.4097C10.8049 92.4892 11.1769 93.8529 11.0091 95.2049C10.9082 95.8882 11.9538 96.1831 12.0556 95.4935C12.3001 94.0636 12.029 92.5934 11.2908 91.3448C10.5526 90.0962 9.39511 89.1502 8.02466 88.6755C6.65421 88.2008 5.15977 88.2282 3.80761 88.7527C2.45544 89.2773 1.33338 90.2649 0.641332 91.5397C-0.593887 93.8626 0.0725877 96.6644 1.64057 98.65C2.44957 99.7076 3.54608 100.51 4.79892 100.96C6.05175 101.411 7.40787 101.491 8.70499 101.191C11.5592 100.532 13.894 98.2626 14.992 95.5963C16.2145 92.628 15.6544 89.3155 14.4627 86.4351C13.1746 83.3215 11.2617 80.529 9.74891 77.5286C8.37917 74.8171 7.50754 71.8816 7.17555 68.8619C6.5111 62.7979 7.88709 56.6855 11.0858 51.4916C14.3462 46.3783 19.3226 42.5954 25.1211 40.8225C30.8387 39.0273 37.1447 39.0823 42.7429 41.2885C48.2573 43.4617 53.5821 48.1978 53.5182 54.5586C53.4909 57.2757 52.4824 60.0466 50.4016 61.8589C47.9149 64.0248 44.4524 64.2099 41.3265 63.8719C38.1806 63.5317 35.1258 62.6128 31.9664 62.3784C29.2184 62.1745 26.2537 62.3865 23.8 63.752C22.6574 64.3894 21.6846 65.292 20.9636 66.3839C20.576 66.9675 21.5155 67.5116 21.9007 66.9318V66.9318Z" fill="#2F2E41"/>
<path d="M24.9812 114.327C25.012 114.397 25.0467 114.465 25.0853 114.532C25.1241 114.601 25.1667 114.668 25.2128 114.732L33.6797 126.922L34.3364 127.868L41.2429 137.805L47.906 147.398L50.6021 151.285C50.6746 151.391 50.7561 151.49 50.8456 151.582C51.2625 152.021 51.8231 152.295 52.4253 152.355H52.4947V135.777L51.7222 134.664L43.0584 122.193L33.7533 108.798C33.37 108.247 32.7839 107.871 32.1236 107.751C31.4632 107.632 30.7825 107.779 30.2305 108.161L27.3759 110.143L25.8423 111.209C25.3575 111.546 25.006 112.043 24.8487 112.612C24.6914 113.182 24.7383 113.788 24.9812 114.327Z" fill="#88ED7E"/>
<path d="M23.6565 114.029L24.0388 114.798L24.0428 114.802L24.1471 115.007L30.3543 127.331C30.7042 127.904 31.2668 128.316 31.9191 128.475C32.5713 128.634 33.2601 128.529 33.8347 128.181L34.2364 127.93L34.3367 127.868L42.3403 122.846C42.626 122.673 42.8745 122.445 43.0717 122.175C43.2688 121.906 43.4106 121.6 43.4889 121.275C43.5672 120.95 43.5804 120.613 43.5277 120.283C43.4751 119.954 43.3577 119.637 43.1822 119.353L34.3909 107.43C33.5291 106.262 32.2915 105.426 30.886 105.063C29.4805 104.7 27.9929 104.832 26.6733 105.437C26.3755 105.571 26.0887 105.729 25.8157 105.908C24.5235 106.762 23.5898 108.061 23.1918 109.558C22.7938 111.055 22.9591 112.646 23.6565 114.029Z" fill="#2F2E41"/>
<path d="M69.2397 155.048V184.136C69.2407 184.807 69.5076 185.45 69.9819 185.924C70.4562 186.399 71.0992 186.666 71.7699 186.667H77.112C77.7827 186.666 78.4257 186.399 78.8999 185.924C79.3742 185.45 79.641 184.807 79.642 184.136V155.048H69.2397Z" fill="#88ED7E"/>
<path d="M38.1025 153.321V154.082C38.1031 154.484 38.2426 154.874 38.4974 155.185C38.7522 155.496 39.1067 155.71 39.5009 155.79C39.5548 155.797 39.6089 155.809 39.6631 155.813C39.721 155.817 39.7789 155.821 39.8407 155.821H99.3877C100.344 155.82 101.261 155.441 101.937 154.765C102.614 154.089 102.994 153.172 102.995 152.216V127.953C102.994 126.997 102.614 126.08 101.937 125.404C101.261 124.729 100.344 124.349 99.3877 124.349H55.3261C54.3706 124.35 53.4546 124.73 52.7789 125.406C52.1033 126.081 51.7233 126.998 51.7222 127.953V151.582H39.8407C39.3797 151.582 38.9376 151.766 38.6117 152.092C38.2857 152.418 38.1026 152.86 38.1025 153.321Z" fill="white"/>
<path d="M38.1025 153.321V154.082C38.1031 154.484 38.2426 154.874 38.4974 155.185C38.7522 155.496 39.1067 155.71 39.5009 155.79C39.5548 155.797 39.6089 155.809 39.6631 155.813C39.721 155.817 39.7789 155.821 39.8407 155.821H99.3877C100.344 155.82 101.261 155.441 101.937 154.765C102.614 154.089 102.994 153.172 102.995 152.216V127.953C102.994 126.997 102.614 126.08 101.937 125.404C101.261 124.729 100.344 124.349 99.3877 124.349H55.3261C54.3706 124.35 53.4546 124.73 52.7789 125.406C52.1033 126.081 51.7233 126.998 51.7222 127.953V151.582H39.8407C39.3797 151.582 38.9376 151.766 38.6117 152.092C38.2857 152.418 38.1026 152.86 38.1025 153.321ZM38.8751 154.082V153.321C38.8752 153.065 38.9769 152.819 39.158 152.638C39.3391 152.457 39.5847 152.355 39.8407 152.355H52.4948V127.953C52.4959 127.203 52.7945 126.483 53.3253 125.952C53.856 125.421 54.5756 125.122 55.3262 125.121H99.3877C100.139 125.122 100.859 125.42 101.391 125.951C101.922 126.482 102.222 127.202 102.223 127.953V152.216C102.222 152.967 101.922 153.687 101.391 154.218C100.859 154.749 100.139 155.048 99.3877 155.048H39.8407C39.5847 155.048 39.3391 154.946 39.158 154.765C38.9769 154.584 38.8752 154.338 38.8751 154.082V154.082Z" fill="#3F3D56"/>
<path d="M77.3586 143.056C78.9992 143.056 80.3291 141.726 80.3291 140.085C80.3291 138.444 78.9992 137.114 77.3586 137.114C75.7181 137.114 74.3882 138.444 74.3882 140.085C74.3882 141.726 75.7181 143.056 77.3586 143.056Z" fill="#88ED7E"/>
<path d="M52.5064 151.992H51.7339V155.469H52.5064V151.992Z" fill="#3F3D56"/>
</g>
<defs>
<clipPath id="clip0_855_109546">
<rect width="197.248" height="200" fill="white"/>
</clipPath>
</defs>
</svg>
