<svg width="65" height="32" viewBox="0 0 65 32" fill="none" xmlns="http://www.w3.org/2000/svg">
<path d="M0 29.02V29.7823C0.000560758 30.1852 0.140276 30.5756 0.395512 30.8873C0.650747 31.199 1.00582 31.4129 1.40063 31.4928C1.45466 31.5005 1.50888 31.5122 1.56309 31.516C1.62111 31.5199 1.67909 31.5238 1.74106 31.5238H61.3862C62.3439 31.5235 63.2623 31.1432 63.9398 30.4662C64.6173 29.7893 64.9986 28.8711 64.9998 27.9132V3.61059C64.9986 2.65273 64.6173 1.73449 63.9398 1.05754C63.2623 0.380581 62.3439 0.000228827 61.3862 0H17.252C16.2949 0.00104952 15.3773 0.381786 14.7006 1.05867C14.0238 1.73556 13.6432 2.65333 13.6421 3.61059V27.2786H1.74106C1.27931 27.2786 0.836484 27.4621 0.509977 27.7886C0.18347 28.1152 2.66274e-05 28.5581 0 29.02ZM0.773807 29.7823V29.02C0.773905 28.7634 0.875837 28.5174 1.05721 28.336C1.23859 28.1546 1.48456 28.0526 1.74107 28.0525H14.416V3.61059C14.417 2.85861 14.7162 2.13772 15.2478 1.60599C15.7794 1.07426 16.5002 0.77506 17.252 0.77398H61.3862C62.1386 0.774272 62.8602 1.0731 63.3926 1.6049C63.925 2.13669 64.2247 2.85802 64.226 3.61059V27.9132C64.2247 28.6658 63.925 29.3871 63.3926 29.9189C62.8602 30.4507 62.1386 30.7495 61.3862 30.7498H1.74106C1.48456 30.7497 1.2386 30.6477 1.05722 30.4663C0.875851 30.2849 0.773909 30.0389 0.773807 29.7824V29.7823Z" fill="#3F3D56"/>
</svg>
