<svg width="24" height="18" viewBox="0 0 24 18" fill="none" xmlns="http://www.w3.org/2000/svg">
<path d="M2.60749 17.5389C2.60749 17.5389 3.46998 16.0254 3.26946 10.9695C3.06895 5.91358 10.774 8.77315 17.2124 8.29084C23.6507 7.80852 22.2879 16.7318 22.2879 16.7318C22.2879 16.7318 22.7523 16.2014 23.7468 11.8947C24.7413 7.58812 22.4833 3.29636 22.4833 3.29636C21.8183 -1.22911 18.2344 0.221305 18.2344 0.221305C19.9603 0.892679 19.6289 2.32823 19.6289 2.32823C18.1679 -0.23123 14.584 1.21918 14.584 1.21918C9.80403 -1.77796 4.95962 2.1689 4.95962 2.1689C-0.814763 3.47838 2.57169 8.06688 2.57169 8.06688C-3.23542 10.9992 2.60749 17.5389 2.60749 17.5389Z" fill="#2F2E41"/>
</svg>
