<svg width="23" height="23" viewBox="0 0 23 23" fill="none" xmlns="http://www.w3.org/2000/svg">
<path d="M0.465857 8.77873C0.756068 9.50455 1.1782 10.1703 1.71087 10.7423L11.9639 21.7587C12.2117 21.9864 12.502 22.1628 12.8181 22.278C13.1342 22.3932 13.4699 22.4449 13.8061 22.43C14.1422 22.4151 14.472 22.3341 14.7768 22.1914C15.0815 22.0487 15.355 21.8473 15.5817 21.5987L15.8669 21.2747L15.9917 21.1341L20.4216 16.1647L22.3261 14.0254C22.4528 13.8935 22.5629 13.7467 22.6539 13.5882C22.7008 13.5101 22.7437 13.4281 22.7828 13.3461C22.9425 12.9813 23.0159 12.5846 22.9973 12.1867C22.9844 11.8483 22.9034 11.5158 22.7593 11.2093C22.6151 10.9028 22.4107 10.6285 22.1582 10.4027L10.2699 1.31476C8.95813 0.308701 7.3066 -0.147678 5.66451 0.0421232C5.66246 0.0399188 5.65969 0.0385393 5.6567 0.0382414C5.29199 0.0839932 4.93166 0.159721 4.57938 0.264647C4.4233 0.307606 4.27123 0.362237 4.11496 0.420802C3.10707 0.800117 2.21342 1.43187 1.51955 2.25558C0.764683 3.14275 0.267345 4.21988 0.0815793 5.36993C-0.104186 6.51997 0.0287152 7.69895 0.465857 8.77874V8.77873Z" fill="#2F2E41"/>
</svg>
