<svg width="4" height="4" viewBox="0 0 4 4" fill="none" xmlns="http://www.w3.org/2000/svg">
<path d="M0.190348 4.00002C0.14847 4.00005 0.107756 3.98626 0.0745155 3.96081C0.0412746 3.93536 0.0173555 3.89966 0.00649775 3.85925C-0.00436001 3.81883 -0.00154818 3.77595 0.0144669 3.73729C0.0304821 3.69863 0.058802 3.66634 0.0950676 3.64541L2.94757 1.99986L0.0950676 0.3543C0.051562 0.329011 0.0198662 0.287531 0.00691718 0.238933C-0.00603182 0.190334 0.000839241 0.138599 0.0260013 0.095043C0.0511634 0.0514868 0.0925648 0.01967 0.141158 0.00656715C0.189752 -0.00653574 0.241557 0.000129231 0.285233 0.0251238L3.42297 1.83527C3.45188 1.85195 3.47589 1.87595 3.49258 1.90484C3.50927 1.93373 3.51807 1.9665 3.51807 1.99986C3.51807 2.03322 3.50927 2.06598 3.49258 2.09488C3.47589 2.12377 3.45188 2.14776 3.42297 2.16445L0.285233 3.97459C0.25639 3.99126 0.223669 4.00003 0.190348 4.00002V4.00002Z" fill="#3F3D56"/>
</svg>
