<svg width="1" height="6" viewBox="0 0 1 6" fill="none" xmlns="http://www.w3.org/2000/svg">
<path d="M0.214416 6.00002C0.157552 6.00002 0.103007 5.97746 0.0627975 5.93728C0.0225882 5.89711 8.95329e-06 5.84261 8.95329e-06 5.78579V0.21619C-0.000249796 0.187894 0.00510217 0.159829 0.0157607 0.133613C0.0264192 0.107396 0.0421639 0.083556 0.0620983 0.0634556C0.0820328 0.0433553 0.105759 0.027391 0.1319 0.0165024C0.15804 0.00561382 0.186073 0 0.214394 0C0.242716 0 0.27077 0.00561382 0.296911 0.0165024C0.323051 0.027391 0.346778 0.0433553 0.366712 0.0634556C0.386647 0.083556 0.402391 0.107396 0.41305 0.133613C0.423708 0.159829 0.42906 0.187894 0.428802 0.21619V5.78581C0.428799 5.84262 0.406218 5.89711 0.366013 5.93728C0.325808 5.97745 0.271276 6.00001 0.214416 6.00002V6.00002Z" fill="#88ED7E"/>
</svg>
