<svg width="11" height="11" viewBox="0 0 11 11" fill="none" xmlns="http://www.w3.org/2000/svg">
<path d="M5.50005 10.9913C4.41224 10.9913 3.34885 10.669 2.44437 10.0651C1.53989 9.46126 0.834943 8.60296 0.418658 7.59876C0.00237254 6.59456 -0.106532 5.48958 0.105688 4.42352C0.317908 3.35747 0.841719 2.37823 1.61091 1.60964C2.38011 0.841063 3.36013 0.317649 4.42704 0.105598C5.49394 -0.106453 6.5998 0.00238663 7.6048 0.41834C8.60981 0.834293 9.46882 1.53868 10.0732 2.44244C10.6775 3.34619 11.0001 4.40872 11.0001 5.49565C10.9984 6.95269 10.4184 8.34958 9.38732 9.37986C8.35622 10.4101 6.95824 10.9897 5.50005 10.9913V10.9913ZM5.50005 0.422755C4.49592 0.422755 3.51434 0.720271 2.67944 1.27769C1.84454 1.83511 1.19379 2.6274 0.80953 3.55435C0.425267 4.48131 0.324742 5.50129 0.520638 6.48534C0.716535 7.46939 1.20006 8.37329 1.91009 9.08275C2.62011 9.79221 3.52474 10.2754 4.50957 10.4711C5.49441 10.6669 6.51523 10.5664 7.44292 10.1824C8.37061 9.79847 9.16351 9.14825 9.72138 8.31401C10.2792 7.47978 10.577 6.49898 10.577 5.49565C10.5755 4.15071 10.0401 2.8613 9.0883 1.91028C8.13652 0.959261 6.84607 0.424306 5.50005 0.422777V0.422755Z" fill="#3F3D56"/>
</svg>
