<svg width="21" height="24" viewBox="0 0 21 24" fill="none" xmlns="http://www.w3.org/2000/svg">
<path d="M0.686022 9.2889L1.07341 10.068L1.07742 10.0719L1.18311 10.2794L7.47285 22.7677C7.82738 23.3485 8.39748 23.7652 9.0584 23.9266C9.71932 24.088 10.4172 23.981 10.9995 23.629L11.4065 23.3745L11.5082 23.3119L19.6182 18.2226C19.9076 18.0473 20.1595 17.8164 20.3593 17.5432C20.559 17.27 20.7027 16.9599 20.782 16.6309C20.8613 16.3019 20.8747 15.9604 20.8214 15.6261C20.7681 15.2919 20.6491 14.9716 20.4713 14.6836L11.5631 2.60235C10.6899 1.41844 9.43578 0.571333 8.0116 0.203453C6.58743 -0.164427 5.08004 -0.0306427 3.74288 0.58231C3.44112 0.718417 3.15056 0.878105 2.87389 1.0599C1.56456 1.92521 0.618435 3.24124 0.215121 4.75818C-0.188193 6.27512 -0.0206238 7.88738 0.686022 9.2889V9.2889Z" fill="#2F2E41"/>
</svg>
