<svg width="51" height="11" viewBox="0 0 51 11" fill="none" xmlns="http://www.w3.org/2000/svg">
<path d="M0 4.86744V5.64622C0.00112069 6.93679 0.514188 8.1742 1.42657 9.08678C2.33896 9.99935 3.5761 10.5125 4.8664 10.5136H46.1335C47.424 10.5132 48.6615 10.0002 49.5741 9.08748C50.4866 8.17477 50.9994 6.93699 50.9999 5.64622V4.86744C51.0023 3.72841 50.6024 2.62513 49.8708 1.7523C49.6273 1.46248 49.3517 1.2012 49.0494 0.973497H27.645C27.3869 0.973398 27.1394 0.870811 26.9569 0.688267C26.7744 0.505723 26.6718 0.258156 26.6717 0H4.86642C3.57631 0.00178428 2.33955 0.51518 1.4273 1.42761C0.515061 2.34005 0.0017839 3.57707 0 4.86744Z" fill="#3F3D56"/>
</svg>
