<svg width="50" height="18" viewBox="0 0 50 18" fill="none" xmlns="http://www.w3.org/2000/svg">
<path d="M2.14157 10.3388L19.3272 13.0823L39.2945 16.2713L46.2176 17.3757C46.8823 17.4806 47.5614 17.3176 48.106 16.9224C48.6507 16.5273 49.0165 15.9322 49.1232 15.2677L49.4371 13.307L49.7276 11.4819L49.9677 9.97842C50.022 9.64222 50.0074 9.2985 49.9248 8.96811C49.8423 8.63772 49.6934 8.32755 49.4874 8.05644C49.2438 7.72297 48.9199 7.4564 48.5459 7.28144H21.7485C21.4917 7.28134 21.2454 7.17926 21.0638 6.9976C20.8821 6.81595 20.7801 6.56961 20.78 6.31271V5.54933C20.7801 5.29243 20.8821 5.0461 21.0638 4.86444C21.2454 4.68279 21.4917 4.5807 21.7485 4.5806H32.2785L27.4241 3.8056L12.5009 1.4225L3.78808 0.0313973C3.12186 -0.074182 2.44097 0.0888815 1.8948 0.484799C1.34863 0.880717 0.981777 1.47716 0.874729 2.14328L0.0301051 7.42868C-0.0730025 8.09426 0.0910655 8.77362 0.486571 9.31872C0.882077 9.86382 1.47696 10.2305 2.14157 10.3388Z" fill="#88ED7E"/>
</svg>
