<svg width="95" height="3" viewBox="0 0 95 3" fill="none" xmlns="http://www.w3.org/2000/svg">
<path d="M93.6579 1.77514e-06H1.33795C0.982899 0.0005794 0.642594 0.141922 0.391743 0.392982C0.140892 0.644043 0 0.984308 0 1.33907C0 1.69384 0.140892 2.0341 0.391743 2.28516C0.642594 2.53622 0.982899 2.67755 1.33795 2.67813H93.6579C93.834 2.67842 94.0085 2.64399 94.1714 2.57683C94.3342 2.50966 94.4822 2.41107 94.6069 2.2867C94.7316 2.16233 94.8305 2.01462 94.898 1.85201C94.9654 1.68941 95.0002 1.5151 95.0002 1.33907C95.0002 1.16304 94.9654 0.988727 94.898 0.826123C94.8305 0.663518 94.7316 0.515805 94.6069 0.391433C94.4822 0.267061 94.3342 0.168471 94.1714 0.101305C94.0085 0.0341388 93.834 -0.000284839 93.6579 1.77514e-06V1.77514e-06Z" fill="#CACACA"/>
</svg>
