<svg width="38" height="25" viewBox="0 0 38 25" fill="none" xmlns="http://www.w3.org/2000/svg">
<path d="M0.0143232 7.0729C0.0419905 7.34044 0.111038 7.60207 0.218986 7.84842C0.382886 8.22463 0.635424 8.55554 0.955013 8.81288L0.966927 8.82075L16.4973 21.4217L16.7254 21.6028L19.9411 24.2127L20.9131 25H37.7305L36.7623 24.2127L23.4714 13.4265L14.5648 6.199L7.63405 0.57756C7.22843 0.247013 6.73106 0.0491255 6.20927 0.0106929C6.20721 0.00847 6.2044 0.00707896 6.20138 0.00677848C6.04663 -0.0043829 5.89119 -0.00175724 5.7369 0.0146305C5.50594 0.0379693 5.2794 0.0936334 5.06392 0.179984C4.91659 0.23331 4.77645 0.304714 4.64671 0.392553C4.40203 0.541804 4.18501 0.732245 4.00523 0.955471L0.628335 5.11642L0.577216 5.18334C0.363136 5.44542 0.20315 5.74738 0.10653 6.07172C0.00990974 6.39606 -0.0214285 6.73636 0.0143232 7.0729V7.0729Z" fill="#88ED7E"/>
</svg>
