<svg width="1" height="6" viewBox="0 0 1 6" fill="none" xmlns="http://www.w3.org/2000/svg">
<path d="M0.214398 6.00002C0.157539 6.00002 0.102999 5.97746 0.0627934 5.93728C0.0225879 5.89711 1.07637e-05 5.84261 1.07637e-05 5.7858V0.216358C-0.000272812 0.188048 0.00504922 0.159955 0.0156955 0.133718C0.0263418 0.10748 0.0420939 0.083617 0.0620288 0.0634974C0.0819637 0.0433778 0.105695 0.0274019 0.131846 0.0165019C0.157996 0.00560191 0.186042 0 0.214376 0C0.24271 0 0.270778 0.00560191 0.296928 0.0165019C0.323079 0.0274019 0.34681 0.0433778 0.366745 0.0634974C0.38668 0.083617 0.40241 0.10748 0.413057 0.133718C0.423703 0.159955 0.429047 0.188048 0.428763 0.216358V5.78582C0.42876 5.84263 0.406181 5.89711 0.365981 5.93728C0.32578 5.97745 0.271251 6.00001 0.214398 6.00002V6.00002Z" fill="#88ED7E"/>
</svg>
