<svg width="55" height="63" viewBox="0 0 55 63" fill="none" xmlns="http://www.w3.org/2000/svg">
<path d="M21.9324 28.5127C23.4403 26.2424 26.0936 25.28 28.71 25.0459C31.655 24.7824 34.5006 25.3504 37.3759 25.9023C40.5403 26.5096 43.8894 27.0778 47.0779 26.31C48.4884 25.9836 49.8065 25.3412 50.9327 24.4312C52.0589 23.5212 52.9639 22.3674 53.5794 21.0567C54.7468 18.4995 54.9983 15.6182 54.2917 12.8973C53.5445 10.0035 51.6899 7.45716 49.4416 5.53395C44.8527 1.60864 38.6429 -0.155457 32.6701 0.01071C26.7199 0.164308 20.969 2.18688 16.2321 5.79182C11.4873 9.52688 8.14842 14.7603 6.76045 20.6379C5.30908 26.4672 5.78188 32.6097 8.10824 38.1481C9.41526 41.1807 11.3056 43.9147 12.7642 46.871C14.1223 49.6235 15.1682 52.8237 14.3232 55.8938C13.5817 58.5877 11.4048 60.9811 8.67184 61.7125C7.42845 62.0388 6.11273 61.9525 4.9226 61.4666C3.73247 60.9806 2.73227 60.1213 2.07245 59.0178C0.706272 56.8631 0.673585 54.0409 2.72482 52.3011C3.242 51.8553 3.84445 51.5192 4.49553 51.3135C5.14662 51.1078 5.83273 51.0367 6.51215 51.1045C7.19158 51.1723 7.85012 51.3776 8.44772 51.708C9.04533 52.0383 9.56952 52.4868 9.9884 53.0261C10.8206 54.1072 11.1931 55.4728 11.0251 56.8268C10.9241 57.5112 11.9711 57.8065 12.0731 57.1158C12.3179 55.6839 12.0464 54.2115 11.3072 52.9611C10.5679 51.7107 9.40874 50.7634 8.0363 50.288C6.66386 49.8126 5.16725 49.84 3.81313 50.3653C2.459 50.8906 1.33531 51.8797 0.642262 53.1563C-0.594749 55.4826 0.072693 58.2884 1.64295 60.2769C2.45312 61.336 3.55122 62.1393 4.80588 62.5906C6.06053 63.0418 7.41861 63.122 8.71762 62.8214C11.5759 62.1612 13.9142 59.8889 15.0138 57.2188C16.238 54.2462 15.6771 50.9289 14.4837 48.0443C13.1937 44.9262 11.278 42.1297 9.76305 39.1249C8.39132 36.4095 7.51843 33.4697 7.18596 30.4456C6.52054 24.3728 7.89852 18.2516 11.1019 13.0501C14.367 7.92941 19.3507 4.14102 25.1576 2.36552C30.8834 0.567757 37.1985 0.622817 42.8049 2.83225C48.3273 5.00859 53.6598 9.7515 53.5958 16.1215C53.5684 18.8426 52.5585 21.6176 50.4747 23.4325C47.9844 25.6015 44.5169 25.7869 41.3864 25.4484C38.236 25.1077 35.1767 24.1875 32.0127 23.9527C29.2607 23.7486 26.2917 23.9608 23.8345 25.3284C22.6902 25.9666 21.716 26.8706 20.994 27.9641C20.6059 28.5484 21.5467 29.0934 21.9324 28.5127V28.5127Z" fill="#2F2E41"/>
</svg>
