<svg width="9" height="9" viewBox="0 0 9 9" fill="none" xmlns="http://www.w3.org/2000/svg">
<path d="M4.71834 0.716634C4.40146 0.411648 4.01146 0.193305 3.58582 0.0825835C3.16018 -0.0281379 2.71322 -0.0275165 2.28789 0.0844C1.86527 0.200294 1.47361 0.408469 1.14112 0.693923C0.80862 0.979376 0.543566 1.33501 0.365035 1.73521C-0.491378 3.55913 0.275881 5.685 1.45922 7.1744C2.5588 8.55837 4.34525 9.47039 6.08549 8.74391C6.87836 8.40412 7.54454 7.82398 7.99005 7.08533C8.43557 6.34668 8.63794 5.4868 8.56861 4.62698C8.34921 2.60178 6.70349 0.961616 4.77093 0.467001C4.2055 0.322286 3.9643 1.19631 4.52995 1.34109C5.20174 1.50383 5.8236 1.82822 6.34147 2.28604C6.85933 2.74387 7.25751 3.32127 7.50139 3.96803C7.71534 4.60079 7.72458 5.28485 7.5278 5.92315C7.33102 6.56145 6.93822 7.12157 6.40514 7.52403C3.70402 9.59817 0.614433 5.63238 0.917291 3.03755C0.949623 2.65471 1.06958 2.28444 1.26789 1.95537C1.46619 1.6263 1.73753 1.34725 2.06092 1.13981C2.37578 0.954524 2.74197 0.875648 3.10519 0.914878C3.46841 0.954109 3.80933 1.10935 4.07736 1.35759C4.1633 1.4379 4.27707 1.48168 4.39467 1.47969C4.51227 1.4777 4.6245 1.43009 4.70766 1.34692C4.79083 1.26376 4.83843 1.15153 4.84042 1.03393C4.84241 0.916333 4.79864 0.80256 4.71833 0.716625L4.71834 0.716634Z" fill="#3F3D56"/>
</svg>
