<svg width="11" height="11" viewBox="0 0 11 11" fill="none" xmlns="http://www.w3.org/2000/svg">
<path d="M4.05908 10.9989C3.87656 10.9989 3.69654 10.9564 3.5333 10.8747C3.37006 10.7931 3.22809 10.6745 3.11861 10.5285L0.235107 6.68379C0.142477 6.56027 0.0750839 6.41972 0.0367717 6.27016C-0.00154047 6.12059 -0.0100171 5.96495 0.0118221 5.81211C0.0336613 5.65927 0.0853938 5.51223 0.16406 5.37939C0.242725 5.24654 0.346784 5.13049 0.4703 5.03786C0.593816 4.94523 0.734378 4.87783 0.883941 4.83951C1.0335 4.8012 1.18915 4.79273 1.34199 4.81456C1.49483 4.8364 1.64186 4.88814 1.7747 4.9668C1.90755 5.04547 2.0236 5.14953 2.11623 5.27304L4.00271 7.78815L8.8479 0.520504C9.02132 0.262123 9.29011 0.0830295 9.59534 0.0224779C9.90058 -0.0380738 10.2174 0.0248517 10.4763 0.197467C10.7352 0.370082 10.9151 0.638302 10.9767 0.943349C11.0382 1.24839 10.9762 1.56538 10.8044 1.82484L5.03741 10.4753C4.93308 10.6317 4.79277 10.7609 4.62823 10.8519C4.4637 10.943 4.27974 10.9932 4.09177 10.9985C4.08088 10.9987 4.06998 10.9989 4.05908 10.9989Z" fill="white"/>
</svg>
