<svg width="4" height="4" viewBox="0 0 4 4" fill="none" xmlns="http://www.w3.org/2000/svg">
<path d="M2.11025 3.95627e-05C1.70301 -0.00247501 1.30403 0.11493 0.963052 0.337619C0.622077 0.560307 0.35419 0.878428 0.192781 1.25233C0.0122205 1.61827 -0.0435204 2.03329 0.0340903 2.43391C0.111701 2.83453 0.31839 3.19871 0.622547 3.47075C0.908476 3.71402 1.25142 3.88081 1.61931 3.95555C1.98721 4.03029 2.36805 4.01054 2.72623 3.89813C3.09255 3.77019 3.4102 3.53186 3.63546 3.21593C3.86073 2.90001 3.98253 2.52202 3.9841 2.13401C4.00046 1.70354 3.88383 1.27847 3.65009 0.916608C3.41635 0.554747 3.07684 0.273656 2.67772 0.111555C2.5578 0.0789756 2.42986 0.0951227 2.3218 0.156478C2.21374 0.217834 2.13431 0.319425 2.10084 0.439096C2.07126 0.558901 2.08873 0.685484 2.14966 0.792795C2.21059 0.900106 2.31034 0.979975 2.42838 1.01597C2.51011 1.04754 2.35372 0.975796 2.43003 1.01737C2.46141 1.03446 2.49338 1.04991 2.52419 1.06816C2.55039 1.08368 2.57546 1.10065 2.60094 1.11728C2.68848 1.17442 2.55821 1.07534 2.61416 1.1267C2.66269 1.17125 2.71077 1.21471 2.75486 1.26386C2.77154 1.28244 2.83688 1.33411 2.78611 1.298C2.74726 1.27037 2.77113 1.27686 2.78611 1.29905C2.79747 1.31589 2.80948 1.33227 2.8207 1.34921C2.85726 1.40454 2.8905 1.46199 2.92023 1.52127C2.92713 1.53499 2.93343 1.54903 2.94044 1.56268C2.95357 1.58825 2.97261 1.59495 2.94174 1.56292C2.91224 1.53231 2.93101 1.5344 2.94157 1.56385C2.94851 1.58322 2.95608 1.60234 2.96283 1.62177C2.98482 1.68502 3.00328 1.74945 3.01812 1.81476C3.025 1.84494 3.03053 1.87531 3.03643 1.90568C3.05738 2.01338 3.03339 1.83873 3.03845 1.91873C3.04267 1.98552 3.0476 2.0516 3.04643 2.11866C3.0459 2.14934 3.04457 2.17999 3.04244 2.2106C3.04135 2.22587 3.03965 2.2411 3.03864 2.25637C3.03378 2.32996 3.03362 2.22948 3.04392 2.2226C3.02249 2.28507 3.00827 2.3498 3.00154 2.4155C2.99314 2.44465 2.98317 2.47317 2.97382 2.50201C2.9412 2.60263 3.00446 2.44716 2.96968 2.51593C2.94106 2.57501 2.90907 2.63239 2.87387 2.68779C2.85859 2.711 2.80098 2.76341 2.84809 2.72693C2.89922 2.68735 2.82128 2.75551 2.80465 2.77305C2.7833 2.79558 2.76113 2.81733 2.73815 2.83829C2.72344 2.85265 2.70791 2.86615 2.69164 2.87872C2.68866 2.87722 2.76999 2.8244 2.72615 2.85235C2.67043 2.88789 2.61767 2.92591 2.55894 2.95685C2.5521 2.96045 2.47703 2.99523 2.47734 2.99647C2.4741 2.9838 2.57385 2.96135 2.50538 2.98347C2.491 2.98812 2.47689 2.99373 2.46255 2.99856C2.4002 3.01955 2.33657 3.03649 2.27205 3.0493C2.25727 3.05224 2.24166 3.05373 2.2271 3.0575C2.17862 3.07004 2.27343 3.05015 2.27627 3.05179C2.24044 3.05025 2.20456 3.05342 2.16956 3.06124C2.10302 3.06505 2.03631 3.06504 1.96978 3.06122C1.95438 3.06034 1.93902 3.0588 1.92363 3.05791C1.88789 3.05583 1.86167 3.03008 1.90923 3.05803C1.94591 3.07961 1.94286 3.06387 1.91036 3.05787C1.89516 3.05505 1.87989 3.05268 1.86469 3.04983C1.79883 3.03751 1.7337 3.02156 1.6696 3.00205C1.63511 2.99154 1.60131 2.97931 1.56728 2.96742C1.55246 2.96312 1.53802 2.95757 1.52414 2.95082C1.52393 2.94695 1.61184 2.99282 1.56543 2.96781C1.50685 2.93623 1.44627 2.90977 1.38907 2.87527C1.35855 2.85685 1.32923 2.83683 1.29955 2.81711C1.28649 2.80925 1.27409 2.80037 1.26243 2.79054C1.26342 2.78658 1.33514 2.85304 1.29749 2.81716C1.24987 2.77178 1.19894 2.73116 1.15384 2.68284C1.14353 2.67179 1.13377 2.66021 1.12349 2.64914L1.11354 2.63776C1.08812 2.6067 1.08765 2.60685 1.11213 2.63821C1.13698 2.64554 1.13585 2.67281 1.11226 2.63739C1.10386 2.62476 1.09493 2.6125 1.08654 2.59985C1.04846 2.54558 1.01598 2.48759 0.989604 2.42676C0.99189 2.42498 1.03023 2.5396 1.00092 2.4531C0.995378 2.43676 0.989145 2.42068 0.983718 2.4043C0.972942 2.37181 0.963454 2.33896 0.955252 2.30575C0.947145 2.27284 0.942989 2.23891 0.93481 2.20614C0.921026 2.15091 0.942861 2.24972 0.940373 2.24726C0.932557 2.23953 0.935882 2.19164 0.935297 2.18017C0.931545 2.10659 0.939929 2.03516 0.941236 1.96202C0.942259 1.90536 0.936545 2.00618 0.935364 2.00322C0.935651 1.98625 0.93866 1.96943 0.94427 1.95341C0.952758 1.91484 0.96066 1.8763 0.971052 1.83815C0.982951 1.79447 0.996649 1.75133 1.01215 1.70872C1.01794 1.69277 1.025 1.67707 1.03039 1.66099C1.05012 1.6021 0.991307 1.73211 1.02374 1.67901C1.06835 1.60595 1.10158 1.52689 1.14895 1.45473C1.16018 1.43763 1.22843 1.34235 1.19221 1.39046C1.15613 1.43837 1.22928 1.34756 1.24312 1.33214C1.30065 1.26809 1.3683 1.2155 1.42786 1.15416C1.46311 1.11786 1.40325 1.17204 1.39972 1.17457C1.41816 1.16139 1.43622 1.14771 1.4549 1.13484C1.48745 1.1124 1.52081 1.09119 1.55497 1.0712C1.59344 1.04864 1.63695 1.03184 1.67423 1.00798C1.71829 0.979791 1.64055 1.02036 1.63916 1.02121C1.65928 1.01122 1.68031 1.0032 1.70197 0.997263C1.73829 0.984388 1.89622 0.916233 1.92935 0.937546C1.92785 0.93658 1.80943 0.947078 1.90516 0.940928C1.92778 0.939474 1.95031 0.937267 1.97297 0.936329C2.0188 0.934432 2.06447 0.935583 2.11025 0.937956C2.23437 0.937142 2.35318 0.887473 2.44096 0.799703C2.52873 0.711932 2.5784 0.593122 2.57921 0.468998C2.57656 0.345455 2.52629 0.227708 2.43891 0.14033C2.35154 0.0529522 2.23379 0.00269396 2.11025 3.95627e-05V3.95627e-05Z" fill="#3F3D56"/>
</svg>
