<svg width="10" height="15" viewBox="0 0 10 15" fill="none" xmlns="http://www.w3.org/2000/svg">
<path d="M5.20194 1.03971C4.12559 0.669531 2.87623 0.301929 1.7625 0.735885C0.711865 1.14525 0.133212 2.1475 0.0194248 3.23531C-0.107468 4.44837 0.408328 5.60535 0.955021 6.65562C1.61264 7.91896 2.29085 9.17195 2.95917 10.4297L5.27082 14.7799C5.32346 14.865 5.40216 14.9308 5.49521 14.9675C5.58826 15.0043 5.69069 15.01 5.78725 14.9839C5.88381 14.9577 5.96936 14.9011 6.03114 14.8224C6.09293 14.7437 6.12766 14.6472 6.13017 14.5472C5.99958 13.0885 6.23108 11.6202 6.80413 10.2724C7.3953 8.91024 8.36131 7.75978 9.04803 6.44993C9.68017 5.24419 10.1016 3.86079 9.76672 2.50171C9.49586 1.40254 8.69648 0.332964 7.54446 0.0770983C6.96235 -0.0702251 6.34677 -0.00504824 5.80842 0.260907C5.27006 0.526862 4.84425 0.97615 4.60753 1.52798C4.38994 2.08039 5.28151 2.32001 5.4969 1.77317C5.80368 0.994334 6.87758 0.755555 7.59334 1.05363C8.52578 1.44198 8.96814 2.55651 8.96704 3.50381C8.96555 4.79891 8.30205 5.98238 7.62885 7.04612C6.94891 8.12051 6.23415 9.1596 5.7822 10.3571C5.28366 11.6942 5.08751 13.1252 5.20785 14.5472L6.06722 14.3144C4.56619 11.4897 2.98261 8.69338 1.56563 5.82561C1.02072 4.72277 0.530588 3.23536 1.36599 2.13528C2.22246 1.00745 3.85723 1.55091 4.95674 1.92906C5.51923 2.12251 5.76083 1.23191 5.20193 1.03969L5.20194 1.03971Z" fill="#3F3D56"/>
</svg>
