<svg width="4" height="4" viewBox="0 0 4 4" fill="none" xmlns="http://www.w3.org/2000/svg">
<path d="M2.11025 3.95627e-05C1.703 -0.00247501 1.30402 0.11493 0.963046 0.337619C0.622072 0.560307 0.35419 0.878428 0.192781 1.25233C0.0122205 1.61827 -0.0435203 2.03329 0.0340903 2.43391C0.111701 2.83453 0.318389 3.19871 0.622546 3.47075C0.908475 3.71402 1.25141 3.88081 1.6193 3.95555C1.9872 4.03029 2.36804 4.01054 2.72622 3.89813C3.09254 3.77019 3.41019 3.53186 3.63545 3.21593C3.86072 2.90001 3.98252 2.52202 3.98409 2.13401C4.00045 1.70354 3.88383 1.27847 3.65009 0.916608C3.41635 0.554747 3.07683 0.273656 2.67771 0.111555C2.55779 0.0789756 2.42986 0.0951227 2.3218 0.156478C2.21374 0.217834 2.13431 0.319425 2.10084 0.439096C2.07126 0.558901 2.08873 0.685484 2.14966 0.792795C2.21059 0.900106 2.31034 0.979975 2.42837 1.01597C2.5101 1.04754 2.35372 0.975796 2.43003 1.01737C2.46141 1.03446 2.49337 1.04991 2.52418 1.06816C2.55038 1.08368 2.57546 1.10065 2.60094 1.11728C2.68848 1.17442 2.5582 1.07534 2.61416 1.1267C2.66268 1.17125 2.71077 1.21471 2.75487 1.26386C2.77155 1.28244 2.83688 1.33411 2.7861 1.298C2.74725 1.27037 2.77112 1.27686 2.78609 1.29905C2.79745 1.31589 2.80946 1.33227 2.82068 1.34921C2.85724 1.40454 2.89049 1.46199 2.92022 1.52127C2.92712 1.53499 2.93341 1.54903 2.94042 1.56268C2.95355 1.58825 2.97259 1.59495 2.94172 1.56292C2.91222 1.53231 2.931 1.5344 2.94155 1.56385C2.94849 1.58322 2.95606 1.60234 2.96281 1.62177C2.9848 1.68502 3.00326 1.74945 3.0181 1.81476C3.02498 1.84494 3.03051 1.87531 3.03641 1.90568C3.05736 2.01338 3.03336 1.83873 3.03842 1.91873C3.04265 1.98552 3.04757 2.0516 3.04641 2.11866C3.04588 2.14934 3.04455 2.17999 3.04241 2.2106C3.04133 2.22587 3.03963 2.2411 3.03863 2.25637C3.03376 2.32996 3.03361 2.22948 3.04391 2.2226C3.02247 2.28507 3.00825 2.3498 3.00152 2.4155C2.99312 2.44465 2.98315 2.47317 2.9738 2.50201C2.94118 2.60263 3.00444 2.44716 2.96966 2.51593C2.94104 2.57501 2.90905 2.63239 2.87385 2.68779C2.85857 2.711 2.80096 2.76341 2.84807 2.72693C2.8992 2.68735 2.82127 2.75551 2.80464 2.77305C2.78328 2.79558 2.76111 2.81733 2.73813 2.83829C2.72342 2.85265 2.70789 2.86615 2.69162 2.87872C2.68863 2.87722 2.76996 2.8244 2.72613 2.85235C2.6704 2.88789 2.61765 2.92591 2.55892 2.95685C2.55208 2.96045 2.47701 2.99523 2.47732 2.99647C2.47408 2.9838 2.57383 2.96135 2.50536 2.98347C2.49098 2.98812 2.47687 2.99373 2.46253 2.99856C2.40019 3.01955 2.33656 3.03649 2.27203 3.0493C2.25726 3.05224 2.24163 3.05373 2.22708 3.0575C2.1786 3.07004 2.27341 3.05015 2.27625 3.05179C2.24042 3.05025 2.20454 3.05342 2.16953 3.06124C2.103 3.06505 2.0363 3.06504 1.96977 3.06122C1.95437 3.06034 1.939 3.0588 1.92362 3.05791C1.88788 3.05583 1.86166 3.03008 1.90921 3.05803C1.9459 3.07961 1.94285 3.06387 1.91034 3.05787C1.89514 3.05505 1.87987 3.05268 1.86467 3.04983C1.79881 3.03751 1.73369 3.02156 1.66959 3.00205C1.6351 2.99154 1.6013 2.97931 1.56727 2.96742C1.55244 2.96312 1.53801 2.95757 1.52412 2.95082C1.52392 2.94695 1.61183 2.99282 1.56542 2.96781C1.50683 2.93623 1.44625 2.90977 1.38905 2.87527C1.35853 2.85685 1.32921 2.83683 1.29953 2.81711C1.28647 2.80925 1.27406 2.80037 1.26241 2.79054C1.2634 2.78658 1.33513 2.85304 1.29748 2.81716C1.24986 2.77178 1.19892 2.73116 1.15383 2.68284C1.14351 2.67179 1.13375 2.66021 1.12347 2.64914L1.11352 2.63776C1.08809 2.6067 1.08762 2.60685 1.1121 2.63821C1.13696 2.64554 1.13583 2.67281 1.11225 2.63739C1.10384 2.62476 1.09491 2.6125 1.08653 2.59985C1.04844 2.54558 1.01596 2.48759 0.989589 2.42676C0.991874 2.42498 1.03021 2.5396 1.00089 2.4531C0.995358 2.43676 0.989129 2.42068 0.983702 2.4043C0.972926 2.37181 0.963442 2.33896 0.955251 2.30575C0.947144 2.27284 0.942983 2.23891 0.934804 2.20614C0.92102 2.15091 0.942855 2.24972 0.940367 2.24726C0.932551 2.23953 0.935876 2.19164 0.935291 2.18017C0.931539 2.10659 0.939928 2.03516 0.941235 1.96202C0.942257 1.90536 0.936549 2.00618 0.935367 2.00322C0.935655 1.98625 0.938659 1.96943 0.944269 1.95341C0.952757 1.91484 0.960658 1.8763 0.971051 1.83815C0.98295 1.79447 0.996643 1.75133 1.01214 1.70872C1.01793 1.69277 1.025 1.67707 1.03039 1.66099C1.05012 1.6021 0.991306 1.73211 1.02374 1.67901C1.06835 1.60595 1.10158 1.52689 1.14895 1.45473C1.16018 1.43763 1.22843 1.34235 1.19221 1.39046C1.15614 1.43837 1.22928 1.34756 1.24312 1.33214C1.30065 1.26809 1.3683 1.2155 1.42785 1.15416C1.46311 1.11786 1.40325 1.17204 1.39972 1.17457C1.41816 1.16139 1.43622 1.14771 1.45489 1.13484C1.48745 1.1124 1.52081 1.09119 1.55497 1.0712C1.59344 1.04864 1.63694 1.03184 1.67423 1.00798C1.71829 0.979791 1.64054 1.02036 1.63915 1.02121C1.65927 1.01122 1.68031 1.0032 1.70197 0.997263C1.73828 0.984388 1.89622 0.916233 1.92935 0.937546C1.92785 0.93658 1.80943 0.947078 1.90516 0.940928C1.92778 0.939474 1.95031 0.937267 1.97297 0.936329C2.01879 0.934432 2.06447 0.935583 2.11025 0.937956C2.23437 0.937142 2.35318 0.887473 2.44095 0.799703C2.52872 0.711932 2.57839 0.593122 2.57921 0.468998C2.57655 0.345455 2.52629 0.227708 2.43892 0.14033C2.35154 0.0529522 2.23379 0.00269396 2.11025 3.95627e-05V3.95627e-05Z" fill="#3F3D56"/>
</svg>
