<svg width="46" height="79" viewBox="0 0 46 79" fill="none" xmlns="http://www.w3.org/2000/svg">
<path d="M27.1435 2.29318L6.50478 0C6.50478 0 -2.66797 11.9245 0.771807 22.2438V33.735L3.29432 78.656L9.60058 79L11.4351 58.5907L13.155 50.4499L14.6037 19.4342L21.9838 28.3208L22.6718 31.7605L24.9649 33.3658L29.2073 39.1953L37.9215 74.9869L45.6009 75.1016C45.6009 75.1016 41.4759 37.9521 41.0173 37.9521C40.5586 37.9521 29.0927 12.9565 29.0927 12.9565V11.6338L28.634 9.05807C28.634 9.05807 29.7806 8.14079 29.322 7.68216C28.8634 7.22352 28.4047 5.84762 28.4047 5.84762L27.1435 2.29318Z" fill="#2F2E41"/>
</svg>
