<svg width="18" height="23" viewBox="0 0 18 23" fill="none" xmlns="http://www.w3.org/2000/svg">
<path d="M17.593 12.2479C17.1485 13.9277 16.3309 15.5658 14.9792 16.6549C13.6246 17.744 7.2601 20.3161 6.72898 18.0991C7.08406 19.6477 6.86623 20.2385 6.28737 20.7905C6.18891 20.6562 6.08447 20.5279 5.97705 20.4026C5.5814 19.9444 5.10633 19.5613 4.57467 19.2717C4.55851 20.2065 4.6234 21.141 4.76861 22.0646C4.53012 22.2835 4.30305 22.5145 4.0883 22.7568C3.06784 19.6895 0.823279 16.013 2.46212 13.2265C3.11254 12.1207 2.57291 11.9676 1.99963 11.8391C0.998845 11.6146 0.456996 7.50362 0.221274 6.50405C-0.0711394 5.25085 -0.184524 3.80968 0.594251 2.78325C1.37303 1.75683 3.33638 1.71804 3.73024 2.94438L4.55974 1.82247C5.63392 -0.525781 8.46854 -0.0483671 11.0316 0.261948C13.5947 0.569279 15.8535 2.37746 17.0022 4.6899C18.148 7.00235 18.2525 9.7504 17.593 12.2479Z" fill="#2F2E41"/>
</svg>
