<svg width="19" height="33" viewBox="0 0 19 33" fill="none" xmlns="http://www.w3.org/2000/svg">
<path d="M18.3192 27.5683C18.1623 27.5755 18.0069 27.5343 17.8742 27.4503C17.7415 27.3663 17.6378 27.2435 17.5772 27.0986C17.5166 26.9536 17.502 26.7936 17.5354 26.6401C17.5688 26.4866 17.6486 26.3471 17.764 26.2404L17.8165 26.0317C17.8095 26.015 17.8026 25.9983 17.7956 25.9816C17.0903 24.2998 12.5896 28.9882 12.395 30.5688C12.3093 31.2675 12.3455 31.9757 12.5018 32.662C11.044 29.4819 10.287 26.0255 10.2821 22.5272C10.2818 21.6493 10.3306 20.7721 10.4282 19.8997C10.5089 19.1845 10.6208 18.4743 10.764 17.7693C11.5454 13.9439 13.223 10.3585 15.6592 7.30738C17.0524 7.38514 18.2734 7.17289 18.3914 4.47273C18.4123 3.99242 18.7686 3.57655 18.8471 3.1034C18.7141 3.12085 18.5789 3.13174 18.4459 3.14044C18.4044 3.14261 18.3608 3.1448 18.3194 3.14699L18.3038 3.14769C18.1576 3.15425 18.0126 3.11841 17.8863 3.0445C17.7601 2.97059 17.6578 2.86174 17.5919 2.73108C17.5261 2.60041 17.4994 2.4535 17.5151 2.30802C17.5308 2.16253 17.5882 2.02469 17.6804 1.91107C17.7378 1.8404 17.7953 1.76976 17.8528 1.69915C17.94 1.59012 18.0294 1.48326 18.1166 1.37424C18.1267 1.36388 18.1361 1.35296 18.145 1.34152C18.2453 1.21723 18.3456 1.09514 18.4459 0.97085C18.2628 0.68668 18.0165 0.448631 17.7263 0.275284C16.7211 -0.313445 15.3343 0.0943013 14.6082 1.00357C13.8799 1.91281 13.7425 3.18842 13.9955 4.32444C14.2442 5.2911 14.6557 6.20837 15.2122 7.03695C15.1577 7.10673 15.101 7.17434 15.0465 7.24412C14.05 8.52548 13.1815 9.9014 12.4534 11.3522C12.6594 9.74312 10.1404 3.93226 9.16624 2.70143C7.99613 1.22302 5.5967 1.86823 5.39055 3.74235C5.38855 3.76049 5.38661 3.77863 5.38471 3.79676C5.52941 3.87839 5.67104 3.96502 5.80962 4.05667C5.98371 4.17299 6.11862 4.3392 6.19664 4.5335C6.27467 4.72779 6.29218 4.94112 6.24689 5.14554C6.2016 5.34996 6.09561 5.53594 5.94282 5.67909C5.79003 5.82225 5.59757 5.91591 5.39063 5.94781L5.36945 5.95108C3.43262 8.71646 9.64158 15.9141 11.1957 14.298C10.4642 16.371 10.0054 18.5303 9.83073 20.7217C9.73185 22.0145 9.7377 23.3132 9.84818 24.6051L9.84163 24.5593C9.49632 21.7456 3.57224 17.5621 1.84232 17.9106C0.845754 18.1113 -0.135814 18.0657 0.0155103 19.0709C0.0179272 19.087 0.0203818 19.103 0.0228772 19.119C0.291386 19.2284 0.552824 19.3544 0.805669 19.4962C0.950364 19.5779 1.092 19.6645 1.23058 19.7562C1.40467 19.8725 1.53957 20.0387 1.6176 20.233C1.69562 20.4273 1.71314 20.6406 1.66785 20.845C1.62256 21.0495 1.51658 21.2354 1.36379 21.3786C1.21099 21.5217 1.01852 21.6154 0.811587 21.6473L0.790379 21.6506C0.775122 21.6527 0.76203 21.6549 0.746788 21.6571C-0.134833 24.6906 6.40325 29.5862 10.378 28.0285H10.3802C10.7741 29.7402 11.3448 31.4063 12.0832 33H18.1667C18.1886 32.9324 18.2082 32.8626 18.2278 32.795C17.6647 32.8304 17.0994 32.7967 16.5445 32.6947C16.9958 32.1409 17.4472 31.5827 17.8986 31.0288C17.9086 31.0185 17.9181 31.0076 17.9269 30.9961C18.1558 30.7127 18.387 30.4314 18.6159 30.1479L18.6161 30.1476C18.6283 29.2787 18.5285 28.4118 18.3194 27.5684L18.3192 27.5683ZM11.3527 13.8641L11.3559 13.8598L11.3527 13.8684V13.8641ZM10.0052 26.0115L9.95285 25.8938C9.95504 25.8088 9.95504 25.7237 9.95285 25.6365C9.95285 25.6125 9.94849 25.5886 9.94849 25.5646C9.9681 25.715 9.98555 25.8655 10.0074 26.0159L10.0052 26.0115Z" fill="#88ED7E"/>
</svg>
