<svg width="13" height="12" viewBox="0 0 13 12" fill="none" xmlns="http://www.w3.org/2000/svg">
<path d="M6.58587 1.14144L6.5786 1.14794C5.88728 0.444777 4.95197 0.0344906 3.96643 0.00207726C2.98088 -0.0303361 2.02064 0.317608 1.28462 0.973829C0.548597 1.63005 0.0932028 2.54425 0.0127963 3.52705C-0.0676102 4.50984 0.23312 5.48591 0.85269 6.25303L0.845413 6.25953L5.96351 12L11.704 6.88191C12.0814 6.54599 12.3889 6.13898 12.609 5.68415C12.8291 5.22932 12.9573 4.73558 12.9865 4.23115C13.0156 3.72672 12.945 3.22149 12.7788 2.74435C12.6126 2.26721 12.354 1.8275 12.0177 1.45036C11.6815 1.07322 11.2742 0.76605 10.8192 0.546397C10.3641 0.326744 9.87027 0.198917 9.36582 0.170227C8.86136 0.141537 8.35621 0.212546 7.87921 0.379191C7.40221 0.545837 6.96273 0.804851 6.58589 1.14143L6.58587 1.14144Z" fill="#88ED7E"/>
</svg>
