<svg width="71" height="89" viewBox="0 0 71 89" fill="none" xmlns="http://www.w3.org/2000/svg">
<path d="M64.6196 88.7696H6.38015C4.68861 88.7677 3.0669 88.0949 1.87081 86.8987C0.674712 85.7026 0.0019099 84.0809 0 82.3894V6.38013C0.00193481 4.68861 0.674749 3.06692 1.87084 1.87083C3.06693 0.674746 4.68862 0.0019348 6.38015 0H64.6196C66.3112 0.00190523 67.9329 0.674701 69.129 1.87079C70.3251 3.06688 70.998 4.68858 70.9999 6.38013V82.3894C70.998 84.0809 70.3252 85.7027 69.1291 86.8988C67.9329 88.0949 66.3112 88.7677 64.6196 88.7696ZM6.38015 0.587879C4.84448 0.58961 3.37219 1.20042 2.2863 2.2863C1.20042 3.37218 0.589605 4.84446 0.587873 6.38013V82.3894C0.58958 83.925 1.20038 85.3973 2.28627 86.4833C3.37216 87.5692 4.84445 88.18 6.38014 88.1817H64.6196C66.1553 88.18 67.6277 87.5692 68.7136 86.4833C69.7995 85.3974 70.4103 83.9251 70.412 82.3894V6.38013C70.4103 4.84444 69.7995 3.37214 68.7135 2.28626C67.6276 1.20038 66.1553 0.589582 64.6196 0.587879H6.38015Z" fill="#88ED7E"/>
</svg>
