<svg width="9" height="10" viewBox="0 0 9 10" fill="none" xmlns="http://www.w3.org/2000/svg">
<path d="M5.809 9.67724C5.78441 9.68646 5.7629 9.69568 5.73831 9.7049C5.69138 9.72551 5.64312 9.74296 5.59386 9.75715C5.27969 9.8716 4.95233 9.94595 4.61954 9.97844C4.47763 9.99343 4.33502 10.0006 4.19232 9.99996C4.00933 10.0001 3.82654 9.98781 3.64523 9.96308C3.44356 9.93782 3.24418 9.89671 3.04896 9.84014C2.95634 9.81507 2.86503 9.78532 2.77542 9.751C2.16499 9.53242 1.61358 9.17524 1.16454 8.70753C0.71549 8.23982 0.381052 7.67433 0.187499 7.05551V7.05245C0.166846 6.99194 0.149401 6.93038 0.135245 6.86803C0.0447629 6.52186 -0.000691482 6.16546 7.9501e-06 5.80766V5.80152C-0.000101234 4.929 0.274079 4.07852 0.783767 3.37035C1.09112 2.93699 1.44507 2.86531 1.24786 2.36838C0.618803 0.783179 3.21213 -0.504783 4.73941 0.195401C4.79458 0.190282 4.84998 0.188223 4.90538 0.189248C5.93501 0.189248 6.31306 1.71065 6.9247 2.56817L6.90691 2.57391C6.75134 2.62793 6.61654 2.72923 6.52136 2.86363C6.42618 2.99803 6.37539 3.15882 6.37608 3.3235C6.37677 3.48819 6.4289 3.64854 6.52521 3.78214C6.62151 3.91574 6.75715 4.0159 6.91317 4.06862C7.32153 4.2028 7.73416 4.32146 8.15105 4.42459C9.52276 6.05297 7.9335 10.8028 5.809 9.67724Z" fill="#2F2E41"/>
</svg>
