<svg width="32" height="43" viewBox="0 0 32 43" fill="none" xmlns="http://www.w3.org/2000/svg">
<path d="M0.000204408 6.51016L0.395236 21.631L0.790272 36.7519C0.840116 38.6599 0.570588 41.2623 2.50589 42.3799C3.31321 42.8461 4.27846 42.9483 5.19343 42.9738C6.40801 43.0075 7.6265 42.9825 8.84154 42.9838L23.9759 42.9999C25.9644 43.0021 28.1485 42.9441 29.5731 41.3425C30.7624 40.0056 31.0994 38.1523 31.2186 36.4229C31.3759 34.1405 31.3004 31.8297 31.3209 29.5428L31.3888 21.9436L31.4567 14.3444C31.4774 12.0357 31.5865 9.70833 31.4853 7.40118C31.4081 5.64084 31.1105 3.76105 29.9302 2.37769C28.5858 0.801794 26.4599 0.58909 24.5209 0.527024C19.5063 0.366502 14.4908 0.230985 9.47581 0.0830767C8.32207 0.0490489 7.16498 -0.0128807 6.01056 0.00237468C4.98393 -0.0175011 3.96152 0.139122 2.98792 0.4654C1.36647 1.07241 0.0998688 2.52859 0.156242 4.33463C0.159898 4.71291 0.243398 5.08616 0.401274 5.42995C0.55915 5.77373 0.787842 6.0803 1.07239 6.32959C1.50516 6.69571 2.13487 6.07205 1.69882 5.70316C0.516938 4.70331 1.08932 2.82988 2.12247 1.94254C3.61941 0.656859 5.96616 0.865471 7.79151 0.919314L21.9981 1.33832C23.0998 1.3708 24.2046 1.38173 25.3051 1.4465C26.2874 1.50433 27.3135 1.63198 28.1928 2.10501C29.7132 2.92298 30.3065 4.60145 30.5063 6.2247C30.7576 8.26714 30.6063 10.3746 30.588 12.4261L30.5233 19.6564L30.3954 33.9695C30.3798 35.7105 30.4067 37.5073 29.8209 39.1719C29.5692 39.9441 29.1082 40.6313 28.4892 41.1572C27.7119 41.7213 26.783 42.0389 25.823 42.0688C24.7447 42.1558 23.654 42.1137 22.5732 42.1125L18.8819 42.1086L11.7946 42.101L8.10327 42.0971C7.02465 42.0959 5.93821 42.1338 4.86094 42.0745C4.03412 42.029 3.1115 41.8861 2.50234 41.2711C1.81995 40.5822 1.75663 39.5182 1.72531 38.6046C1.39911 29.09 1.22723 19.5676 0.9786 10.0506L0.886101 6.51015C0.871235 5.94114 -0.0147354 5.93891 0.000186384 6.51015L0.000204408 6.51016Z" fill="#3F3D56"/>
</svg>
