<svg width="254" height="200" viewBox="0 0 254 200" fill="none" xmlns="http://www.w3.org/2000/svg">
<g clip-path="url(#clip0_904_110450)">
<path d="M153.067 88.2385H94.984C93.3747 88.2367 91.8318 87.5966 90.6939 86.4586C89.5559 85.3207 88.9159 83.7778 88.9141 82.1685V6.36298C88.9159 4.7537 89.556 3.21087 90.6939 2.07294C91.8319 0.935016 93.3747 0.294935 94.984 0.293121H153.067C154.677 0.294935 156.219 0.935016 157.357 2.07294C158.495 3.21087 159.135 4.7537 159.137 6.36298V82.1685C159.135 83.7778 158.495 85.3207 157.357 86.4586C156.219 87.5966 154.677 88.2367 153.067 88.2385Z" fill="#F0F0F0"/>
<path d="M153.067 88.5315H94.9841C93.2971 88.5296 91.6798 87.8586 90.4869 86.6657C89.294 85.4728 88.623 83.8554 88.6211 82.1684V6.36301C88.623 4.67603 89.294 3.05869 90.4869 1.86582C91.6798 0.672937 93.2971 0.00192961 94.9841 0H153.067C154.754 0.00190012 156.372 0.672892 157.565 1.86577C158.758 3.05865 159.429 4.67601 159.431 6.36301V82.1684C159.429 83.8554 158.758 85.4728 157.565 86.6657C156.372 87.8586 154.754 88.5296 153.067 88.5315ZM94.9841 0.586303C93.4526 0.588028 91.9842 1.1972 90.9013 2.28017C89.8183 3.36314 89.2091 4.83146 89.2074 6.36301V82.1684C89.2091 83.7 89.8183 85.1683 90.9012 86.2513C91.9842 87.3343 93.4526 87.9435 94.9841 87.9452H153.067C154.599 87.9435 156.067 87.3343 157.15 86.2514C158.233 85.1684 158.843 83.7 158.844 82.1684V6.36301C158.843 4.83144 158.233 3.3631 157.15 2.28013C156.067 1.19716 154.599 0.588001 153.067 0.586303H94.9841Z" fill="#88ED7E"/>
<path d="M247.428 88.2385H189.345C187.736 88.2367 186.193 87.5966 185.055 86.4586C183.917 85.3207 183.277 83.7778 183.275 82.1685V6.36298C183.277 4.7537 183.917 3.21087 185.055 2.07294C186.193 0.935016 187.736 0.294935 189.345 0.293121H247.428C249.037 0.294935 250.58 0.935016 251.718 2.07294C252.856 3.21087 253.496 4.7537 253.498 6.36298V82.1685C253.496 83.7778 252.856 85.3207 251.718 86.4586C250.58 87.5966 249.037 88.2367 247.428 88.2385Z" fill="#F0F0F0"/>
<path d="M122.998 97.6203C128.796 97.6203 133.496 92.9201 133.496 87.1222C133.496 81.3243 128.796 76.6242 122.998 76.6242C117.2 76.6242 112.5 81.3243 112.5 87.1222C112.5 92.9201 117.2 97.6203 122.998 97.6203Z" fill="#88ED7E"/>
<path d="M121.566 92.586C121.385 92.586 121.206 92.5438 121.044 92.4627C120.882 92.3816 120.74 92.2638 120.632 92.1188L117.768 88.3C117.676 88.1773 117.609 88.0377 117.571 87.8892C117.533 87.7406 117.524 87.586 117.546 87.4342C117.568 87.2824 117.619 87.1364 117.697 87.0044C117.775 86.8725 117.879 86.7572 118.001 86.6652C118.124 86.5732 118.264 86.5062 118.412 86.4682C118.561 86.4301 118.715 86.4217 118.867 86.4434C119.019 86.4651 119.165 86.5165 119.297 86.5946C119.429 86.6727 119.544 86.7761 119.636 86.8988L121.51 89.3969L126.322 82.1783C126.495 81.9217 126.762 81.7438 127.065 81.6836C127.368 81.6235 127.683 81.686 127.94 81.8575C128.197 82.0289 128.376 82.2953 128.437 82.5983C128.498 82.9013 128.436 83.2161 128.266 83.4738L122.538 92.0659C122.434 92.2213 122.295 92.3496 122.131 92.44C121.968 92.5304 121.785 92.5804 121.598 92.5856C121.588 92.5858 121.577 92.586 121.566 92.586Z" fill="white"/>
<path d="M113.89 128.779H2.4918C1.83117 128.778 1.19781 128.515 0.730672 128.048C0.263534 127.581 0.000761905 126.948 0 126.287V25.4429C0.000737127 24.7822 0.263502 24.1488 0.730645 23.6817C1.19779 23.2146 1.83116 22.9518 2.4918 22.9511H113.89C114.55 22.9518 115.184 23.2146 115.651 23.6817C116.118 24.1488 116.381 24.7822 116.382 25.4429V126.287C116.381 126.948 116.118 127.581 115.651 128.048C115.184 128.515 114.55 128.778 113.89 128.779Z" fill="#3F3D56"/>
<path d="M111.545 126.433H4.83701C4.17638 126.433 3.54302 126.17 3.07589 125.703C2.60875 125.236 2.34598 124.602 2.34521 123.942V27.7881C2.34595 27.1274 2.60872 26.4941 3.07586 26.0269C3.543 25.5598 4.17637 25.297 4.83701 25.2963H111.545C112.205 25.297 112.839 25.5598 113.306 26.0269C113.773 26.4941 114.036 27.1274 114.036 27.7881V123.942C114.036 124.602 113.773 125.236 113.306 125.703C112.839 126.17 112.205 126.433 111.545 126.433Z" fill="white"/>
<path d="M10.2586 35.7424C22.8165 35.524 35.3757 35.4927 47.9362 35.6483C60.495 35.8048 73.0495 36.1492 85.5998 36.6814C92.6423 36.9801 99.682 37.3379 106.719 37.7548C107.284 37.7883 107.282 36.9087 106.719 36.8753C94.181 36.1334 81.634 35.5783 69.0779 35.2099C56.5235 34.8425 43.9656 34.663 31.404 34.6713C24.3551 34.676 17.3067 34.7399 10.2586 34.863C9.69333 34.8728 9.69155 35.7523 10.2586 35.7424V35.7424Z" fill="#3F3D56"/>
<path d="M97.775 30.228L103.266 29.8193C103.827 29.7776 103.832 28.8978 103.266 28.9398L97.775 29.3485C97.214 29.3903 97.2095 30.2701 97.775 30.228Z" fill="#3F3D56"/>
<path d="M97.775 35.5047L103.266 35.096C103.827 35.0543 103.832 34.1745 103.266 34.2166L97.775 34.6253C97.214 34.667 97.2095 35.5468 97.775 35.5047Z" fill="#3F3D56"/>
<path d="M97.3617 33.095L105.169 33.8042C105.732 33.8554 105.729 32.9757 105.169 32.9248L97.3617 32.2155C96.7983 32.1643 96.8017 33.0441 97.3617 33.095Z" fill="#3F3D56"/>
<path d="M13.5085 29.0453C13.1266 29.0429 12.7525 29.153 12.4328 29.3618C12.1131 29.5706 11.8619 29.8689 11.7106 30.2195C11.5412 30.5626 11.489 30.9518 11.5618 31.3274C11.6345 31.7031 11.8283 32.0446 12.1135 32.2996C12.3816 32.5277 12.7032 32.6841 13.0482 32.7542C13.3931 32.8243 13.7502 32.8058 14.0861 32.7004C14.4296 32.5804 14.7274 32.3569 14.9386 32.0607C15.1499 31.7645 15.2641 31.41 15.2655 31.0462C15.2809 30.6426 15.1715 30.244 14.9524 29.9047C14.7332 29.5654 14.4148 29.3018 14.0406 29.1498C13.9281 29.1193 13.8082 29.1344 13.7069 29.192C13.6055 29.2495 13.5311 29.3447 13.4997 29.457C13.4719 29.5693 13.4883 29.688 13.5455 29.7886C13.6026 29.8892 13.6961 29.9641 13.8068 29.9979C13.8834 30.0275 13.7368 29.9602 13.8083 29.9992C13.8378 30.0152 13.8677 30.0297 13.8966 30.0468C13.9212 30.0614 13.9447 30.0773 13.9686 30.0929C14.0507 30.1464 13.9285 30.0535 13.981 30.1017C14.0265 30.1435 14.0716 30.1842 14.1129 30.2303C14.1286 30.2477 14.1898 30.2962 14.1422 30.2623C14.1058 30.2364 14.1282 30.2425 14.1422 30.2633C14.1529 30.2791 14.1641 30.2945 14.1747 30.3103C14.209 30.3622 14.2401 30.4161 14.268 30.4717C14.2745 30.4845 14.2804 30.4977 14.2869 30.5105C14.2993 30.5345 14.3171 30.5408 14.2882 30.5107C14.2605 30.482 14.2781 30.484 14.288 30.5116C14.2945 30.5298 14.3016 30.5477 14.3079 30.5659C14.3286 30.6252 14.3459 30.6856 14.3598 30.7469C14.3662 30.7752 14.3714 30.8036 14.3769 30.8321C14.3966 30.9331 14.3741 30.7693 14.3788 30.8444C14.3828 30.907 14.3874 30.9689 14.3863 31.0318C14.3858 31.0606 14.3846 31.0893 14.3826 31.118C14.3816 31.1324 14.38 31.1466 14.379 31.1609C14.3745 31.23 14.3743 31.1357 14.384 31.1293C14.3639 31.1879 14.3505 31.2486 14.3442 31.3102C14.3364 31.3375 14.327 31.3642 14.3182 31.3913C14.2877 31.4856 14.347 31.3399 14.3144 31.4043C14.2875 31.4597 14.2575 31.5135 14.2245 31.5655C14.2102 31.5872 14.1562 31.6364 14.2003 31.6022C14.2483 31.5651 14.1752 31.629 14.1596 31.6454C14.1396 31.6666 14.1188 31.6869 14.0973 31.7066C14.0835 31.7201 14.0689 31.7327 14.0537 31.7445C14.0509 31.7431 14.1271 31.6936 14.086 31.7198C14.0338 31.7531 13.9843 31.7888 13.9292 31.8178C13.9228 31.8211 13.8524 31.8538 13.8527 31.8549C13.8497 31.843 13.9432 31.822 13.879 31.8427C13.8655 31.8471 13.8523 31.8524 13.8388 31.8569C13.7804 31.8766 13.7207 31.8924 13.6602 31.9045C13.6464 31.9072 13.6317 31.9086 13.6181 31.9121C13.5726 31.9239 13.6615 31.9053 13.6642 31.9068C13.6306 31.9053 13.5969 31.9083 13.5641 31.9157C13.5017 31.9192 13.4392 31.9192 13.3768 31.9156C13.3623 31.9148 13.3479 31.9134 13.3335 31.9125C13.3 31.9106 13.2754 31.8864 13.32 31.9126C13.3544 31.9329 13.3515 31.9181 13.3211 31.9125C13.3068 31.9099 13.2925 31.9076 13.2782 31.905C13.2165 31.8934 13.1554 31.8784 13.0953 31.8602C13.063 31.8503 13.0313 31.8388 12.9994 31.8277C12.9855 31.8236 12.9719 31.8184 12.9589 31.8121C12.9587 31.8085 13.0412 31.8515 12.9976 31.828C12.9427 31.7984 12.8859 31.7736 12.8323 31.7413C12.8037 31.724 12.7762 31.7052 12.7483 31.6867C12.7361 31.6794 12.7245 31.671 12.7135 31.6618C12.7145 31.6581 12.7817 31.7204 12.7464 31.6868C12.7018 31.6442 12.654 31.6061 12.6117 31.5608C12.602 31.5505 12.5929 31.5396 12.5832 31.5292L12.5739 31.5186C12.5501 31.4894 12.5496 31.4896 12.5726 31.519C12.5959 31.5259 12.5948 31.5514 12.5727 31.5182C12.5648 31.5064 12.5565 31.4949 12.5486 31.483C12.5129 31.4321 12.4824 31.3778 12.4577 31.3207C12.4598 31.3191 12.4958 31.4265 12.4683 31.3454C12.4631 31.3301 12.4573 31.315 12.4522 31.2997C12.4421 31.2692 12.4332 31.2384 12.4255 31.2073C12.4179 31.1764 12.414 31.1446 12.4063 31.1139C12.3934 31.0621 12.4139 31.1547 12.4115 31.1524C12.4042 31.1452 12.4073 31.1003 12.4068 31.0895C12.4033 31.0205 12.4111 30.9535 12.4124 30.8849C12.4133 30.8318 12.408 30.9264 12.4068 30.9236C12.4071 30.9077 12.4099 30.8919 12.4152 30.8769C12.4232 30.8407 12.4306 30.8046 12.4403 30.7688C12.4515 30.7278 12.4643 30.6874 12.4788 30.6474C12.4843 30.6325 12.4909 30.6178 12.4959 30.6027C12.5145 30.5475 12.4593 30.6694 12.4897 30.6196C12.5315 30.5511 12.5627 30.4769 12.6071 30.4093C12.6176 30.3932 12.6816 30.3039 12.6477 30.349C12.6139 30.3939 12.6824 30.3088 12.6954 30.2943C12.7494 30.2343 12.8128 30.185 12.8686 30.1274C12.9017 30.0934 12.8456 30.1442 12.8423 30.1466C12.8595 30.1342 12.8765 30.1214 12.894 30.1093C12.9245 30.0883 12.9558 30.0684 12.9878 30.0497C13.0239 30.0285 13.0647 30.0128 13.0997 29.9904C13.141 29.9639 13.0681 30.002 13.0668 30.0028C13.0856 29.9934 13.1054 29.9859 13.1257 29.9803C13.1597 29.9683 13.3078 29.9043 13.3389 29.9243C13.3375 29.9234 13.2264 29.9333 13.3162 29.9275C13.3374 29.9261 13.3585 29.9241 13.3798 29.9232C13.4227 29.9214 13.4656 29.9225 13.5085 29.9247C13.6249 29.924 13.7363 29.8774 13.8186 29.7951C13.9009 29.7128 13.9475 29.6014 13.9482 29.485C13.9457 29.3691 13.8986 29.2587 13.8167 29.1768C13.7347 29.0949 13.6243 29.0478 13.5085 29.0453Z" fill="#3F3D56"/>
<path d="M19.6643 29.0453C19.2824 29.0429 18.9083 29.153 18.5886 29.3618C18.2688 29.5706 18.0177 29.8689 17.8663 30.2195C17.697 30.5626 17.6447 30.9518 17.7175 31.3274C17.7903 31.7031 17.9841 32.0446 18.2693 32.2996C18.5374 32.5277 18.859 32.6841 19.2039 32.7542C19.5489 32.8243 19.906 32.8058 20.2418 32.7004C20.5853 32.5804 20.8832 32.3569 21.0944 32.0607C21.3056 31.7645 21.4198 31.41 21.4213 31.0462C21.4366 30.6426 21.3273 30.244 21.1081 29.9047C20.889 29.5654 20.5706 29.3018 20.1964 29.1498C20.0839 29.1193 19.9639 29.1344 19.8626 29.192C19.7613 29.2495 19.6868 29.3447 19.6554 29.457C19.6277 29.5693 19.6441 29.688 19.7012 29.7886C19.7583 29.8892 19.8519 29.9641 19.9626 29.9979C20.0392 30.0275 19.8926 29.9602 19.9641 29.9992C19.9935 30.0152 20.0235 30.0297 20.0524 30.0468C20.077 30.0614 20.1005 30.0773 20.1244 30.0929C20.2064 30.1464 20.0843 30.0535 20.1368 30.1017C20.1823 30.1435 20.2273 30.1842 20.2687 30.2303C20.2843 30.2477 20.3456 30.2962 20.298 30.2623C20.2616 30.2364 20.2839 30.2425 20.298 30.2633C20.3086 30.2791 20.3199 30.2945 20.3304 30.3103C20.3647 30.3622 20.3959 30.4161 20.4238 30.4717C20.4302 30.4845 20.4361 30.4977 20.4427 30.5105C20.455 30.5345 20.4729 30.5408 20.4439 30.5107C20.4163 30.482 20.4339 30.484 20.4438 30.5116C20.4503 30.5298 20.4574 30.5477 20.4637 30.5659C20.4843 30.6252 20.5016 30.6856 20.5155 30.7469C20.522 30.7752 20.5272 30.8036 20.5327 30.8321C20.5523 30.9331 20.5299 30.7693 20.5346 30.8444C20.5386 30.907 20.5432 30.9689 20.5421 31.0318C20.5416 31.0606 20.5403 31.0893 20.5383 31.118C20.5373 31.1324 20.5357 31.1466 20.5348 31.1609C20.5302 31.23 20.5301 31.1357 20.5397 31.1293C20.5196 31.1879 20.5063 31.2486 20.5 31.3102C20.4921 31.3375 20.4828 31.3642 20.474 31.3913C20.4434 31.4856 20.5027 31.3399 20.4701 31.4043C20.4433 31.4597 20.4133 31.5135 20.3803 31.5655C20.366 31.5872 20.3119 31.6364 20.3561 31.6022C20.404 31.5651 20.331 31.629 20.3154 31.6454C20.2954 31.6666 20.2746 31.6869 20.253 31.7066C20.2392 31.7201 20.2247 31.7327 20.2094 31.7445C20.2066 31.7431 20.2829 31.6936 20.2418 31.7198C20.1895 31.7531 20.14 31.7888 20.085 31.8178C20.0786 31.8211 20.0082 31.8538 20.0085 31.8549C20.0054 31.843 20.099 31.822 20.0348 31.8427C20.0213 31.8471 20.008 31.8524 19.9946 31.8569C19.9361 31.8766 19.8765 31.8924 19.816 31.9045C19.8021 31.9072 19.7875 31.9086 19.7738 31.9121C19.7284 31.9239 19.8173 31.9053 19.8199 31.9068C19.7863 31.9053 19.7527 31.9083 19.7199 31.9157C19.6575 31.9192 19.5949 31.9192 19.5325 31.9156C19.5181 31.9148 19.5037 31.9134 19.4893 31.9125C19.4558 31.9106 19.4312 31.8864 19.4758 31.9126C19.5102 31.9329 19.5073 31.9181 19.4768 31.9125C19.4626 31.9099 19.4483 31.9076 19.434 31.905C19.3722 31.8934 19.3112 31.8784 19.2511 31.8602C19.2187 31.8503 19.187 31.8388 19.1551 31.8277C19.1412 31.8236 19.1277 31.8184 19.1147 31.8121C19.1145 31.8085 19.1969 31.8515 19.1534 31.828C19.0985 31.7984 19.0417 31.7736 18.988 31.7413C18.9594 31.724 18.9319 31.7052 18.9041 31.6867C18.8919 31.6794 18.8802 31.671 18.8693 31.6618C18.8702 31.6581 18.9375 31.7204 18.9022 31.6868C18.8575 31.6442 18.8098 31.6061 18.7675 31.5608C18.7578 31.5505 18.7486 31.5396 18.739 31.5292L18.7297 31.5186C18.7058 31.4894 18.7054 31.4896 18.7284 31.519C18.7517 31.5259 18.7506 31.5514 18.7285 31.5182C18.7206 31.5064 18.7122 31.4949 18.7044 31.483C18.6686 31.4321 18.6382 31.3778 18.6135 31.3207C18.6156 31.3191 18.6516 31.4265 18.6241 31.3454C18.6189 31.3301 18.613 31.315 18.6079 31.2997C18.5978 31.2692 18.5889 31.2384 18.5813 31.2073C18.5737 31.1764 18.5698 31.1446 18.5621 31.1139C18.5492 31.0621 18.5696 31.1547 18.5673 31.1524C18.56 31.1452 18.5631 31.1003 18.5625 31.0895C18.559 31.0205 18.5669 30.9535 18.5681 30.8849C18.5691 30.8318 18.5637 30.9264 18.5626 30.9236C18.5629 30.9077 18.5657 30.8919 18.571 30.8769C18.5789 30.8407 18.5863 30.8046 18.5961 30.7688C18.6072 30.7278 18.6201 30.6874 18.6346 30.6474C18.64 30.6325 18.6467 30.6178 18.6517 30.6027C18.6702 30.5475 18.6151 30.6694 18.6455 30.6196C18.6873 30.5511 18.7185 30.4769 18.7629 30.4093C18.7734 30.3932 18.8374 30.3039 18.8034 30.349C18.7696 30.3939 18.8382 30.3088 18.8512 30.2943C18.9051 30.2343 18.9686 30.185 19.0244 30.1274C19.0575 30.0934 19.0013 30.1442 18.998 30.1466C19.0153 30.1342 19.0322 30.1214 19.0498 30.1093C19.0803 30.0883 19.1116 30.0684 19.1436 30.0497C19.1797 30.0285 19.2205 30.0128 19.2554 29.9904C19.2967 29.9639 19.2238 30.002 19.2225 30.0028C19.2414 29.9934 19.2611 29.9859 19.2814 29.9803C19.3155 29.9683 19.4636 29.9043 19.4946 29.9243C19.4932 29.9234 19.3822 29.9333 19.472 29.9275C19.4932 29.9261 19.5143 29.9241 19.5355 29.9232C19.5785 29.9214 19.6213 29.9225 19.6643 29.9247C19.7806 29.924 19.8921 29.8774 19.9744 29.7951C20.0567 29.7128 20.1032 29.6014 20.104 29.485C20.1015 29.3691 20.0544 29.2587 19.9724 29.1768C19.8905 29.0949 19.7801 29.0478 19.6643 29.0453Z" fill="#3F3D56"/>
<path d="M25.8205 29.0453C25.4386 29.0429 25.0645 29.153 24.7448 29.3618C24.4251 29.5706 24.1739 29.8689 24.0226 30.2195C23.8533 30.5626 23.801 30.9518 23.8738 31.3274C23.9465 31.7031 24.1403 32.0446 24.4255 32.2996C24.6936 32.5277 25.0152 32.6841 25.3602 32.7542C25.7051 32.8243 26.0622 32.8058 26.3981 32.7004C26.7416 32.5804 27.0394 32.3569 27.2506 32.0607C27.4619 31.7645 27.5761 31.41 27.5776 31.0462C27.5929 30.6426 27.4835 30.244 27.2644 29.9047C27.0452 29.5654 26.7268 29.3018 26.3526 29.1498C26.2402 29.1193 26.1202 29.1344 26.0189 29.192C25.9175 29.2495 25.8431 29.3447 25.8117 29.457C25.784 29.5693 25.8003 29.688 25.8575 29.7886C25.9146 29.8892 26.0081 29.9641 26.1188 29.9979C26.1954 30.0275 26.0488 29.9602 26.1204 29.9992C26.1498 30.0152 26.1798 30.0297 26.2086 30.0468C26.2332 30.0614 26.2567 30.0773 26.2806 30.0929C26.3627 30.1464 26.2405 30.0535 26.293 30.1017C26.3385 30.1435 26.3836 30.1842 26.4249 30.2303C26.4406 30.2477 26.5018 30.2962 26.4542 30.2623C26.4178 30.2364 26.4402 30.2425 26.4542 30.2633C26.4649 30.2791 26.4761 30.2945 26.4867 30.3103C26.5209 30.3622 26.5521 30.4161 26.58 30.4717C26.5865 30.4845 26.5924 30.4977 26.5989 30.5105C26.6112 30.5345 26.6291 30.5408 26.6002 30.5107C26.5725 30.482 26.5901 30.484 26.6 30.5116C26.6065 30.5298 26.6136 30.5477 26.6199 30.5659C26.6406 30.6252 26.6579 30.6856 26.6718 30.7469C26.6782 30.7752 26.6834 30.8036 26.6889 30.8321C26.7086 30.9331 26.6861 30.7693 26.6908 30.8444C26.6948 30.907 26.6994 30.9689 26.6983 31.0318C26.6978 31.0606 26.6966 31.0893 26.6946 31.118C26.6936 31.1324 26.692 31.1466 26.691 31.1609C26.6865 31.23 26.6863 31.1357 26.696 31.1293C26.6759 31.1879 26.6625 31.2486 26.6562 31.3102C26.6483 31.3375 26.639 31.3642 26.6302 31.3913C26.5996 31.4856 26.659 31.3399 26.6264 31.4043C26.5995 31.4597 26.5695 31.5135 26.5365 31.5655C26.5222 31.5872 26.4682 31.6364 26.5123 31.6022C26.5603 31.5651 26.4872 31.629 26.4716 31.6454C26.4516 31.6666 26.4308 31.6869 26.4093 31.7066C26.3955 31.7201 26.3809 31.7327 26.3656 31.7445C26.3628 31.7431 26.4391 31.6936 26.398 31.7198C26.3457 31.7531 26.2963 31.7888 26.2412 31.8178C26.2348 31.8211 26.1644 31.8538 26.1647 31.8549C26.1617 31.843 26.2552 31.822 26.191 31.8427C26.1775 31.8471 26.1643 31.8524 26.1508 31.8569C26.0924 31.8766 26.0327 31.8924 25.9722 31.9045C25.9584 31.9072 25.9437 31.9086 25.9301 31.9121C25.8846 31.9239 25.9735 31.9053 25.9762 31.9068C25.9426 31.9053 25.9089 31.9083 25.8761 31.9157C25.8137 31.9192 25.7512 31.9192 25.6888 31.9156C25.6743 31.9148 25.6599 31.9134 25.6455 31.9125C25.612 31.9106 25.5874 31.8864 25.632 31.9126C25.6664 31.9329 25.6635 31.9181 25.6331 31.9125C25.6188 31.9099 25.6045 31.9076 25.5902 31.905C25.5285 31.8934 25.4674 31.8784 25.4073 31.8602C25.375 31.8503 25.3433 31.8388 25.3114 31.8277C25.2975 31.8236 25.2839 31.8184 25.2709 31.8121C25.2707 31.8085 25.3532 31.8515 25.3096 31.828C25.2547 31.7984 25.1979 31.7736 25.1443 31.7413C25.1156 31.724 25.0882 31.7052 25.0603 31.6867C25.0481 31.6794 25.0364 31.671 25.0255 31.6618C25.0264 31.6581 25.0937 31.7204 25.0584 31.6868C25.0138 31.6442 24.966 31.6061 24.9237 31.5608C24.914 31.5505 24.9049 31.5396 24.8952 31.5292L24.8859 31.5186C24.8621 31.4894 24.8616 31.4896 24.8846 31.519C24.9079 31.5259 24.9068 31.5514 24.8847 31.5182C24.8768 31.5064 24.8685 31.4949 24.8606 31.483C24.8249 31.4321 24.7944 31.3778 24.7697 31.3207C24.7718 31.3191 24.8078 31.4265 24.7803 31.3454C24.7751 31.3301 24.7693 31.315 24.7642 31.2997C24.7541 31.2692 24.7452 31.2384 24.7375 31.2073C24.7299 31.1764 24.726 31.1446 24.7183 31.1139C24.7054 31.0621 24.7259 31.1547 24.7235 31.1524C24.7162 31.1452 24.7193 31.1003 24.7188 31.0895C24.7153 31.0205 24.7231 30.9535 24.7244 30.8849C24.7253 30.8318 24.72 30.9264 24.7189 30.9236C24.7191 30.9077 24.7219 30.8919 24.7272 30.8769C24.7352 30.8407 24.7426 30.8046 24.7523 30.7688C24.7635 30.7278 24.7763 30.6874 24.7909 30.6474C24.7963 30.6325 24.8029 30.6178 24.808 30.6027C24.8265 30.5475 24.7713 30.6694 24.8017 30.6196C24.8436 30.5511 24.8747 30.4769 24.9191 30.4093C24.9297 30.3932 24.9937 30.3039 24.9597 30.349C24.9259 30.3939 24.9944 30.3088 25.0074 30.2943C25.0614 30.2343 25.1248 30.185 25.1807 30.1274C25.2137 30.0934 25.1576 30.1442 25.1543 30.1466C25.1716 30.1342 25.1885 30.1214 25.206 30.1093C25.2365 30.0883 25.2678 30.0684 25.2998 30.0497C25.3359 30.0285 25.3767 30.0128 25.4117 29.9904C25.453 29.9639 25.3801 30.002 25.3788 30.0028C25.3976 29.9934 25.4174 29.9859 25.4377 29.9803C25.4717 29.9683 25.6198 29.9043 25.6509 29.9243C25.6495 29.9234 25.5384 29.9333 25.6282 29.9275C25.6494 29.9261 25.6705 29.9241 25.6918 29.9232C25.7348 29.9214 25.7776 29.9225 25.8205 29.9247C25.9369 29.924 26.0483 29.8774 26.1306 29.7951C26.2129 29.7128 26.2595 29.6014 26.2602 29.485C26.2577 29.3691 26.2106 29.2587 26.1287 29.1768C26.0468 29.0949 25.9363 29.0478 25.8205 29.0453Z" fill="#3F3D56"/>
<path d="M12.9729 52.1403L13.365 67.151L13.7572 82.1617C13.8066 84.0557 13.5391 86.6392 15.4603 87.7486C16.2617 88.2114 17.2199 88.3129 18.1282 88.3381C19.334 88.3716 20.5436 88.3468 21.7498 88.3481L36.7738 88.3641C38.7478 88.3663 40.916 88.3087 42.3302 86.7188C43.5108 85.3916 43.8453 83.5518 43.9637 81.8351C44.1199 79.5693 44.0449 77.2753 44.0652 75.0051L44.1327 67.4613L44.2001 59.9174C44.2206 57.6256 44.3289 55.3152 44.2285 53.0248C44.1518 51.2773 43.8563 49.4112 42.6847 48.038C41.3501 46.4736 39.2397 46.2624 37.3149 46.2008C32.3368 46.0414 27.3578 45.9069 22.3794 45.7601C21.2341 45.7263 20.0854 45.6648 18.9394 45.68C17.9203 45.6602 16.9053 45.8157 15.9388 46.1396C14.3292 46.7422 13.0718 48.1878 13.1278 49.9806C13.1314 50.3562 13.2143 50.7267 13.371 51.068C13.5277 51.4093 13.7548 51.7136 14.0372 51.9611C14.4668 52.3245 15.092 51.7054 14.6591 51.3392C13.4858 50.3466 14.054 48.4869 15.0797 47.606C16.5657 46.3297 18.8953 46.5368 20.7074 46.5902L34.8104 47.0062C35.9041 47.0384 37.0009 47.0493 38.0933 47.1136C39.0685 47.171 40.0871 47.2977 40.9599 47.7673C42.4692 48.5793 43.0583 50.2455 43.2566 51.8569C43.5061 53.8845 43.3559 55.9766 43.3377 58.0131L43.2735 65.1908L43.1465 79.3996C43.131 81.1278 43.1577 82.9116 42.5762 84.564C42.3263 85.3306 41.8687 86.0128 41.2542 86.5348C40.4825 87.0949 39.5604 87.4101 38.6074 87.4398C37.537 87.5261 36.4542 87.4844 35.3813 87.4832L31.7169 87.4793L24.6813 87.4718L21.0169 87.4679C19.9461 87.4667 18.8676 87.5043 17.7982 87.4454C16.9774 87.4003 16.0615 87.2584 15.4568 86.6479C14.7793 85.964 14.7165 84.9077 14.6854 84.0008C14.3616 74.5556 14.1909 65.1026 13.9441 55.655L13.8523 52.1403C13.8375 51.5754 12.958 51.5732 12.9728 52.1403L12.9729 52.1403Z" fill="#3F3D56"/>
<path d="M68.6721 52.1403L69.0642 67.151L69.4564 82.1617C69.5059 84.0557 69.2383 86.6392 71.1595 87.7486C71.9609 88.2114 72.9192 88.3129 73.8274 88.3381C75.0332 88.3716 76.2428 88.3468 77.449 88.3481L92.473 88.3641C94.447 88.3663 96.6152 88.3087 98.0295 86.7188C99.21 85.3916 99.5446 83.5518 99.6629 81.8351C99.8191 79.5693 99.7442 77.2753 99.7645 75.0051L99.8319 67.4613L99.8994 59.9174C99.9199 57.6256 100.028 55.3152 99.9277 53.0248C99.851 51.2773 99.5556 49.4112 98.384 48.038C97.0493 46.4736 94.9389 46.2624 93.0141 46.2008C88.036 46.0414 83.0571 45.9069 78.0786 45.7601C76.9333 45.7263 75.7846 45.6648 74.6386 45.68C73.6195 45.6602 72.6045 45.8157 71.638 46.1396C70.0284 46.7422 68.771 48.1878 68.827 49.9806C68.8306 50.3562 68.9135 50.7267 69.0702 51.068C69.2269 51.4093 69.454 51.7136 69.7364 51.9611C70.1661 52.3245 70.7912 51.7054 70.3583 51.3392C69.185 50.3466 69.7532 48.4869 70.7789 47.606C72.2649 46.3297 74.5945 46.5368 76.4066 46.5902L90.5096 47.0062C91.6033 47.0384 92.7001 47.0493 93.7925 47.1136C94.7677 47.171 95.7863 47.2977 96.6592 47.7673C98.1685 48.5793 98.7575 50.2455 98.9558 51.8569C99.2053 53.8845 99.0551 55.9766 99.0369 58.0131L98.9727 65.1908L98.8457 79.3996C98.8302 81.1278 98.8569 82.9116 98.2755 84.564C98.0255 85.3306 97.5679 86.0128 96.9534 86.5348C96.1818 87.0949 95.2597 87.4101 94.3067 87.4398C93.2362 87.5261 92.1535 87.4844 91.0806 87.4832L87.4161 87.4793L80.3805 87.4718L76.7161 87.4679C75.6453 87.4667 74.5668 87.5043 73.4974 87.4454C72.6766 87.4003 71.7607 87.2584 71.156 86.6479C70.4786 85.964 70.4157 84.9077 70.3846 84.0008C70.0608 74.5556 69.8902 65.1026 69.6433 55.655L69.5515 52.1403C69.5368 51.5754 68.6572 51.5732 68.6721 52.1403L68.6721 52.1403Z" fill="#3F3D56"/>
<path d="M28.1534 91.6138C27.846 91.3179 27.4676 91.1061 27.0546 90.9986C26.6417 90.8912 26.208 90.8918 25.7954 91.0004C25.3854 91.1128 25.0054 91.3148 24.6828 91.5918C24.3602 91.8687 24.103 92.2137 23.9298 92.602C23.0989 94.3716 23.8433 96.4341 24.9914 97.8791C26.0582 99.2218 27.7914 100.107 29.4798 99.4018C30.2491 99.0722 30.8954 98.5093 31.3276 97.7927C31.7599 97.0761 31.9562 96.2418 31.8889 95.4076C31.6761 93.4428 30.0794 91.8515 28.2044 91.3716C27.6559 91.2312 27.4218 92.0792 27.9706 92.2196C28.6224 92.3775 29.2257 92.6923 29.7282 93.1364C30.2306 93.5806 30.6169 94.1408 30.8535 94.7683C31.0611 95.3822 31.0701 96.0459 30.8791 96.6651C30.6882 97.2844 30.3071 97.8279 29.7899 98.2183C27.1693 100.231 24.1718 96.383 24.4656 93.8655C24.497 93.4941 24.6134 93.1349 24.8058 92.8156C24.9982 92.4963 25.2614 92.2256 25.5752 92.0244C25.8807 91.8446 26.2359 91.7681 26.5883 91.8061C26.9407 91.8442 27.2715 91.9948 27.5315 92.2357C27.6149 92.3136 27.7253 92.356 27.8394 92.3541C27.9535 92.3522 28.0624 92.306 28.143 92.2253C28.2237 92.1446 28.2699 92.0357 28.2718 91.9216C28.2738 91.8075 28.2313 91.6972 28.1534 91.6138L28.1534 91.6138Z" fill="#3F3D56"/>
<path d="M81.8811 61.0924C80.8548 60.7395 79.6635 60.3889 78.6015 60.8027C77.5997 61.1931 77.0479 62.1487 76.9394 63.186C76.8184 64.3427 77.3103 65.4459 77.8315 66.4474C78.4586 67.652 79.1053 68.8468 79.7426 70.046L81.9468 74.1941C81.997 74.2752 82.072 74.338 82.1607 74.373C82.2495 74.408 82.3471 74.4135 82.4392 74.3886C82.5313 74.3636 82.6128 74.3096 82.6718 74.2346C82.7307 74.1596 82.7638 74.0675 82.7662 73.9722C82.6417 72.5813 82.8624 71.1812 83.4088 69.8961C83.9725 68.5972 84.8936 67.5002 85.5484 66.2512C86.1512 65.1015 86.5531 63.7824 86.2337 62.4865C85.9755 61.4384 85.2132 60.4185 84.1147 60.1746C83.5597 60.0341 82.9727 60.0962 82.4594 60.3498C81.946 60.6034 81.54 61.0318 81.3143 61.558C81.1068 62.0848 81.957 62.3132 82.1623 61.7918C82.4549 61.0492 83.4789 60.8215 84.1614 61.1057C85.0505 61.476 85.4723 62.5388 85.4712 63.442C85.4698 64.6769 84.8371 65.8054 84.1952 66.8197C83.5469 67.8442 82.8653 68.835 82.4344 69.9768C81.959 71.2518 81.772 72.6163 81.8867 73.9722L82.7062 73.7502C81.2749 71.0567 79.7649 68.3904 78.4138 65.6559C77.8942 64.6043 77.4268 63.1861 78.2234 62.1371C79.0401 61.0617 80.5989 61.5799 81.6473 61.9405C82.1836 62.1249 82.414 61.2757 81.8811 61.0924L81.8811 61.0924Z" fill="#3F3D56"/>
<path d="M25.9072 94.0707L27.2021 96.5824C27.247 96.6554 27.3121 96.7138 27.3894 96.7506C27.4667 96.7875 27.5531 96.8012 27.638 96.7901C27.723 96.779 27.8029 96.7436 27.8681 96.6881C27.9334 96.6326 27.9812 96.5594 28.0059 96.4774C28.3432 94.7386 29.1515 93.1258 30.3425 91.8149C30.7235 91.3977 30.1033 90.774 29.7206 91.193C28.4212 92.6109 27.5349 94.3576 27.1578 96.2436L27.9615 96.1385L26.6666 93.6268C26.4071 93.1236 25.648 93.5679 25.9072 94.0707Z" fill="#3F3D56"/>
<path d="M40.5962 82.4756L30.3643 91.513C30.3066 91.564 30.2316 91.5908 30.1546 91.5881C30.0777 91.5854 30.0048 91.5533 29.9509 91.4984C29.897 91.4435 29.8661 91.37 29.8648 91.293C29.8634 91.2161 29.8917 91.1416 29.9436 91.0848L39.4772 80.6758L40.5962 82.4756Z" fill="#3F3D56"/>
<path d="M54.2368 192.46H58.2583L60.1723 176.948H54.2368V192.46Z" fill="#FFB6B6"/>
<path d="M52.1143 199.428H54.9983L55.5131 196.705L56.8315 199.428H64.4807C64.8473 199.428 65.2044 199.311 65.4997 199.094C65.7951 198.876 66.0132 198.57 66.1223 198.22C66.2314 197.87 66.2258 197.495 66.1062 197.148C65.9867 196.801 65.7594 196.502 65.4577 196.294L59.3493 192.075V189.322L52.9244 189.706L52.1143 199.428Z" fill="#2F2E41"/>
<path d="M88.6841 192.46H92.7055L94.6195 176.948H88.6841V192.46Z" fill="#FFB6B6"/>
<path d="M86.5615 199.428H89.4456L89.9603 196.705L91.2788 199.428H98.928C99.2946 199.428 99.6517 199.311 99.947 199.094C100.242 198.876 100.461 198.57 100.57 198.22C100.679 197.87 100.673 197.495 100.554 197.148C100.434 196.801 100.207 196.502 99.905 196.294L93.7966 192.075V189.322L87.3716 189.706L86.5615 199.428Z" fill="#2F2E41"/>
<path d="M77.061 110.238L56.6647 107.972C56.6647 107.972 47.5997 119.756 50.9991 129.955V141.311L53.492 185.704L59.7242 186.044L61.5372 165.875L63.2369 157.829L64.6685 127.178L71.962 135.96L72.6419 139.359L74.9081 140.946L79.1007 146.707L87.7125 182.078L95.3018 182.192C95.3018 182.192 91.2252 145.478 90.7719 145.478C90.3187 145.478 78.9874 120.776 78.9874 120.776V119.469L78.5341 116.924C78.5341 116.924 79.6673 116.017 79.214 115.564C78.7607 115.111 78.3075 113.751 78.3075 113.751L77.061 110.238Z" fill="#2F2E41"/>
<path d="M69.6956 78.624L73.7749 83.1565L79.4405 85.1962L76.2678 103.779L77.3201 109.123L78.874 114.997C72.8866 118.309 65.7745 113.735 59.2407 111.704L52.812 114.544L53.1519 106.726L53.3263 87.0263C53.333 86.2697 53.4951 85.5226 53.8026 84.8312C54.1101 84.1399 54.5564 83.5192 55.1139 83.0075C55.6713 82.4959 56.328 82.1043 57.043 81.857C57.7581 81.6098 58.5164 81.5121 59.2708 81.5701L63.5767 78.3974L69.6956 78.624Z" fill="#88ED7E"/>
<path d="M32.6903 86.937C32.7225 87.2732 32.828 87.5984 32.9994 87.8894C33.1708 88.1805 33.404 88.4304 33.6825 88.6217C33.961 88.8129 34.278 88.9407 34.6112 88.9961C34.9444 89.0516 35.2857 89.0333 35.6111 88.9425L40.2879 95.6918L41.8779 91.7321L37.193 85.93C37.0043 85.3934 36.6254 84.9448 36.128 84.669C35.6306 84.3932 35.0494 84.3094 34.4943 84.4335C33.9393 84.5576 33.4491 84.8811 33.1166 85.3425C32.7841 85.8039 32.6324 86.3712 32.6903 86.937Z" fill="#FFB8B8"/>
<path d="M57.1773 81.6669C57.1773 81.6669 51.09 81.3971 51.7716 93.4945L49.182 98.8087L43.9734 93.9477L43.9498 92.4004L39.545 87.477L36.0093 91.3855L38.3628 94.9838L38.8165 96.9934L40.2499 97.8689L43.9898 103.587L45.7199 105.29C45.7199 105.29 47.9146 107.477 50.3968 107.147C51.0591 107.061 51.7038 106.872 52.3072 106.585C53.4881 106.023 54.6546 105.015 55.6355 103.309C57.6912 99.7858 59.5341 96.1425 61.1544 92.3988L57.1773 81.6669Z" fill="#88ED7E"/>
<path d="M83.826 68.0094C83.7331 68.3342 83.7125 68.6754 83.7656 69.009C83.8188 69.3425 83.9445 69.6604 84.1338 69.9402C84.3232 70.2199 84.5715 70.4548 84.8614 70.6282C85.1513 70.8016 85.4757 70.9093 85.8118 70.9437L87.6982 78.9353L90.6254 75.8307L88.3853 68.7177C88.4057 68.1494 88.217 67.5932 87.8548 67.1547C87.4927 66.7162 86.9822 66.4258 86.4202 66.3385C85.8582 66.2512 85.2838 66.3731 84.8056 66.681C84.3275 66.989 83.9789 67.4616 83.826 68.0094V68.0094Z" fill="#FFB8B8"/>
<path d="M70.8711 84.119C70.8711 84.119 74.0898 78.9452 83.6834 86.3463L89.5309 87.2143L88.4657 80.1699L87.2026 79.2758L85.6315 72.8591L90.8544 72.1521L92.4921 76.1276L93.8933 77.6379L93.8052 79.3152L96.4076 85.6327L96.8342 88.0224C96.8342 88.0224 97.3975 91.0691 95.7225 92.9304C95.277 93.428 94.7562 93.8526 94.179 94.1886C93.0478 94.8449 91.557 95.2374 89.5951 95.082C85.5266 94.7857 81.4794 94.2463 77.4753 93.4665L70.8711 84.119Z" fill="#88ED7E"/>
<path d="M70.4167 76.7345C74.2208 74.655 75.6189 69.8853 73.5394 66.0812C71.4599 62.2771 66.6902 60.879 62.8861 62.9585C59.0819 65.038 57.6838 69.8076 59.7634 73.6118C61.8429 77.4159 66.6125 78.814 70.4167 76.7345Z" fill="#FFB6B6"/>
<path d="M76.98 67.138C76.9566 67.1468 76.9361 67.1556 76.9126 67.1644C76.8679 67.184 76.8218 67.2007 76.7748 67.2142C76.4752 67.3234 76.1629 67.3943 75.8455 67.4253C75.7102 67.4396 75.5742 67.4464 75.4381 67.4458C75.2635 67.446 75.0892 67.4342 74.9163 67.4106C74.7239 67.3865 74.5337 67.3473 74.3475 67.2934C74.2592 67.2694 74.1721 67.2411 74.0866 67.2083C73.5044 66.9999 72.9785 66.6592 72.5502 66.2131C72.1219 65.767 71.8029 65.2276 71.6183 64.6374V64.6345C71.5986 64.5768 71.582 64.518 71.5684 64.4586C71.4821 64.1284 71.4388 63.7885 71.4395 63.4472V63.4413C71.4394 62.6091 71.7009 61.798 72.187 61.1225C72.4802 60.7092 72.8177 60.6408 72.6297 60.1668C72.0297 58.6549 74.5032 57.4264 75.9599 58.0943C76.0125 58.0894 76.0653 58.0874 76.1182 58.0884C77.1002 58.0884 77.4608 59.5395 78.0442 60.3574L78.0272 60.3629C77.8788 60.4144 77.7503 60.511 77.6595 60.6392C77.5687 60.7674 77.5203 60.9208 77.5209 61.0778C77.5216 61.2349 77.5713 61.3879 77.6632 61.5153C77.755 61.6427 77.8844 61.7382 78.0332 61.7885C78.4227 61.9165 78.8162 62.0297 79.2139 62.128C80.5222 63.6812 79.0064 68.2115 76.98 67.138Z" fill="#2F2E41"/>
<path d="M76.2471 71.2919C75.8103 72.9424 75.0071 74.5518 73.6791 75.6218C72.3482 76.6918 66.0953 79.2188 65.5735 77.0406C65.9223 78.5621 65.7083 79.1425 65.1396 79.6849C65.0429 79.5529 64.9403 79.4269 64.8347 79.3038C64.446 78.8536 63.9793 78.4772 63.4569 78.1927C63.441 79.1111 63.5048 80.0292 63.6475 80.9366C63.4131 81.1517 63.1901 81.3787 62.9791 81.6167C61.9765 78.6031 59.7713 74.9911 61.3814 72.2535C62.0204 71.167 61.4902 71.0166 60.927 70.8903C59.9437 70.6698 59.4114 66.6308 59.1798 65.6488C58.8925 64.4176 58.7811 63.0016 59.5462 61.9932C60.3114 60.9848 62.2403 60.9466 62.6273 62.1515L63.4422 61.0492C64.4976 58.7421 67.2825 59.2112 69.8007 59.5161C72.3189 59.818 74.5381 61.5945 75.6667 63.8664C76.7924 66.1384 76.895 68.8382 76.2471 71.2919Z" fill="#2F2E41"/>
<path d="M72.3028 60.7311C72.2458 62.1238 72.5994 63.5025 73.3195 64.6959C74.0397 65.8893 75.0947 66.8447 76.3535 67.4434C76.8646 67.6765 77.3121 66.9188 76.7973 66.684C75.6726 66.1617 74.7285 65.317 74.0848 64.2571C73.4412 63.1972 73.127 61.9699 73.1823 60.7311C73.213 60.1655 72.3335 60.1672 72.3028 60.7311Z" fill="#FF6584"/>
<path d="M37.7867 194.144C37.6302 194.151 37.4753 194.11 37.343 194.026C37.2107 193.943 37.1073 193.82 37.0469 193.676C36.9865 193.531 36.9719 193.372 37.0052 193.219C37.0385 193.066 37.1181 192.926 37.2331 192.82L37.2854 192.612C37.2785 192.595 37.2716 192.579 37.2646 192.562C36.5614 190.885 32.0741 195.56 31.8801 197.136C31.7946 197.832 31.8307 198.538 31.9866 199.223C30.5331 196.052 29.7783 192.606 29.7735 189.118C29.7732 188.243 29.8218 187.368 29.9191 186.498C29.9996 185.785 30.1112 185.077 30.2539 184.374C31.033 180.56 32.7057 176.985 35.1346 173.943C36.5237 174.021 37.741 173.809 37.8586 171.117C37.8795 170.638 38.2347 170.224 38.313 169.752C38.1804 169.769 38.0456 169.78 37.913 169.789C37.8717 169.791 37.8282 169.793 37.7869 169.795L37.7713 169.796C37.6255 169.803 37.481 169.767 37.3551 169.693C37.2292 169.62 37.1272 169.511 37.0616 169.381C36.9959 169.25 36.9693 169.104 36.9849 168.959C37.0006 168.814 37.0578 168.676 37.1497 168.563C37.207 168.493 37.2643 168.422 37.3216 168.352C37.4086 168.243 37.4977 168.137 37.5847 168.028C37.5947 168.018 37.6041 168.007 37.6129 167.995C37.7129 167.871 37.8129 167.75 37.913 167.626C37.7304 167.342 37.4849 167.105 37.1955 166.932C36.1933 166.345 34.8106 166.752 34.0867 167.658C33.3606 168.565 33.2236 169.837 33.4758 170.969C33.7238 171.933 34.134 172.848 34.6889 173.674C34.6345 173.743 34.578 173.811 34.5237 173.88C33.5301 175.158 32.6642 176.53 31.9383 177.976C32.1437 176.372 29.6322 170.578 28.6609 169.351C27.4943 167.877 25.102 168.52 24.8965 170.389C24.8945 170.407 24.8926 170.425 24.8907 170.443C25.0349 170.525 25.1761 170.611 25.3143 170.702C25.4879 170.818 25.6224 170.984 25.7002 171.178C25.778 171.372 25.7954 171.584 25.7503 171.788C25.7051 171.992 25.5994 172.177 25.4471 172.32C25.2948 172.463 25.1029 172.556 24.8966 172.588L24.8754 172.591C22.9444 175.348 29.1349 182.525 30.6844 180.913C29.9551 182.98 29.4976 185.133 29.3234 187.318C29.2249 188.607 29.2307 189.902 29.3408 191.19L29.3343 191.144C28.99 188.339 23.0836 184.168 21.3588 184.515C20.3652 184.715 19.3866 184.67 19.5374 185.672C19.5398 185.688 19.5423 185.704 19.5448 185.72C19.8125 185.829 20.0732 185.955 20.3252 186.096C20.4695 186.177 20.6107 186.264 20.7489 186.355C20.9225 186.471 21.057 186.637 21.1348 186.831C21.2125 187.024 21.23 187.237 21.1849 187.441C21.1397 187.645 21.034 187.83 20.8817 187.973C20.7294 188.116 20.5375 188.209 20.3311 188.241L20.31 188.244C20.2948 188.246 20.2817 188.248 20.2665 188.25C19.3875 191.275 25.9062 196.156 29.8691 194.603H29.8713C30.264 196.309 30.833 197.971 31.5692 199.56H37.6347C37.6564 199.492 37.676 199.423 37.6955 199.355C37.1341 199.391 36.5705 199.357 36.0172 199.255C36.4672 198.703 36.9172 198.146 37.3673 197.594C37.3773 197.584 37.3867 197.573 37.3955 197.562C37.6238 197.279 37.8542 196.999 38.0825 196.716L38.0826 196.716C38.0948 195.849 37.9954 194.985 37.7868 194.144L37.7867 194.144ZM30.8409 180.481L30.8441 180.476L30.8409 180.485V180.481ZM29.4974 192.592L29.4452 192.475C29.4474 192.39 29.4474 192.305 29.4452 192.218C29.4452 192.194 29.4409 192.17 29.4409 192.146C29.4604 192.296 29.4778 192.446 29.4995 192.596L29.4974 192.592Z" fill="#88ED7E"/>
<path d="M105.204 199.414H19.5688V200H105.204V199.414Z" fill="#CCCCCC"/>
<path d="M218.369 39.6619L218.362 39.6682C217.694 38.9887 216.79 38.5922 215.838 38.5609C214.885 38.5296 213.957 38.8658 213.246 39.4999C212.535 40.134 212.095 41.0175 212.017 41.9672C211.94 42.9168 212.23 43.86 212.829 44.6013L212.822 44.6076L217.768 50.1547L223.315 45.209C223.679 44.8844 223.977 44.4911 224.189 44.0516C224.402 43.6121 224.526 43.135 224.554 42.6475C224.582 42.1601 224.514 41.6719 224.353 41.2108C224.193 40.7497 223.943 40.3248 223.618 39.9604C223.293 39.596 222.899 39.2991 222.46 39.0869C222.02 38.8746 221.543 38.7511 221.055 38.7234C220.568 38.6957 220.08 38.7643 219.619 38.9253C219.158 39.0864 218.733 39.3366 218.369 39.6619L218.369 39.6619Z" fill="#88ED7E"/>
</g>
<defs>
<clipPath id="clip0_904_110450">
<rect width="253.498" height="200" fill="white"/>
</clipPath>
</defs>
</svg>
