<svg width="14" height="13" viewBox="0 0 14 13" fill="none" xmlns="http://www.w3.org/2000/svg">
<path d="M13.9073 5.87113C13.3429 4.68203 12.6712 3.71224 11.8923 2.96179L11.0753 3.77872C11.7415 4.41534 12.3218 5.24816 12.8235 6.28538C11.4876 9.05022 9.59143 10.3636 7 10.3636C6.22214 10.3636 5.50567 10.2438 4.85058 10.0043L3.96542 10.8894C4.87526 11.3096 5.88678 11.5196 7 11.5196C10.086 11.5196 12.3884 9.91242 13.9073 6.69801C13.9683 6.56874 14 6.42754 14 6.28457C14 6.1416 13.9683 6.00041 13.9073 5.87113V5.87113ZM12.8866 0.722941L12.2021 0.037672C12.1902 0.0257294 12.176 0.0162553 12.1604 0.00979122C12.1449 0.00332717 12.1281 0 12.1113 0C12.0944 0 12.0777 0.00332717 12.0621 0.00979122C12.0465 0.0162553 12.0323 0.0257294 12.0204 0.037672L10.2643 1.79291C9.29616 1.29839 8.20805 1.05113 7 1.05113C3.91404 1.05113 1.61161 2.65833 0.0927157 5.87274C0.0316634 6.00201 0 6.14321 0 6.28618C0 6.42915 0.0316634 6.57034 0.0927157 6.69962C0.699525 7.97768 1.43007 9.0021 2.28436 9.7729L0.585313 11.4715C0.561243 11.4955 0.547721 11.5282 0.547721 11.5623C0.547721 11.5963 0.561243 11.629 0.585313 11.6531L1.27074 12.3385C1.29483 12.3626 1.32749 12.3761 1.36154 12.3761C1.39559 12.3761 1.42825 12.3626 1.45234 12.3385L12.8866 0.904695C12.8985 0.892766 12.908 0.878599 12.9145 0.863006C12.9209 0.847413 12.9243 0.830698 12.9243 0.813818C12.9243 0.796938 12.9209 0.780224 12.9145 0.76463C12.908 0.749037 12.8985 0.734871 12.8866 0.722941ZM1.17649 6.28538C2.51396 3.52054 4.41017 2.20716 7 2.20716C7.87569 2.20716 8.67191 2.35744 9.39427 2.66299L8.26553 3.79172C7.73098 3.50651 7.1189 3.40066 6.51961 3.48978C5.92032 3.57891 5.36554 3.85829 4.93711 4.28671C4.50869 4.71514 4.22931 5.26992 4.14018 5.86921C4.05106 6.46851 4.15691 7.08058 4.44212 7.61513L3.10273 8.95452C2.36143 8.30024 1.7224 7.41379 1.17649 6.28538ZM5.1375 6.28538C5.13779 6.00225 5.20485 5.72319 5.33324 5.47085C5.46164 5.21851 5.64775 5.00002 5.87645 4.83313C6.10515 4.66623 6.37 4.55564 6.64947 4.51033C6.92895 4.46502 7.21517 4.48627 7.48489 4.57236L5.22276 6.83449C5.16606 6.65698 5.1373 6.47173 5.1375 6.28538V6.28538Z" fill="#8C8C8C"/>
</svg>
