<svg width="4" height="4" viewBox="0 0 4 4" fill="none" xmlns="http://www.w3.org/2000/svg">
<path d="M1.05527 2.92922C0.997377 2.92922 0.940322 2.92654 0.883769 2.92136L0 3.80512C0.53155 4.00869 1.11069 4.05393 1.6674 3.93537C2.22411 3.81681 2.73456 3.53953 3.13705 3.13705C3.53953 2.73456 3.81681 2.22411 3.93537 1.6674C4.05393 1.11069 4.00869 0.53155 3.80512 0L2.92136 0.883769C2.92654 0.940322 2.92922 0.997377 2.92922 1.05527C2.92935 1.3014 2.88097 1.54514 2.78684 1.77256C2.69272 1.99997 2.55469 2.20661 2.38065 2.38065C2.20661 2.55469 1.99997 2.69272 1.77256 2.78684C1.54514 2.88097 1.3014 2.92935 1.05527 2.92922V2.92922Z" fill="#8C8C8C"/>
</svg>
