<svg width="16" height="16" viewBox="0 0 16 16" fill="none" xmlns="http://www.w3.org/2000/svg">
<path d="M14.7219 7.5972C14.1726 6.44002 13.519 5.49627 12.761 4.76595L11.966 5.56095C12.6142 6.18048 13.1789 6.99095 13.6672 8.00033C12.3672 10.691 10.5219 11.9691 8.00003 11.9691C7.24305 11.9691 6.54581 11.8525 5.90831 11.6194L5.0469 12.4808C5.93232 12.8897 6.9167 13.0941 8.00003 13.0941C11.0032 13.0941 13.2438 11.53 14.7219 8.40189C14.7813 8.27609 14.8121 8.13868 14.8121 7.99955C14.8121 7.86041 14.7813 7.72301 14.7219 7.5972ZM13.7286 2.5872L13.0625 1.92033C13.0509 1.90871 13.0371 1.89949 13.022 1.8932C13.0068 1.8869 12.9905 1.88367 12.9741 1.88367C12.9577 1.88367 12.9414 1.8869 12.9262 1.8932C12.911 1.89949 12.8973 1.90871 12.8857 1.92033L11.1767 3.62845C10.2346 3.1472 9.17565 2.90658 8.00003 2.90658C4.9969 2.90658 2.75628 4.47064 1.27815 7.59877C1.21874 7.72457 1.18793 7.86198 1.18793 8.00111C1.18793 8.14024 1.21874 8.27765 1.27815 8.40345C1.86868 9.6472 2.57961 10.6441 3.41097 11.3942L1.75753 13.0472C1.7341 13.0706 1.72095 13.1024 1.72095 13.1356C1.72095 13.1687 1.7341 13.2005 1.75753 13.2239L2.42456 13.891C2.448 13.9144 2.47978 13.9275 2.51292 13.9275C2.54606 13.9275 2.57784 13.9144 2.60128 13.891L13.7286 2.76408C13.7402 2.75247 13.7495 2.73868 13.7558 2.72351C13.762 2.70833 13.7653 2.69207 13.7653 2.67564C13.7653 2.65921 13.762 2.64295 13.7558 2.62777C13.7495 2.6126 13.7402 2.59881 13.7286 2.5872ZM2.33284 8.00033C3.6344 5.3097 5.47972 4.03158 8.00003 4.03158C8.85222 4.03158 9.62706 4.17783 10.33 4.47517L9.23159 5.57361C8.71139 5.29605 8.11574 5.19304 7.53254 5.27977C6.94933 5.36651 6.40944 5.63839 5.99252 6.05532C5.57559 6.47224 5.30371 7.01213 5.21698 7.59534C5.13024 8.17854 5.23325 8.77418 5.51081 9.29439L4.20737 10.5978C3.48597 9.96111 2.86409 9.09845 2.33284 8.00033ZM6.18753 8.00033C6.1878 7.7248 6.25306 7.45323 6.37801 7.20767C6.50296 6.9621 6.68408 6.74948 6.90664 6.58706C7.1292 6.42464 7.38694 6.31702 7.65891 6.27293C7.93089 6.22883 8.20943 6.24952 8.4719 6.3333L6.2705 8.5347C6.21532 8.36195 6.18733 8.18168 6.18753 8.00033Z" fill="#8C8C8C"/>
<path d="M7.93768 9.7502C7.88361 9.7502 7.83033 9.7477 7.77752 9.74286L6.95221 10.5682C7.4486 10.7583 7.98943 10.8005 8.50932 10.6898C9.0292 10.5791 9.50589 10.3201 9.88175 9.94428C10.2576 9.56842 10.5165 9.09173 10.6273 8.57185C10.738 8.05196 10.6957 7.51113 10.5056 7.01474L9.68033 7.84005C9.68517 7.89286 9.68767 7.94614 9.68767 8.00021C9.68779 8.23005 9.64261 8.45767 9.55471 8.67005C9.46681 8.88242 9.33791 9.07539 9.17538 9.23792C9.01286 9.40044 8.81989 9.52934 8.60752 9.61724C8.39514 9.70514 8.16752 9.75032 7.93768 9.7502Z" fill="#8C8C8C"/>
</svg>
