<svg width="13" height="13" viewBox="0 0 13 13" fill="none" xmlns="http://www.w3.org/2000/svg">
<path d="M12.9629 0.712173L12.2874 0.0366443C12.2619 0.0111526 12.23 0 12.1965 0C12.1631 0 12.1312 0.0127459 12.1057 0.0366443L10.8933 1.24909C10.3662 0.891974 9.74394 0.701574 9.10728 0.702614C8.29155 0.702614 7.47581 1.01329 6.85286 1.63625L5.22936 3.25975C5.20564 3.2837 5.19233 3.31605 5.19233 3.34976C5.19233 3.38348 5.20564 3.41583 5.22936 3.43978L9.55816 7.76858C9.58366 7.79408 9.61552 7.80523 9.64898 7.80523C9.68084 7.80523 9.7143 7.79248 9.73979 7.76858L11.3633 6.14508C12.461 5.04576 12.5901 3.34578 11.7504 2.10625L12.9629 0.893801C13.0123 0.842818 13.0123 0.761563 12.9629 0.712173ZM10.5954 5.37874L9.64898 6.32512L6.67283 3.34897L7.6192 2.40259C8.01592 2.00587 8.54487 1.78601 9.10728 1.78601C9.66969 1.78601 10.197 2.00428 10.5954 2.40259C10.9921 2.7993 11.2119 3.32825 11.2119 3.89066C11.2119 4.45307 10.9921 4.98043 10.5954 5.37874ZM7.56503 7.05163C7.54108 7.02791 7.50873 7.0146 7.47502 7.0146C7.4413 7.0146 7.40895 7.02791 7.385 7.05163L6.32391 8.11272L4.88522 6.67404L5.94791 5.61135C5.9973 5.56196 5.9973 5.48071 5.94791 5.43132L5.36797 4.85138C5.34402 4.82766 5.31167 4.81435 5.27795 4.81435C5.24424 4.81435 5.21189 4.82766 5.18794 4.85138L4.12525 5.91406L3.44016 5.22898C3.42827 5.21707 3.4141 5.20769 3.39849 5.2014C3.38289 5.1951 3.36617 5.19202 3.34935 5.19233C3.31749 5.19233 3.28403 5.20508 3.25854 5.22898L1.63663 6.85248C0.538894 7.9518 0.409842 9.65178 1.24947 10.8913L0.0370267 12.1038C0.0133064 12.1277 0 12.1601 0 12.1938C0 12.2275 0.0133064 12.2598 0.0370267 12.2838L0.712556 12.9593C0.738048 12.9848 0.769912 12.996 0.80337 12.996C0.836828 12.996 0.868692 12.9832 0.894184 12.9593L2.10663 11.7469C2.64355 12.1117 3.26809 12.2934 3.89264 12.2934C4.70837 12.2934 5.52411 11.9827 6.14706 11.3597L7.77056 9.73622C7.81995 9.68683 7.81995 9.60558 7.77056 9.55619L7.08547 8.8711L8.14816 7.80841C8.19755 7.75902 8.19755 7.67777 8.14816 7.62838L7.56503 7.05163ZM5.37912 10.595C5.18413 10.791 4.95222 10.9464 4.6968 11.0522C4.44138 11.158 4.16752 11.2122 3.89105 11.2116C3.32864 11.2116 2.80128 10.9933 2.40297 10.595C2.20698 10.4 2.05157 10.1681 1.94574 9.91265C1.83991 9.65723 1.78575 9.38337 1.78639 9.1069C1.78639 8.54449 2.00466 8.01713 2.40297 7.61882L3.34935 6.67244L6.3255 9.64859L5.37912 10.595Z" fill="#434343"/>
</svg>
