<svg width="14" height="14" viewBox="0 0 14 14" fill="none" xmlns="http://www.w3.org/2000/svg">
<path d="M13.079 8.77952L12.0555 7.90446C12.104 7.60756 12.129 7.30442 12.129 7.00127C12.129 6.69812 12.104 6.39498 12.0555 6.09808L13.079 5.22302C13.1562 5.15693 13.2115 5.06891 13.2375 4.97066C13.2634 4.8724 13.2588 4.76858 13.2244 4.67298L13.2103 4.63235C12.9285 3.84484 12.5066 3.1148 11.9649 2.47752L11.9368 2.4447C11.8711 2.36743 11.7835 2.31189 11.6856 2.28539C11.5877 2.25889 11.484 2.26268 11.3883 2.29625L10.1179 2.74785C9.64911 2.36345 9.12564 2.0603 8.55997 1.84779L8.31465 0.519567C8.29614 0.419627 8.24766 0.327683 8.17565 0.255952C8.10364 0.184221 8.0115 0.136098 7.91149 0.117977L7.8693 0.110164C7.05518 -0.0367213 6.19887 -0.0367213 5.38475 0.110164L5.34256 0.117977C5.24255 0.136098 5.15042 0.184221 5.07841 0.255952C5.0064 0.327683 4.95792 0.419627 4.93941 0.519567L4.69252 1.85404C4.13137 2.06659 3.6088 2.36958 3.14554 2.75097L1.86576 2.29625C1.77007 2.26241 1.66635 2.25849 1.56839 2.285C1.47042 2.31152 1.38284 2.36722 1.31728 2.4447L1.28916 2.47752C0.748096 3.11526 0.326238 3.84517 0.0437562 4.63235L0.0296927 4.67298C-0.0406247 4.86831 0.0171919 5.08707 0.175015 5.22302L1.21103 6.10746C1.16258 6.40123 1.13915 6.70125 1.13915 6.99971C1.13915 7.29973 1.16258 7.59975 1.21103 7.89196L0.175015 8.77639C0.0978158 8.84248 0.0425631 8.93051 0.0166043 9.02876C-0.0093545 9.12701 -0.0047894 9.23084 0.0296927 9.32643L0.0437562 9.36706C0.326588 10.1546 0.745368 10.8812 1.28916 11.5219L1.31728 11.5547C1.383 11.632 1.47058 11.6875 1.56849 11.714C1.6664 11.7405 1.77004 11.7367 1.86576 11.7032L3.14554 11.2484C3.61119 11.6313 4.13154 11.9344 4.69252 12.1454L4.93941 13.4798C4.95792 13.5798 5.0064 13.6717 5.07841 13.7435C5.15042 13.8152 5.24255 13.8633 5.34256 13.8814L5.38475 13.8893C6.20635 14.0369 7.0477 14.0369 7.8693 13.8893L7.91149 13.8814C8.0115 13.8633 8.10364 13.8152 8.17565 13.7435C8.24766 13.6717 8.29614 13.5798 8.31465 13.4798L8.55997 12.1516C9.12541 11.9397 9.65184 11.6355 10.1179 11.2516L11.3883 11.7032C11.484 11.737 11.5877 11.7409 11.6857 11.7144C11.7836 11.6879 11.8712 11.6322 11.9368 11.5547L11.9649 11.5219C12.5087 10.8797 12.9275 10.1546 13.2103 9.36706L13.2244 9.32643C13.2947 9.13423 13.2369 8.91547 13.079 8.77952V8.77952ZM10.9461 6.28247C10.9851 6.51842 11.0055 6.76063 11.0055 7.00283C11.0055 7.24504 10.9851 7.48724 10.9461 7.7232L10.8429 8.3498L12.0102 9.34831C11.8333 9.75598 11.6099 10.1419 11.3445 10.4984L9.89444 9.98429L9.40378 10.3874C9.03032 10.6937 8.61467 10.9344 8.16463 11.1031L7.56928 11.3266L7.28957 12.8423C6.84825 12.8923 6.40268 12.8923 5.96136 12.8423L5.68165 11.3234L5.09098 11.0969C4.64564 10.9281 4.23155 10.6875 3.86121 10.3828L3.37055 9.97804L1.91107 10.4968C1.64543 10.139 1.42354 9.75303 1.2454 9.34675L2.42517 8.33886L2.3236 7.71382C2.2861 7.48099 2.26579 7.24035 2.26579 7.00283C2.26579 6.76375 2.28454 6.52467 2.3236 6.29185L2.42517 5.6668L1.2454 4.65892C1.42198 4.25108 1.64543 3.86668 1.91107 3.50884L3.37055 4.02763L3.86121 3.62291C4.23155 3.3182 4.64564 3.07756 5.09098 2.9088L5.68321 2.68534L5.96292 1.16649C6.40201 1.11648 6.85048 1.11648 7.29114 1.16649L7.57084 2.68222L8.1662 2.90567C8.61467 3.07443 9.03188 3.31508 9.40535 3.62135L9.89601 4.0245L11.3461 3.5104C11.6118 3.86824 11.8336 4.2542 12.0118 4.66048L10.8445 5.65899L10.9461 6.28247ZM6.62859 4.09638C5.10973 4.09638 3.8784 5.32772 3.8784 6.84657C3.8784 8.36543 5.10973 9.59676 6.62859 9.59676C8.14745 9.59676 9.37878 8.36543 9.37878 6.84657C9.37878 5.32772 8.14745 4.09638 6.62859 4.09638ZM7.86618 8.08416C7.70386 8.24695 7.51095 8.37603 7.29856 8.46399C7.08617 8.55195 6.85848 8.59705 6.62859 8.59669C6.16137 8.59669 5.72228 8.41387 5.391 8.08416C5.22822 7.92184 5.09913 7.72893 5.01117 7.51654C4.92321 7.30415 4.87811 7.07646 4.87847 6.84657C4.87847 6.37935 5.06129 5.94026 5.391 5.60899C5.72228 5.27771 6.16137 5.09645 6.62859 5.09645C7.09581 5.09645 7.5349 5.27771 7.86618 5.60899C8.02896 5.77131 8.15805 5.96421 8.24601 6.1766C8.33397 6.389 8.37907 6.61669 8.37871 6.84657C8.37871 7.31379 8.19589 7.75289 7.86618 8.08416Z" fill="#434343"/>
</svg>
