<svg width="5" height="8" viewBox="0 0 5 8" fill="none" xmlns="http://www.w3.org/2000/svg">
<path d="M4.24499 0.636124C3.77611 0.225066 3.15717 0 2.50073 0C1.84429 0 1.22536 0.226629 0.756472 0.636124C0.268829 1.06281 0 1.63642 0 2.25066V2.36944C0 2.43821 0.0562665 2.49448 0.125037 2.49448H0.875256C0.944027 2.49448 1.00029 2.43821 1.00029 2.36944V2.25066C1.00029 1.56139 1.67393 1.00029 2.50073 1.00029C3.32754 1.00029 4.00117 1.56139 4.00117 2.25066C4.00117 2.73674 3.65732 3.18218 3.12435 3.38693C2.79301 3.51353 2.51167 3.73547 2.31005 4.02618C2.1053 4.32314 1.99902 4.6795 1.99902 5.04054V5.37658C1.99902 5.44535 2.05529 5.50161 2.12406 5.50161H2.87428C2.94305 5.50161 2.99932 5.44535 2.99932 5.37658V5.02178C3.00012 4.87005 3.04664 4.72209 3.13279 4.59719C3.21894 4.47228 3.34072 4.37624 3.48227 4.32158C4.40442 3.96679 4.9999 3.15405 4.9999 2.25066C5.00147 1.63642 4.73264 1.06281 4.24499 0.636124ZM1.87555 7.12709C1.87555 7.2929 1.94142 7.45192 2.05866 7.56916C2.17591 7.6864 2.33492 7.75227 2.50073 7.75227C2.66654 7.75227 2.82556 7.6864 2.9428 7.56916C3.06005 7.45192 3.12592 7.2929 3.12592 7.12709C3.12592 6.96128 3.06005 6.80226 2.9428 6.68502C2.82556 6.56777 2.66654 6.5019 2.50073 6.5019C2.33492 6.5019 2.17591 6.56777 2.05866 6.68502C1.94142 6.80226 1.87555 6.96128 1.87555 7.12709Z" fill="#434343"/>
</svg>
