<svg width="13" height="13" viewBox="0 0 13 13" fill="none" xmlns="http://www.w3.org/2000/svg">
<path d="M2.73 10.4H4.03C4.1015 10.4 4.16 10.3415 4.16 10.27V2.73C4.16 2.6585 4.1015 2.6 4.03 2.6H2.73C2.6585 2.6 2.6 2.6585 2.6 2.73V10.27C2.6 10.3415 2.6585 10.4 2.73 10.4ZM5.85 5.85H7.15C7.2215 5.85 7.28 5.7915 7.28 5.72V2.73C7.28 2.6585 7.2215 2.6 7.15 2.6H5.85C5.7785 2.6 5.72 2.6585 5.72 2.73V5.72C5.72 5.7915 5.7785 5.85 5.85 5.85ZM8.97 7.02H10.27C10.3415 7.02 10.4 6.9615 10.4 6.89V2.73C10.4 2.6585 10.3415 2.6 10.27 2.6H8.97C8.8985 2.6 8.84 2.6585 8.84 2.73V6.89C8.84 6.9615 8.8985 7.02 8.97 7.02ZM12.48 0H0.52C0.232375 0 0 0.232375 0 0.52V12.48C0 12.7676 0.232375 13 0.52 13H12.48C12.7676 13 13 12.7676 13 12.48V0.52C13 0.232375 12.7676 0 12.48 0ZM11.83 11.83H1.17V1.17H11.83V11.83Z" fill="#434343"/>
</svg>
