<svg width="13" height="12" viewBox="0 0 13 12" fill="none" xmlns="http://www.w3.org/2000/svg">
<path d="M8.58975 4.64425H12.7676C12.896 4.64425 13 4.54025 13 4.41188V0.232375C13 0.104 12.896 0 12.7676 0H8.58975C8.46137 0 8.35737 0.104 8.35737 0.232375V1.742H6.15225C6.08888 1.742 6.03688 1.794 6.03688 1.85737V5.45675H4.64425V3.88862C4.64425 3.76025 4.54025 3.65625 4.41188 3.65625H0.232375C0.104 3.65625 0 3.76025 0 3.88862V8.06813C0 8.1965 0.104 8.3005 0.232375 8.3005H4.41025C4.53862 8.3005 4.64263 8.1965 4.64263 8.06813V6.5H6.03525V10.0994C6.03525 10.1628 6.08725 10.2147 6.15062 10.2147H8.35575V11.7244C8.35575 11.8528 8.45975 11.9567 8.58812 11.9567H12.766C12.8944 11.9567 12.9984 11.8528 12.9984 11.7244V7.54813C12.9984 7.41975 12.8944 7.31575 12.766 7.31575H8.58975C8.46137 7.31575 8.35737 7.41975 8.35737 7.54813V9.17313H7.08013V2.78688H8.35737V4.41188C8.35737 4.54025 8.46137 4.64425 8.58975 4.64425ZM9.45912 1.10337H11.8966V3.5425H9.45912V1.10337ZM3.54087 7.19875H1.10337V4.76125H3.54087V7.19875ZM9.45912 8.41912H11.8966V10.8583H9.45912V8.41912Z" fill="#434343"/>
</svg>
