<svg width="16" height="16" viewBox="0 0 16 16" fill="none" xmlns="http://www.w3.org/2000/svg">
<path d="M14.4507 9.77555L13.4272 8.90055C13.4757 8.60368 13.5007 8.30055 13.5007 7.99743C13.5007 7.6943 13.4757 7.39118 13.4272 7.0943L14.4507 6.2193C14.5279 6.15322 14.5831 6.0652 14.6091 5.96695C14.635 5.86871 14.6305 5.76489 14.596 5.6693L14.5819 5.62867C14.3002 4.84122 13.8783 4.11123 13.3366 3.47399L13.3085 3.44117C13.2428 3.36391 13.1552 3.30837 13.0573 3.28187C12.9594 3.25538 12.8558 3.25916 12.7601 3.29274L11.4897 3.7443C11.021 3.35992 10.4976 3.0568 9.93194 2.8443L9.68662 1.51617C9.66812 1.41624 9.61964 1.3243 9.54763 1.25258C9.47563 1.18085 9.3835 1.13273 9.2835 1.11461L9.24131 1.1068C8.42725 0.959924 7.571 0.959924 6.75694 1.1068L6.71475 1.11461C6.61474 1.13273 6.52262 1.18085 6.45061 1.25258C6.37861 1.3243 6.33013 1.41624 6.31162 1.51617L6.06475 2.85055C5.50364 3.06309 4.9811 3.36606 4.51787 3.74742L3.23819 3.29274C3.14251 3.2589 3.0388 3.25497 2.94084 3.28149C2.84287 3.308 2.7553 3.3637 2.68975 3.44117L2.66162 3.47399C2.1206 4.11168 1.69877 4.84155 1.41631 5.62867L1.40225 5.6693C1.33194 5.86461 1.38975 6.08336 1.54756 6.2193L2.5835 7.10368C2.53506 7.39743 2.51162 7.69742 2.51162 7.99586C2.51162 8.29586 2.53506 8.59586 2.5835 8.88805L1.54756 9.77243C1.47037 9.83851 1.41512 9.92653 1.38916 10.0248C1.3632 10.123 1.36777 10.2268 1.40225 10.3224L1.41631 10.3631C1.69912 11.1506 2.11787 11.8771 2.66162 12.5177L2.68975 12.5506C2.75546 12.6278 2.84304 12.6834 2.94094 12.7099C3.03884 12.7364 3.14248 12.7326 3.23819 12.699L4.51787 12.2443C4.9835 12.6271 5.50381 12.9302 6.06475 13.1412L6.31162 14.4756C6.33013 14.5755 6.37861 14.6674 6.45061 14.7391C6.52262 14.8109 6.61474 14.859 6.71475 14.8771L6.75694 14.8849C7.57848 15.0326 8.41977 15.0326 9.24131 14.8849L9.2835 14.8771C9.3835 14.859 9.47563 14.8109 9.54763 14.7391C9.61964 14.6674 9.66812 14.5755 9.68662 14.4756L9.93194 13.1474C10.4973 12.9355 11.0237 12.6314 11.4897 12.2474L12.7601 12.699C12.8557 12.7328 12.9595 12.7368 13.0574 12.7102C13.1554 12.6837 13.2429 12.628 13.3085 12.5506L13.3366 12.5177C13.8804 11.8756 14.2991 11.1506 14.5819 10.3631L14.596 10.3224C14.6663 10.1302 14.6085 9.91149 14.4507 9.77555ZM12.3179 7.27868C12.3569 7.51461 12.3772 7.7568 12.3772 7.99899C12.3772 8.24118 12.3569 8.48336 12.3179 8.7193L12.2147 9.34586L13.3819 10.3443C13.205 10.7519 12.9816 11.1378 12.7163 11.4943L11.2663 10.9802L10.7757 11.3834C10.4022 11.6896 9.98662 11.9302 9.53662 12.099L8.94131 12.3224L8.66162 13.8381C8.22033 13.8881 7.7748 13.8881 7.3335 13.8381L7.05381 12.3193L6.46319 12.0927C6.01787 11.924 5.60381 11.6834 5.2335 11.3787L4.74287 10.974L3.2835 11.4927C3.01787 11.1349 2.796 10.749 2.61787 10.3427L3.79756 9.33493L3.696 8.70993C3.6585 8.47711 3.63819 8.23649 3.63819 7.99899C3.63819 7.75992 3.65694 7.52086 3.696 7.28805L3.79756 6.66305L2.61787 5.65524C2.79444 5.24742 3.01787 4.86305 3.2835 4.50524L4.74287 5.02399L5.2335 4.6193C5.60381 4.31461 6.01787 4.07399 6.46319 3.90524L7.05537 3.6818L7.33506 2.16305C7.77412 2.11305 8.22256 2.11305 8.66319 2.16305L8.94287 3.67867L9.53819 3.90211C9.98662 4.07086 10.4038 4.31149 10.7772 4.61774L11.2679 5.02086L12.7179 4.5068C12.9835 4.86461 13.2054 5.25055 13.3835 5.6568L12.2163 6.65524L12.3179 7.27868ZM8.00069 5.09274C6.48194 5.09274 5.25069 6.32399 5.25069 7.84274C5.25069 9.36149 6.48194 10.5927 8.00069 10.5927C9.51944 10.5927 10.7507 9.36149 10.7507 7.84274C10.7507 6.32399 9.51944 5.09274 8.00069 5.09274ZM9.23819 9.08024C9.07588 9.24301 8.88299 9.37209 8.67061 9.46005C8.45823 9.548 8.23056 9.5931 8.00069 9.59274C7.5335 9.59274 7.09444 9.40993 6.76319 9.08024C6.60041 8.91793 6.47133 8.72504 6.38338 8.51266C6.29542 8.30028 6.25033 8.07261 6.25069 7.84274C6.25069 7.37555 6.4335 6.93649 6.76319 6.60524C7.09444 6.27399 7.5335 6.09274 8.00069 6.09274C8.46787 6.09274 8.90694 6.27399 9.23819 6.60524C9.40096 6.76755 9.53004 6.96044 9.618 7.17282C9.70595 7.38519 9.75104 7.61287 9.75069 7.84274C9.75069 8.30993 9.56787 8.74899 9.23819 9.08024Z" fill="#434343"/>
</svg>
