<svg width="11" height="14" viewBox="0 0 11 14" fill="none" xmlns="http://www.w3.org/2000/svg">
<path d="M10.5 0H0.5C0.223437 0 0 0.223437 0 0.5V13.5C0 13.7766 0.223437 14 0.5 14H10.5C10.7766 14 11 13.7766 11 13.5V0.5C11 0.223437 10.7766 0 10.5 0ZM1.125 1.125H9.875V4.375H1.125V1.125ZM9.875 8.625H1.125V5.375H9.875V8.625ZM9.875 12.875H1.125V9.625H9.875V12.875ZM2.25 2.75C2.25 2.91576 2.31585 3.07473 2.43306 3.19194C2.55027 3.30915 2.70924 3.375 2.875 3.375C3.04076 3.375 3.19973 3.30915 3.31694 3.19194C3.43415 3.07473 3.5 2.91576 3.5 2.75C3.5 2.58424 3.43415 2.42527 3.31694 2.30806C3.19973 2.19085 3.04076 2.125 2.875 2.125C2.70924 2.125 2.55027 2.19085 2.43306 2.30806C2.31585 2.42527 2.25 2.58424 2.25 2.75ZM2.25 7C2.25 7.16576 2.31585 7.32473 2.43306 7.44194C2.55027 7.55915 2.70924 7.625 2.875 7.625C3.04076 7.625 3.19973 7.55915 3.31694 7.44194C3.43415 7.32473 3.5 7.16576 3.5 7C3.5 6.83424 3.43415 6.67527 3.31694 6.55806C3.19973 6.44085 3.04076 6.375 2.875 6.375C2.70924 6.375 2.55027 6.44085 2.43306 6.55806C2.31585 6.67527 2.25 6.83424 2.25 7ZM2.25 11.25C2.25 11.4158 2.31585 11.5747 2.43306 11.6919C2.55027 11.8092 2.70924 11.875 2.875 11.875C3.04076 11.875 3.19973 11.8092 3.31694 11.6919C3.43415 11.5747 3.5 11.4158 3.5 11.25C3.5 11.0842 3.43415 10.9253 3.31694 10.8081C3.19973 10.6908 3.04076 10.625 2.875 10.625C2.70924 10.625 2.55027 10.6908 2.43306 10.8081C2.31585 10.9253 2.25 11.0842 2.25 11.25Z" fill="#7346F8"/>
</svg>
